<svg width="58" height="56" viewBox="0 0 58 56" fill="none" xmlns="http://www.w3.org/2000/svg">
<path d="M28.62 1.42454C28.8121 1.08666 29.0769 0.856538 29.4145 0.7342C29.529 0.692265 29.655 0.692961 29.7701 0.73616C29.8852 0.77936 29.982 0.862268 30.0432 0.970141L39.2549 17.2586C39.5686 17.8123 40.0348 18.2668 40.5995 18.5693L57.5996 27.7097C57.6792 27.753 57.7458 27.817 57.7922 27.8948C57.8387 27.9727 57.8632 28.0614 57.8632 28.1513C57.8632 28.2413 57.8387 28.3291 57.7922 28.4052C57.7458 28.4814 57.6792 28.5431 57.5996 28.5835L40.4511 37.689C39.881 37.9912 39.4083 38.4521 39.089 39.0172L29.9559 55.2008C29.5775 55.8707 29.1991 55.8707 28.8208 55.2008L19.2511 38.2395C19.1483 38.0622 18.997 37.9169 18.8145 37.8201L1.08097 28.3826C1.01522 28.3476 0.9602 28.2954 0.921842 28.2315C0.883484 28.1676 0.86322 28.0945 0.86322 28.0199C0.86322 27.9454 0.883484 27.8723 0.921842 27.8084C0.9602 27.7445 1.01522 27.6923 1.08097 27.6573L18.4653 18.5081C19.0518 18.2002 19.5347 17.726 19.8536 17.145C22.6709 12.0009 25.5931 6.76081 28.62 1.42454Z" fill="#990DCE"/>
</svg>
