<svg width="33" height="32" viewBox="0 0 33 32" fill="none" xmlns="http://www.w3.org/2000/svg">
<path d="M26.0473 3.86441C26.6493 4.40303 27.2095 4.96027 27.7626 5.55064C27.9171 5.70342 28.0716 5.8562 28.2308 6.01362C30.8982 8.82413 32.0686 12.7737 32.0284 16.6076C32.0256 16.9828 32.0256 16.9828 32.0228 17.3657C31.9279 21.7466 30.2948 25.1702 27.2733 28.2572C27.0992 28.4376 26.9252 28.6181 26.7458 28.804C25.0142 30.4901 22.8686 31.8866 20.4235 32C19.8804 31.169 19.871 30.8828 19.8587 29.9122C19.8526 29.6501 19.8464 29.3879 19.8401 29.1178C19.8315 28.5668 19.8239 28.0158 19.8172 27.4647C19.8075 27.0706 19.8075 27.0706 19.7976 26.6684C19.7926 26.309 19.7926 26.309 19.7876 25.9424C19.6735 25.1514 19.3781 24.6804 18.9557 24.0153C18.9557 23.8506 18.9557 23.6859 18.9557 23.5162C19.1597 23.4796 19.3637 23.4429 19.574 23.4051C21.5529 23.0028 23.3731 22.5187 24.6721 20.8378C25.8924 18.7846 26.0514 16.6165 25.8055 14.2839C25.5382 13.6172 25.215 13.041 24.8527 12.4242C24.4111 11.3864 24.5175 10.3757 24.5871 9.26423C24.5822 8.52698 24.4714 8.16376 24.093 7.54681C22.6265 7.97823 22.6265 7.97823 21.3103 8.73204C20.412 9.16838 19.7223 8.99871 18.7502 8.87727C16.8736 8.67616 14.9949 8.71787 13.1303 8.99716C11.889 9.13701 11.1851 8.80987 10.166 8.10239C9.59127 7.75509 9.09302 7.64717 8.43634 7.54681C7.89894 8.42299 7.92932 9.05701 7.99294 10.0732C8.01756 11.2625 7.93494 11.9843 7.33548 13.0051C6.34375 14.7746 6.42561 16.8376 6.91215 18.7773C7.64561 20.7742 8.56493 21.8381 10.4546 22.7501C11.4709 23.1536 12.4968 23.3597 13.5737 23.5162C13.5012 23.6626 13.4286 23.8089 13.3539 23.9597C12.608 25.4195 12.608 25.4195 12.3505 27.0096C11.8765 26.916 11.8765 26.916 11.372 26.76C11.2912 26.5953 11.2105 26.4307 11.1273 26.261C11.1273 26.508 11.1273 26.755 11.1273 27.0096C10.8851 27.0096 10.643 27.0096 10.3934 27.0096C10.3127 26.8449 10.232 26.6802 10.1488 26.5105C10.0681 26.6752 9.98733 26.8399 9.90416 27.0096C9.58124 26.9272 9.25832 26.8449 8.92561 26.76C8.92561 26.513 8.92561 26.266 8.92561 26.0115C8.44123 26.135 8.44123 26.135 7.94707 26.261C7.94707 26.014 7.94707 25.7669 7.94707 25.5124C7.58379 25.3889 7.58379 25.3889 7.21316 25.2629C7.21316 25.0159 7.21316 24.7688 7.21316 24.5143C7.0517 24.5143 6.89024 24.5143 6.72389 24.5143C6.72389 24.2673 6.72389 24.0203 6.72389 23.7658C6.4817 23.7658 6.23951 23.7658 5.98998 23.7658C5.98998 23.5187 5.98998 23.2717 5.98998 23.0172C5.66706 23.0172 5.34414 23.0172 5.01144 23.0172C5.17794 23.1664 5.34445 23.3157 5.516 23.4695C6.35905 24.3147 6.90588 25.3436 7.49602 26.3799C8.23291 27.4086 8.91695 27.713 10.1335 27.9297C10.9546 28.0174 11.77 28.0136 12.5952 28.0076C12.6084 28.5326 12.6179 29.0577 12.6257 29.5828C12.6314 29.8751 12.6371 30.1675 12.6429 30.4688C12.5952 31.2514 12.5952 31.2514 12.1059 32C9.13799 31.8624 6.47324 29.8104 4.4849 27.6977C1.85927 24.5621 0.457854 20.815 0.500966 16.7012C0.502818 16.451 0.504671 16.2008 0.50658 15.9431C0.601566 11.5572 2.23778 8.14613 5.25608 5.05159C5.40082 4.89527 5.54557 4.73895 5.6947 4.57789C11.1412 -0.842536 20.1722 -0.631849 26.0473 3.86441Z" fill="#D9D9D9"/>
</svg>
