<svg width="160" height="192" viewBox="0 0 160 192" fill="none" xmlns="http://www.w3.org/2000/svg">
<path d="M110.548 51.6663C111.158 52.1679 111.765 52.6735 112.368 53.1829C112.679 53.4437 112.991 53.7045 113.311 53.9733C115.646 55.9944 117.59 58.1974 119.461 60.6492C119.678 60.9269 119.896 61.2045 120.12 61.4906C128.124 72.2438 130.71 85.6409 128.794 98.7274C127.119 109.189 121.915 118.512 114.366 125.845C111.895 128.325 109.987 130.962 108.635 134.192C108.501 134.512 108.367 134.831 108.229 135.161C106.363 140.157 105.92 145.662 105.789 150.957C105.705 153.677 105.705 153.677 104.902 154.725C103.732 155.448 102.834 155.566 101.47 155.569C100.882 155.573 100.882 155.573 100.282 155.577C99.8539 155.576 99.4259 155.575 98.9848 155.574C98.5325 155.576 98.0801 155.578 97.6141 155.58C96.3745 155.584 95.1351 155.585 93.8956 155.584C92.8602 155.584 91.8249 155.585 90.7895 155.587C88.3467 155.591 85.9039 155.591 83.4611 155.589C80.9422 155.587 78.4235 155.592 75.9047 155.599C73.7408 155.606 71.577 155.608 69.4131 155.607C68.1213 155.606 66.8295 155.607 65.5377 155.613C64.0971 155.618 62.6565 155.615 61.2158 155.61C60.7885 155.613 60.3612 155.616 59.921 155.619C59.3314 155.615 59.3314 155.615 58.7299 155.611C58.2193 155.611 58.2193 155.611 57.6982 155.611C56.5354 155.441 55.8303 155.028 54.8774 154.351C54.1514 153.285 54.0354 152.413 54.0155 151.139C54.007 150.806 53.9984 150.472 53.9896 150.129C53.9823 149.774 53.975 149.42 53.9674 149.055C53.6214 138.813 50.88 131.067 43.4446 123.926C34.6976 115.242 30.8142 102.351 30.5185 90.3044C30.8844 76.3371 36.4103 63.746 46.517 54.1047C53.7768 47.3859 62.7454 43.3365 72.4232 41.6101C72.8236 41.5379 73.224 41.4657 73.6365 41.3914C86.9897 39.9169 99.9661 43.394 110.548 51.6663ZM51.8909 57.6627C51.6113 57.885 51.3317 58.1073 51.0436 58.3364C48.9078 60.0972 47.2266 62.1943 45.5445 64.3823C45.2038 64.8198 45.2038 64.8198 44.8562 65.2661C38.3078 74.1063 35.7387 85.437 37.1464 96.2862C37.3765 97.7433 37.7095 99.1654 38.0782 100.594C38.1713 100.958 38.1713 100.958 38.2663 101.329C40.3921 109.405 44.6853 115.922 50.6543 121.733C57.9822 128.993 59.4447 138.944 60.4771 148.752C73.2893 148.752 86.1015 148.752 99.3019 148.752C99.6715 145.918 100.041 143.085 100.422 140.165C102.16 132.708 104.314 126.62 110.004 121.29C116.877 114.788 120.863 106.087 122.447 96.8608C122.497 96.5855 122.546 96.3103 122.596 96.0267C124.142 85.2514 121.13 73.888 114.8 65.0932C111.668 60.9472 107.873 56.9896 103.408 54.3028C103.2 54.1727 102.991 54.0425 102.777 53.9084C98.9359 51.5239 95.0638 49.9185 90.7157 48.7031C90.2859 48.576 89.8562 48.449 89.4134 48.3181C76.1021 45.0018 62.2278 49.1167 51.8909 57.6627Z" fill="#D7FF01"/>
<path d="M59.9842 158.405C60.5226 158.402 60.5226 158.402 61.072 158.399C61.4653 158.399 61.8586 158.398 62.2639 158.398C62.6786 158.396 63.0933 158.394 63.5205 158.392C64.8957 158.387 66.2708 158.384 67.6459 158.382C68.6006 158.38 69.5553 158.378 70.51 158.376C72.2573 158.372 74.0045 158.37 75.7519 158.369C78.3201 158.367 80.8883 158.36 83.4565 158.35C85.6836 158.341 87.9106 158.338 90.1377 158.337C91.0837 158.336 92.0297 158.333 92.9757 158.328C94.3001 158.322 95.6243 158.322 96.9487 158.325C97.3389 158.321 97.7292 158.318 98.1313 158.314C100.82 158.33 102.648 158.655 104.785 160.394C106.164 162.072 107.21 163.73 107.305 165.948C107.014 168.563 106.01 170.415 104.155 172.271C102.127 173.321 100.233 173.807 97.9594 173.816C97.6262 173.818 97.2929 173.82 96.9495 173.823C96.5886 173.823 96.2277 173.824 95.8558 173.824C95.4719 173.826 95.088 173.828 94.6925 173.83C93.4238 173.835 92.155 173.838 90.8863 173.84C90.0023 173.842 89.1184 173.844 88.2344 173.846C86.3807 173.85 84.527 173.852 82.6733 173.853C80.3037 173.856 77.9343 173.864 75.5648 173.875C73.7383 173.882 71.9119 173.884 70.0853 173.885C69.2121 173.886 68.3389 173.889 67.4657 173.894C66.2409 173.9 65.0163 173.899 63.7915 173.897C63.4343 173.9 63.0772 173.904 62.7092 173.907C60.0432 173.891 57.2611 173.612 55.0874 171.947C53.0548 169.335 52.2373 167.418 52.6375 164.058C53.3335 161.56 54.9323 160.128 57.1173 158.831C58.1914 158.473 58.8684 158.409 59.9842 158.405ZM58.9839 165.178C59.1696 166.207 59.1696 166.207 59.7305 167.044C60.2547 167.08 60.7806 167.09 61.306 167.089C61.6458 167.09 61.9855 167.09 62.3356 167.091C62.7112 167.089 63.0869 167.088 63.4739 167.086C63.8672 167.087 64.2605 167.087 64.6658 167.087C65.9727 167.086 67.2796 167.083 68.5865 167.081C69.4899 167.08 70.3933 167.079 71.2967 167.079C73.6799 167.078 76.0629 167.074 78.446 167.07C80.8757 167.066 83.3053 167.064 85.735 167.062C90.5062 167.058 95.2774 167.052 100.049 167.044C100.172 166.428 100.295 165.812 100.422 165.178C99.2625 164.405 99.0163 164.337 97.7034 164.336C97.3773 164.334 97.0512 164.332 96.7153 164.33C96.3586 164.331 96.002 164.333 95.6345 164.334C95.258 164.333 94.8816 164.332 94.4937 164.33C93.2465 164.327 91.9994 164.329 90.7521 164.332C89.8868 164.331 89.0216 164.331 88.1563 164.33C86.3414 164.328 84.5266 164.33 82.7117 164.334C80.3838 164.338 78.056 164.335 75.7281 164.331C73.9408 164.328 72.1534 164.329 70.3661 164.331C69.5077 164.331 68.6493 164.331 67.791 164.329C66.5916 164.327 65.3923 164.33 64.1929 164.334C63.8369 164.333 63.481 164.331 63.1143 164.33C62.6237 164.333 62.6237 164.333 62.1231 164.336C61.8396 164.336 61.5561 164.337 61.2641 164.337C60.3708 164.444 59.7606 164.734 58.9839 165.178Z" fill="#D7FF01"/>
<path d="M66.9062 176.263C67.2148 176.26 67.5234 176.256 67.8413 176.253C68.8611 176.244 69.8809 176.241 70.9008 176.238C71.6113 176.235 72.3218 176.232 73.0323 176.228C74.5224 176.222 76.0123 176.219 77.5024 176.218C79.4071 176.216 81.3115 176.202 83.2162 176.185C84.6843 176.174 86.1524 176.171 87.6206 176.171C88.3225 176.169 89.0244 176.165 89.7262 176.157C90.7109 176.147 91.6949 176.149 92.6796 176.153C92.9667 176.148 93.2538 176.142 93.5497 176.136C95.9986 176.169 97.7599 177.115 99.5137 178.809C101.238 180.758 101.304 182.54 101.271 185.057C101.022 187.553 99.5478 188.955 97.6905 190.502C96.2131 191.523 94.6212 191.367 92.9033 191.37C92.5936 191.372 92.2839 191.373 91.9648 191.375C90.9394 191.381 89.9139 191.383 88.8885 191.385C88.1756 191.388 87.4628 191.39 86.75 191.392C85.2546 191.396 83.7592 191.398 82.2639 191.399C80.3495 191.401 78.4352 191.41 76.5209 191.421C75.048 191.428 73.5751 191.43 72.1022 191.43C71.3966 191.432 70.6909 191.435 69.9853 191.439C68.997 191.446 68.0089 191.445 67.0206 191.443C66.7302 191.446 66.4398 191.45 66.1406 191.453C63.8042 191.435 62.3496 190.837 60.5938 189.326C58.7509 187.185 58.4016 185.469 58.4808 182.688C58.7294 180.609 59.6595 179.314 61.2238 177.94C63.1721 176.52 64.501 176.265 66.9062 176.263ZM64.9569 183.097C64.9569 183.589 64.9569 184.082 64.9569 184.59C66.0581 185.141 67.1736 185.018 68.3809 185.017C68.6565 185.019 68.9322 185.02 69.2162 185.021C70.1296 185.025 71.0431 185.026 71.9566 185.026C72.5898 185.027 73.2231 185.028 73.8563 185.03C75.1844 185.032 76.5126 185.033 77.8407 185.032C79.5455 185.032 81.2503 185.037 82.9551 185.044C84.263 185.048 85.5709 185.049 86.8788 185.049C87.5076 185.049 88.1363 185.051 88.765 185.054C89.6428 185.057 90.5204 185.056 91.3981 185.054C91.6596 185.056 91.921 185.058 92.1904 185.06C93.672 185.089 93.672 185.089 94.8221 184.217C94.7599 183.439 94.7599 183.439 94.4488 182.723C93.3561 182.177 92.2569 182.295 91.0591 182.296C90.7871 182.295 90.5151 182.293 90.2349 182.292C89.3335 182.288 88.4322 182.288 87.5308 182.287C86.9059 182.286 86.2811 182.285 85.6562 182.284C84.3456 182.281 83.0351 182.281 81.7246 182.281C80.0423 182.281 78.3601 182.276 76.6779 182.269C75.3873 182.265 74.0967 182.264 72.8061 182.265C72.1857 182.264 71.5653 182.263 70.9449 182.26C70.0788 182.256 69.2128 182.257 68.3466 182.259C67.9597 182.256 67.9597 182.256 67.565 182.253C66.0961 182.227 66.0961 182.227 64.9569 183.097Z" fill="#D7FF01"/>
<path d="M90.7157 55.0495C92.6293 55.6902 94.4728 56.4688 96.3154 57.2894C96.6532 57.4352 96.991 57.581 97.3391 57.7312C100 58.9597 102.254 60.6827 104.528 62.5158C104.848 62.7732 105.168 63.0307 105.498 63.2959C112.699 69.4237 117.242 78.2944 118.132 87.6912C118.181 88.2977 118.227 88.9044 118.271 89.5112C118.295 89.8015 118.32 90.0918 118.345 90.3909C118.449 92.139 118.358 93.1919 117.221 94.6209C116.272 95.3409 115.809 95.3709 114.608 95.3209C113.237 94.9211 112.843 94.654 111.995 93.501C111.687 92.2393 111.581 90.9654 111.458 89.6745C110.572 82.1425 108.097 76.0915 103.035 70.3554C102.752 70.0197 102.752 70.0197 102.463 69.6773C97.3136 64.0151 89.2661 60.9119 81.7794 60.4625C78.6349 60.2575 78.6349 60.2575 77.2763 59.1559C76.693 57.9193 76.693 57.9193 76.5297 56.5427C78.2978 51.7689 86.7778 53.9244 90.7157 55.0495Z" fill="#D7FF01"/>
<path d="M34.7183 13.9847C36.6069 15.9355 37.9649 18.3011 39.4081 20.5878C39.9374 21.4244 40.4668 22.2609 40.9962 23.0974C41.258 23.5118 41.5199 23.9262 41.7896 24.3532C42.497 25.4619 43.2171 26.5606 43.9448 27.656C44.1531 27.9735 44.3615 28.291 44.5761 28.6182C44.9622 29.2059 45.3526 29.7908 45.748 30.3723C46.8444 32.0589 47.302 33.1883 47.0378 35.2637C46.5011 36.3603 46.5011 36.3603 45.5445 37.1303C44.3591 37.4222 43.3492 37.5133 42.1847 37.1303C40.4523 35.3724 39.218 33.242 37.9149 31.1573C36.496 28.8941 35.0732 26.6377 33.5882 24.4172C33.2272 23.8707 33.2272 23.8707 32.859 23.3133C32.3974 22.6156 31.9308 21.9213 31.4585 21.2309C30.1257 19.1975 29.543 17.918 29.8652 15.478C30.9963 13.3774 32.5519 13.4245 34.7183 13.9847Z" fill="#D7FF01"/>
<path d="M157.912 45.7166C158.799 46.0899 158.799 46.0899 159.406 46.8365C159.744 47.8522 159.935 48.7599 159.779 49.823C158.789 51.2499 157.864 52.0452 156.332 52.8446C155.944 53.0497 155.557 53.2549 155.157 53.4663C154.742 53.6808 154.327 53.8952 153.899 54.1162C153.247 54.4587 152.594 54.8013 151.942 55.1445C151.495 55.3797 151.047 55.6144 150.599 55.8486C149.061 56.6548 147.54 57.4878 146.025 58.3364C145.622 58.5604 145.22 58.7844 144.805 59.0152C144.039 59.443 143.274 59.8741 142.511 60.3087C142.163 60.5009 141.816 60.6932 141.457 60.8913C141.156 61.0613 140.854 61.2314 140.543 61.4066C139.415 61.8495 138.582 61.8846 137.38 61.7691C136.307 60.9992 136.307 60.9992 135.514 59.9026C135.283 58.4655 135.292 57.6677 136.031 56.4042C137.447 54.9802 139.092 54.2306 140.88 53.3462C141.652 52.9547 142.423 52.5624 143.194 52.1694C143.589 51.9688 143.985 51.7682 144.392 51.5615C146.328 50.5648 148.235 49.5187 150.143 48.4698C150.817 48.0992 151.491 47.7288 152.165 47.3586C152.447 47.2033 152.729 47.0481 153.019 46.8881C153.279 46.7479 153.538 46.6077 153.806 46.4632C154.059 46.3239 154.313 46.1847 154.574 46.0412C155.716 45.5301 156.681 45.6066 157.912 45.7166Z" fill="#D7FF01"/>
<path d="M4.47979 45.7166C5.5764 46.1176 5.5764 46.1176 6.71968 46.7199C6.93476 46.832 7.14984 46.9441 7.37143 47.0596C10.368 48.6437 13.3038 50.3454 16.2465 52.0265C18.2299 53.1558 20.2382 54.2219 22.2764 55.2492C23.2155 55.8401 23.7054 56.3357 24.2655 57.2894C24.4082 58.6209 24.414 59.5498 23.8922 60.7892C22.7732 61.6984 21.56 61.7897 20.159 61.7691C19.1667 61.4128 18.402 61.0753 17.5035 60.5617C17.2615 60.4313 17.0195 60.3009 16.7701 60.1666C15.99 59.7438 15.2164 59.3103 14.4426 58.8759C13.9074 58.5822 13.3719 58.289 12.8361 57.9963C11.5263 57.2782 10.222 56.5507 8.91965 55.819C7.9126 55.2544 6.90158 54.697 5.89139 54.138C5.25694 53.7818 4.62302 53.4246 3.98981 53.0662C3.70742 52.9078 3.42503 52.7493 3.13408 52.5861C0.717377 51.1833 0.717376 51.1833 0 49.823C0.0257254 48.3824 0.17764 47.5033 0.979953 46.2999C2.20923 45.4911 3.02463 45.6128 4.47979 45.7166Z" fill="#D7FF01"/>
<path d="M80.623 0C81.7456 0.254243 82.1587 0.777843 82.876 1.66534C83.0657 2.72773 83.0657 2.72773 83.0693 3.97012C83.074 4.43606 83.0787 4.90199 83.0835 5.38204C83.0809 5.88917 83.0778 6.3963 83.0744 6.90342C83.0754 7.42501 83.0768 7.9466 83.0787 8.46818C83.0809 9.56029 83.0777 10.6522 83.0707 11.7443C83.0622 13.1429 83.0671 14.541 83.0761 15.9395C83.0815 17.0162 83.0797 18.0929 83.0759 19.1696C83.0749 19.6852 83.0761 20.2008 83.0796 20.7164C83.0834 21.4374 83.0766 22.1584 83.0693 22.8794C83.0675 23.4944 83.0675 23.4944 83.0657 24.1218C82.8319 25.4314 82.4131 25.863 81.3828 26.6775C80.1214 27.1754 79.6172 27.0864 78.3263 26.6308C77.1055 25.817 76.9507 25.4372 76.5297 24.0643C76.4349 23.0445 76.4349 23.0445 76.4331 21.9286C76.4307 21.5088 76.4284 21.0889 76.4259 20.6564C76.4275 20.2064 76.429 19.7564 76.4305 19.2928C76.4294 18.595 76.4294 18.595 76.4284 17.883C76.4277 16.6489 76.4307 15.4149 76.4349 14.1808C76.4364 13.4255 76.4349 12.6702 76.4323 11.9149C76.4277 10.4622 76.4283 9.00949 76.4305 7.55672C76.429 7.10676 76.4275 6.6568 76.4259 6.1932C76.4283 5.77335 76.4306 5.35349 76.4331 4.92091C76.4337 4.55267 76.4343 4.18442 76.4349 3.80502C76.538 2.69609 76.7656 1.90727 77.2763 0.918706C78.4763 0.118724 79.2079 0.0599842 80.623 0Z" fill="#D7FF01"/>
<path d="M129.54 14.7314C130.427 15.1047 130.427 15.1047 131.034 15.8513C131.454 17.3512 131.647 18.2707 131.033 19.7216C130.445 20.722 129.813 21.6757 129.154 22.6308C128.919 22.985 128.683 23.3391 128.44 23.704C127.687 24.8326 126.922 25.9532 126.157 27.0741C125.652 27.8293 125.148 28.5849 124.644 29.341C119.061 37.6719 119.061 37.6719 117.596 38.0894C116.351 38.1587 115.485 37.9555 114.421 37.317C113.632 36.0017 113.587 34.8719 113.861 33.3972C114.496 32.0299 115.325 30.8185 116.177 29.578C116.414 29.222 116.65 28.8661 116.894 28.4994C117.65 27.3666 118.415 26.2405 119.181 25.1142C119.691 24.3527 120.199 23.5907 120.708 22.8284C126.278 14.5064 126.278 14.5064 129.54 14.7314Z" fill="#D7FF01"/>
</svg>
