<svg width="33" height="33" viewBox="0 0 33 33" fill="none" xmlns="http://www.w3.org/2000/svg">
<path d="M5.48392 0.531477C5.74772 0.529775 6.01153 0.528074 6.28333 0.52632C7.15493 0.521785 8.02642 0.522743 8.89803 0.524153C9.50418 0.523022 10.1103 0.521706 10.7165 0.520214C11.9868 0.517999 13.2572 0.518602 14.5275 0.521065C16.1553 0.523914 17.783 0.518903 19.4108 0.511664C20.6625 0.507115 21.9143 0.507183 23.166 0.508599C23.7662 0.508637 24.3663 0.507135 24.9665 0.504064C25.8057 0.500374 26.6447 0.503009 27.484 0.507264C27.7317 0.504867 27.9795 0.50247 28.2347 0.5C29.6485 0.515005 30.5316 0.633656 31.6245 1.62343C32.6236 2.75196 32.4749 4.05538 32.4685 5.48392C32.4702 5.74772 32.4719 6.01153 32.4737 6.28333C32.4782 7.15493 32.4773 8.02642 32.4758 8.89803C32.477 9.50418 32.4783 10.1103 32.4798 10.7165C32.482 11.9868 32.4814 13.2572 32.4789 14.5275C32.4761 16.1553 32.4811 17.783 32.4883 19.4108C32.4929 20.6625 32.4928 21.9143 32.4914 23.166C32.4914 23.7662 32.4929 24.3663 32.4959 24.9665C32.4996 25.8057 32.497 26.6447 32.4927 27.484C32.4963 27.8556 32.4963 27.8556 32.5 28.2347C32.485 29.6485 32.3663 30.5316 31.3766 31.6245C30.248 32.6236 28.9446 32.4749 27.5161 32.4685C27.1204 32.4711 27.1204 32.4711 26.7167 32.4737C25.8451 32.4782 24.9736 32.4773 24.102 32.4758C23.4958 32.477 22.8897 32.4783 22.2835 32.4798C21.0132 32.482 19.7428 32.4814 18.4725 32.4789C16.8447 32.4761 15.217 32.4811 13.5892 32.4883C12.3375 32.4929 11.0857 32.4928 9.83396 32.4914C9.23381 32.4914 8.63366 32.4929 8.03352 32.4959C7.19426 32.4996 6.35525 32.497 5.516 32.4927C5.1444 32.4963 5.1444 32.4963 4.76529 32.5C3.35149 32.485 2.46837 32.3663 1.37549 31.3766C0.376388 30.248 0.525054 28.9446 0.531477 27.5161C0.529775 27.2523 0.528074 26.9885 0.52632 26.7167C0.521785 25.8451 0.522743 24.9736 0.524153 24.102C0.523022 23.4958 0.521706 22.8897 0.520214 22.2835C0.517999 21.0132 0.518602 19.7428 0.521065 18.4725C0.523914 16.8447 0.518903 15.217 0.511664 13.5892C0.507115 12.3375 0.507183 11.0857 0.508599 9.83395C0.508637 9.23381 0.507135 8.63366 0.504064 8.03352C0.500374 7.19426 0.503009 6.35525 0.507264 5.516C0.504867 5.26827 0.50247 5.02053 0.5 4.76529C0.515005 3.35149 0.633656 2.46837 1.62343 1.37549C2.75196 0.376388 4.05538 0.525054 5.48392 0.531477ZM3.35903 3.60697C3.13509 4.27878 3.07955 4.66638 3.07793 5.35604C3.07688 5.56008 3.07582 5.76412 3.07473 5.97434C3.07484 6.19732 3.07495 6.42029 3.07507 6.65002C3.07424 6.88553 3.0734 7.12105 3.07255 7.36369C3.07019 8.14375 3.06971 8.92379 3.06944 9.70385C3.06864 10.2452 3.06781 10.7865 3.06694 11.3279C3.06545 12.4632 3.065 13.5985 3.06514 14.7338C3.06517 16.1899 3.06178 17.6459 3.05751 19.1019C3.05476 20.2201 3.05425 21.3383 3.05438 22.4564C3.05409 22.9933 3.05299 23.5302 3.05108 24.0671C3.04865 24.8174 3.04936 25.5676 3.05086 26.3179C3.04946 26.5404 3.04807 26.7628 3.04663 26.9921C3.04767 27.1968 3.04871 27.4015 3.04979 27.6125C3.04965 27.7898 3.04952 27.9671 3.04938 28.1498C3.12325 28.7476 3.2786 29.1363 3.60697 29.641C4.27878 29.8649 4.66638 29.9204 5.35604 29.9221C5.56008 29.9231 5.76412 29.9242 5.97434 29.9253C6.19732 29.9252 6.42029 29.925 6.65002 29.9249C7.00329 29.9262 7.00329 29.9262 7.36369 29.9275C8.14375 29.9298 8.92379 29.9303 9.70385 29.9306C10.2452 29.9314 10.7865 29.9322 11.3279 29.9331C12.4632 29.9345 13.5985 29.935 14.7338 29.9349C16.1899 29.9348 17.6459 29.9382 19.1019 29.9425C20.2201 29.9452 21.3383 29.9457 22.4564 29.9456C22.9933 29.9459 23.5302 29.947 24.0671 29.9489C24.8174 29.9513 25.5676 29.9506 26.3179 29.9491C26.5404 29.9505 26.7628 29.9519 26.9921 29.9534C27.1968 29.9523 27.4015 29.9513 27.6125 29.9502C27.7898 29.9503 27.9671 29.9505 28.1498 29.9506C28.7476 29.8767 29.1363 29.7214 29.641 29.393C29.8649 28.7212 29.9204 28.3336 29.9221 27.644C29.9231 27.4399 29.9242 27.2359 29.9253 27.0257C29.9252 26.8027 29.925 26.5797 29.9249 26.35C29.9258 26.1145 29.9266 25.879 29.9275 25.6363C29.9298 24.8563 29.9303 24.0762 29.9306 23.2962C29.9314 22.7548 29.9322 22.2135 29.9331 21.6721C29.9345 20.5368 29.935 19.4015 29.9349 18.2662C29.9348 16.8101 29.9382 15.3541 29.9425 13.8981C29.9452 12.7799 29.9457 11.6617 29.9456 10.5436C29.9459 10.0067 29.947 9.46978 29.9489 8.93289C29.9513 8.18261 29.9506 7.43239 29.9491 6.68211C29.9505 6.45963 29.9519 6.23716 29.9534 6.00794C29.9523 5.8032 29.9513 5.59847 29.9502 5.38752C29.9503 5.21022 29.9505 5.03291 29.9506 4.85024C29.8767 4.25238 29.7214 3.86366 29.393 3.35903C28.7212 3.13509 28.3336 3.07955 27.644 3.07793C27.4399 3.07688 27.2359 3.07582 27.0257 3.07473C26.8027 3.07484 26.5797 3.07495 26.35 3.07507C26.1145 3.07424 25.879 3.0734 25.6363 3.07255C24.8563 3.07019 24.0762 3.06971 23.2962 3.06944C22.7548 3.06864 22.2135 3.06781 21.6721 3.06694C20.5368 3.06545 19.4015 3.065 18.2662 3.06514C16.8101 3.06517 15.3541 3.06178 13.8981 3.05751C12.7799 3.05476 11.6617 3.05425 10.5436 3.05438C10.0067 3.05409 9.46978 3.05299 8.93289 3.05108C8.18261 3.04865 7.43239 3.04936 6.68211 3.05086C6.34839 3.04877 6.34839 3.04877 6.00794 3.04663C5.8032 3.04767 5.59847 3.04871 5.38752 3.04979C5.21022 3.04965 5.03291 3.04952 4.85024 3.04938C4.25238 3.12325 3.86366 3.2786 3.35903 3.60697Z" fill="#D9D9D9"/>
<path d="M24.5891 12.9358C25.7771 13.6618 26.2895 14.5878 26.6878 15.9068C26.9635 17.063 26.9767 18.1754 26.962 19.3591C26.9613 19.5764 26.9606 19.7937 26.9599 20.0177C26.9571 20.7047 26.9509 21.3917 26.9446 22.0787C26.9421 22.5475 26.9398 23.0162 26.9378 23.485C26.9328 24.6279 26.9231 25.7707 26.9136 26.9136C25.4408 26.9136 23.968 26.9136 22.4506 26.9136C22.4367 26.0578 22.4367 26.0578 22.4225 25.1848C22.4111 24.6276 22.3984 24.0704 22.3856 23.5132C22.3773 23.1282 22.3704 22.7432 22.3647 22.3582C22.3563 21.8023 22.3434 21.2466 22.3296 20.6908C22.328 20.5208 22.3264 20.3508 22.3248 20.1756C22.2894 18.9978 22.0882 17.6252 21.2109 16.7479C19.9003 16.6141 19.9003 16.6141 18.7176 17.0587C17.6951 17.9773 17.7714 19.5232 17.6794 20.8237C17.6363 21.7483 17.6076 22.6721 17.5847 23.5974C17.5752 23.9173 17.5656 24.2372 17.5557 24.5669C17.5325 25.3491 17.5119 26.1313 17.4918 26.9136C16.1008 26.9136 14.7099 26.9136 13.2767 26.9136C13.2767 22.2498 13.2767 17.586 13.2767 12.7809C14.6677 12.7809 16.0587 12.7809 17.4918 12.7809C17.5736 13.19 17.6554 13.5991 17.7397 14.0206C17.9698 13.8211 18.2 13.6217 18.4371 13.4162C19.9939 12.0669 22.76 12.1025 24.5891 12.9358Z" fill="#D9D9D9"/>
<path d="M6.0864 12.7809C7.641 12.7809 9.1956 12.7809 10.7973 12.7809C10.7973 17.4447 10.7973 22.1085 10.7973 26.9136C9.24271 26.9136 7.68811 26.9136 6.0864 26.9136C6.0864 22.2498 6.0864 17.586 6.0864 12.7809Z" fill="#D9D9D9"/>
<path d="M9.5576 5.83846C10.2693 6.28325 10.6712 6.57798 11.0453 7.32612C11.1313 8.63849 11.1726 9.49154 10.3014 10.5494C9.45303 11.1857 8.60391 11.1356 7.57406 11.0453C6.88254 10.7379 6.47232 10.4788 6.00892 9.88303C5.75352 9.02395 5.69181 8.20602 5.83846 7.32612C6.82108 5.78667 7.81592 5.61285 9.5576 5.83846Z" fill="#D9D9D9"/>
</svg>
