<svg width="494" height="424" viewBox="0 0 494 424" fill="none" xmlns="http://www.w3.org/2000/svg">
<g clip-path="url(#clip0_366_7)">
<mask id="path-1-outside-1_366_7" maskUnits="userSpaceOnUse" x="10.729" y="30" width="649" height="152" fill="black">
<rect fill="white" x="10.729" y="30" width="649" height="152"/>
<path d="M109.625 75.2208C108.78 74.3767 107.213 73.2312 104.922 71.7842C102.751 70.3372 100.038 68.9505 96.7823 67.624C93.6471 66.2976 90.2105 65.1521 86.4723 64.1874C82.7342 63.1021 78.9358 62.5595 75.0771 62.5595C68.3244 62.5595 63.1996 63.8256 59.7027 66.3579C56.3263 68.8902 54.6381 72.4474 54.6381 77.0296C54.6381 80.5265 55.7234 83.3 57.8939 85.3499C60.0644 87.3998 63.3202 89.1483 67.6612 90.5953C72.0022 92.0423 77.4285 93.6099 83.9401 95.2981C92.381 97.348 99.6763 99.8803 105.826 102.895C112.096 105.789 116.86 109.648 120.115 114.471C123.492 119.174 125.18 125.444 125.18 133.282C125.18 140.155 123.914 146.064 121.381 151.008C118.849 155.831 115.352 159.75 110.891 162.765C106.429 165.78 101.364 168.01 95.697 169.457C90.0296 170.784 84.0004 171.447 77.6094 171.447C71.2185 171.447 64.8275 170.784 58.4365 169.457C52.0456 168.131 45.8958 166.262 39.9871 163.85C34.0785 161.318 28.6522 158.303 23.7083 154.806L34.7417 133.282C35.827 134.367 37.7563 135.814 40.5298 137.623C43.3032 139.311 46.6796 141.06 50.6588 142.869C54.6381 144.557 58.9792 146.004 63.6819 147.21C68.3847 148.415 73.1478 149.018 77.9712 149.018C84.7239 149.018 89.8487 147.873 93.3456 145.582C96.8426 143.291 98.5911 140.035 98.5911 135.814C98.5911 131.956 97.2043 128.941 94.4309 126.771C91.6575 124.6 87.7988 122.731 82.8548 121.163C77.9109 119.475 72.0625 117.666 65.3098 115.737C57.2307 113.446 50.478 110.914 45.0517 108.14C39.6254 105.246 35.5858 101.629 32.933 97.2877C30.2801 92.9467 28.9537 87.5204 28.9537 81.0089C28.9537 72.2062 31.0036 64.8506 35.1035 58.942C39.3239 52.9128 44.9914 48.3909 52.1059 45.3763C59.2203 42.2411 67.1186 40.6735 75.8006 40.6735C81.8299 40.6735 87.4973 41.3367 92.803 42.6631C98.2293 43.9895 103.294 45.738 107.997 47.9085C112.699 50.079 116.92 52.4304 120.658 54.9627L109.625 75.2208ZM207.891 170.904C198.486 170.904 189.924 169.096 182.207 165.478C174.61 161.861 168.038 156.977 162.491 150.827C157.065 144.557 152.845 137.563 149.83 129.845C146.815 122.007 145.308 113.989 145.308 105.789C145.308 97.2274 146.876 89.088 150.011 81.3706C153.267 73.5327 157.668 66.5991 163.215 60.5699C168.882 54.4201 175.514 49.5967 183.111 46.0997C190.829 42.4822 199.269 40.6735 208.434 40.6735C217.719 40.6735 226.16 42.5425 233.757 46.2806C241.474 50.0187 248.046 55.023 253.472 61.2934C258.898 67.5637 263.119 74.5576 266.133 82.275C269.148 89.9924 270.655 97.9509 270.655 106.151C270.655 114.592 269.088 122.731 265.952 130.569C262.817 138.286 258.416 145.22 252.749 151.37C247.202 157.399 240.57 162.162 232.852 165.659C225.255 169.156 216.935 170.904 207.891 170.904ZM170.631 105.789C170.631 111.336 171.475 116.702 173.163 121.887C174.851 127.072 177.263 131.715 180.398 135.814C183.654 139.794 187.573 142.989 192.155 145.401C196.858 147.692 202.163 148.837 208.072 148.837C214.101 148.837 219.467 147.632 224.17 145.22C228.873 142.688 232.792 139.372 235.927 135.272C239.062 131.051 241.414 126.409 242.981 121.344C244.669 116.159 245.513 110.974 245.513 105.789C245.513 100.242 244.609 94.9363 242.8 89.8718C241.112 84.6867 238.64 80.1045 235.384 76.1252C232.249 72.0253 228.33 68.8299 223.627 66.5388C219.045 64.1271 213.86 62.9212 208.072 62.9212C201.922 62.9212 196.496 64.1874 191.793 66.7196C187.211 69.1313 183.352 72.3871 180.217 76.487C177.082 80.5868 174.67 85.169 172.982 90.2336C171.414 95.2981 170.631 100.483 170.631 105.789ZM402.308 136.9C402.308 144.135 400.439 150.224 396.701 155.168C392.962 159.992 387.898 163.669 381.507 166.202C375.237 168.734 368.363 170 360.887 170H298.847V41.5778H367.579C373.609 41.5778 378.794 43.2057 383.135 46.4615C387.596 49.5967 390.973 53.6966 393.264 58.7611C395.676 63.705 396.881 68.8902 396.881 74.3164C396.881 80.4662 395.314 86.3146 392.179 91.8615C389.043 97.4083 384.461 101.508 378.432 104.161C385.788 106.332 391.576 110.251 395.796 115.918C400.137 121.585 402.308 128.579 402.308 136.9ZM377.166 132.197C377.166 128.941 376.503 126.047 375.176 123.515C373.85 120.862 372.041 118.812 369.75 117.365C367.579 115.797 365.047 115.014 362.153 115.014H323.807V148.837H360.887C363.902 148.837 366.615 148.114 369.027 146.667C371.559 145.099 373.548 143.049 374.995 140.517C376.442 137.985 377.166 135.211 377.166 132.197ZM323.807 62.9212V95.2981H357.089C359.862 95.2981 362.394 94.6349 364.685 93.3085C366.977 91.982 368.785 90.113 370.112 87.7013C371.559 85.2896 372.282 82.3956 372.282 79.0192C372.282 75.7635 371.619 72.9297 370.293 70.5181C369.087 68.1064 367.399 66.2373 365.228 64.9109C363.178 63.5845 360.827 62.9212 358.174 62.9212H323.807ZM430.83 170V41.5778H487.625C493.533 41.5778 498.96 42.7837 503.904 45.1954C508.968 47.6071 513.309 50.8628 516.927 54.9627C520.665 59.0625 523.499 63.6447 525.428 68.7093C527.478 73.7738 528.503 78.9589 528.503 84.2646C528.503 89.6909 527.538 94.9363 525.609 100.001C523.8 104.945 521.147 109.286 517.65 113.024C514.153 116.762 510.053 119.656 505.351 121.706L534.653 170H507.159L480.752 126.951H455.791V170H430.83ZM455.791 105.065H487.082C490.217 105.065 492.991 104.161 495.402 102.352C497.814 100.423 499.744 97.8907 501.191 94.7555C502.638 91.6203 503.361 88.1233 503.361 84.2646C503.361 80.1648 502.517 76.6075 500.829 73.5929C499.141 70.4578 496.97 67.9858 494.317 66.177C491.785 64.3683 489.012 63.4639 485.997 63.4639H455.791V105.065ZM649.335 148.114V170H560.163V41.5778H647.707V63.4639H585.124V94.3937H639.206V114.652H585.124V148.114H649.335Z"/>
</mask>
<path d="M109.625 75.2208L102.553 82.2919L112.01 91.7483L118.406 80.0039L109.625 75.2208ZM104.922 71.7842L99.3747 80.1047L99.4774 80.1732L99.5818 80.2391L104.922 71.7842ZM96.7823 67.624L92.8859 76.8337L92.9474 76.8597L93.0093 76.8849L96.7823 67.624ZM86.4724 64.1874L83.6842 73.7908L83.8283 73.8327L83.9736 73.8701L86.4724 64.1874ZM59.7027 66.3579L53.8376 58.2585L53.7697 58.3076L53.7027 58.3579L59.7027 66.3579ZM67.6612 90.5953L64.4989 100.082L64.4989 100.082L67.6612 90.5953ZM83.9401 95.2981L81.4305 104.978L81.5051 104.997L81.5801 105.016L83.9401 95.2981ZM105.826 102.895L101.425 111.874L101.529 111.926L101.636 111.974L105.826 102.895ZM120.115 114.471L111.827 120.066L111.908 120.186L111.992 120.303L120.115 114.471ZM121.381 151.008L130.235 155.656L130.259 155.612L130.282 155.567L121.381 151.008ZM95.697 169.457L97.9759 179.194L98.0736 179.171L98.1709 179.147L95.697 169.457ZM39.9871 163.85L36.048 173.042L36.1278 173.076L36.2082 173.109L39.9871 163.85ZM23.7083 154.806L14.8093 150.245L10.8532 157.962L17.9336 162.971L23.7083 154.806ZM34.7417 133.282L41.8128 126.211L32.1053 116.504L25.8428 128.72L34.7417 133.282ZM40.5298 137.623L35.0671 145.999L35.1974 146.084L35.3303 146.165L40.5298 137.623ZM50.6588 142.869L46.5208 151.972L46.6364 152.025L46.7533 152.074L50.6588 142.869ZM63.6819 147.21L61.1982 156.896L63.6819 147.21ZM93.3456 145.582L87.8654 137.217L93.3456 145.582ZM82.8548 121.163L79.6234 130.627L79.7275 130.662L79.8324 130.696L82.8548 121.163ZM65.3098 115.737L68.057 106.122L68.0476 106.119L68.0381 106.116L65.3098 115.737ZM45.0517 108.14L40.3458 116.964L40.4228 117.005L40.5006 117.045L45.0517 108.14ZM32.933 97.2877L24.4002 102.502L24.4002 102.502L32.933 97.2877ZM35.1035 58.942L26.9112 53.2073L26.8994 53.2242L26.8876 53.2412L35.1035 58.942ZM52.1059 45.3763L56.0073 54.5838L56.0731 54.5559L56.1384 54.5271L52.1059 45.3763ZM92.803 42.6631L90.3777 52.3645L90.4031 52.3709L90.4285 52.3771L92.803 42.6631ZM107.997 47.9085L112.187 38.8289L107.997 47.9085ZM120.658 54.9627L129.44 59.7457L133.781 51.7743L126.266 46.6835L120.658 54.9627ZM116.696 68.1497C114.997 66.4509 112.593 64.8019 110.262 63.3293L99.5818 80.2391C100.605 80.8851 101.369 81.4034 101.916 81.8025C102.507 82.2345 102.649 82.3873 102.553 82.2919L116.696 68.1497ZM110.469 63.4637C107.586 61.5416 104.233 59.8616 100.555 58.3631L93.0093 76.8849C95.8429 78.0394 97.9168 79.1327 99.3747 80.1047L110.469 63.4637ZM100.679 58.4143C97.0345 56.8726 93.1241 55.5763 88.9711 54.5046L83.9736 73.8701C87.2968 74.7278 90.2597 75.7226 92.8859 76.8337L100.679 58.4143ZM89.2605 54.5839C84.6244 53.238 79.8876 52.5595 75.0771 52.5595V72.5595C77.9841 72.5595 80.8441 72.9663 83.6842 73.7908L89.2605 54.5839ZM75.0771 52.5595C67.3241 52.5595 59.7591 53.9705 53.8376 58.2585L65.5678 74.4573C66.6401 73.6808 69.3248 72.5595 75.0771 72.5595V52.5595ZM53.7027 58.3579C47.5683 62.9587 44.6381 69.6124 44.6381 77.0296H64.6381C64.6381 75.2824 65.0843 74.8216 65.7027 74.3579L53.7027 58.3579ZM44.6381 77.0296C44.6381 82.7649 46.5123 88.3556 51.0277 92.62L64.7601 78.0798C64.7377 78.0586 64.7433 78.0602 64.758 78.0821C64.7728 78.104 64.7737 78.112 64.7645 78.0884C64.748 78.0462 64.6381 77.7445 64.6381 77.0296H44.6381ZM51.0277 92.62C54.6693 96.0594 59.4414 98.3963 64.4989 100.082L70.8235 81.1085C67.1989 79.9003 65.4595 78.7403 64.7601 78.0798L51.0277 92.62ZM64.4989 100.082C69.1295 101.626 74.7909 103.257 81.4305 104.978L86.4497 85.6181C80.0662 83.9631 74.875 82.459 70.8235 81.1085L64.4989 100.082ZM81.5801 105.016C89.4939 106.938 96.0728 109.251 101.425 111.874L110.228 93.9157C103.28 90.5099 95.268 87.7585 86.3001 85.5806L81.5801 105.016ZM101.636 111.974C106.56 114.247 109.77 117.018 111.827 120.066L128.404 108.876C123.949 102.277 117.633 97.3307 110.017 93.8153L101.636 111.974ZM111.992 120.303C113.783 122.798 115.18 126.809 115.18 133.282H135.18C135.18 124.079 133.2 115.55 128.239 108.639L111.992 120.303ZM115.18 133.282C115.18 138.94 114.139 143.212 112.481 146.449L130.282 155.567C133.688 148.916 135.18 141.371 135.18 133.282H115.18ZM112.527 146.36C110.754 149.738 108.368 152.401 105.292 154.479L116.489 171.051C122.336 167.1 126.945 161.925 130.235 155.656L112.527 146.36ZM105.292 154.479C101.863 156.796 97.8724 158.581 93.2232 159.768L98.1709 179.147C104.857 177.44 110.996 174.763 116.489 171.051L105.292 154.479ZM93.4182 159.72C88.5666 160.856 83.3073 161.447 77.6094 161.447V181.447C84.6935 181.447 91.4926 180.712 97.9759 179.194L93.4182 159.72ZM77.6094 161.447C71.9156 161.447 66.2054 160.857 60.4687 159.666L56.4044 179.249C63.4495 180.711 70.5213 181.447 77.6094 181.447V161.447ZM60.4687 159.666C54.6614 158.461 49.0972 156.768 43.7661 154.592L36.2082 173.109C42.6943 175.756 49.4297 177.801 56.4044 179.249L60.4687 159.666ZM43.9263 154.659C38.6245 152.387 33.8188 149.709 29.4829 146.642L17.9336 162.971C23.4856 166.898 29.5326 170.249 36.048 173.042L43.9263 154.659ZM32.6072 159.368L43.6407 137.844L25.8428 128.72L14.8093 150.245L32.6072 159.368ZM27.6707 140.353C29.5407 142.223 32.2205 144.143 35.0671 145.999L45.9925 129.247C43.2922 127.486 42.1133 126.512 41.8128 126.211L27.6707 140.353ZM35.3303 146.165C38.5398 148.119 42.2927 150.05 46.5208 151.972L54.7969 133.765C51.0664 132.069 48.0666 130.504 45.7292 129.081L35.3303 146.165ZM46.7533 152.074C51.246 153.98 56.0683 155.581 61.1982 156.896L66.1657 137.523C61.89 136.427 58.0302 135.133 54.5643 133.663L46.7533 152.074ZM61.1982 156.896C66.7071 158.309 72.3045 159.018 77.9712 159.018V139.018C73.9911 139.018 70.0623 138.522 66.1657 137.523L61.1982 156.896ZM77.9712 159.018C85.582 159.018 92.9811 157.776 98.8259 153.946L87.8654 137.217C86.7163 137.97 83.8658 139.018 77.9712 139.018V159.018ZM98.8259 153.946C105.176 149.786 108.591 143.368 108.591 135.814H88.5911C88.5911 136.178 88.5536 136.403 88.526 136.522C88.4996 136.634 88.4755 136.68 88.4698 136.69C88.4642 136.701 88.4435 136.739 88.3748 136.812C88.3021 136.888 88.1495 137.031 87.8654 137.217L98.8259 153.946ZM108.591 135.814C108.591 129.218 106.043 123.16 100.594 118.896L88.2678 134.646C88.3911 134.742 88.4404 134.801 88.4511 134.815C88.4603 134.826 88.4618 134.829 88.4661 134.838C88.4714 134.85 88.4997 134.914 88.5286 135.056C88.5582 135.203 88.5911 135.448 88.5911 135.814H108.591ZM100.594 118.896C96.5483 115.729 91.4709 113.405 85.8773 111.631L79.8324 130.696C84.1267 132.057 86.7666 133.471 88.2678 134.646L100.594 118.896ZM86.0863 111.7C80.9386 109.942 74.9211 108.083 68.057 106.122L62.5626 125.352C69.204 127.25 74.8831 129.008 79.6234 130.627L86.0863 111.7ZM68.0381 106.116C60.3709 103.942 54.2746 101.624 49.6028 99.236L40.5006 117.045C46.6813 120.204 54.0905 122.95 62.5816 125.358L68.0381 106.116ZM49.7576 99.3168C45.5771 97.0872 43.011 94.6018 41.4658 92.0732L24.4002 102.502C28.1606 108.656 33.6737 113.405 40.3458 116.964L49.7576 99.3168ZM41.4658 92.0732C40.0065 89.6853 38.9537 86.1879 38.9537 81.0089H18.9537C18.9537 88.8529 20.5538 96.2081 24.4002 102.502L41.4658 92.0732ZM38.9537 81.0089C38.9537 73.7816 40.6194 68.5339 43.3194 64.6428L26.8876 53.2412C21.3878 61.1673 18.9537 70.6309 18.9537 81.0089H38.9537ZM43.2958 64.6766C46.3852 60.2631 50.5303 56.9045 56.0073 54.5838L48.2044 36.1687C39.4525 39.8772 32.2626 45.5624 26.9112 53.2073L43.2958 64.6766ZM56.1384 54.5271C61.8415 52.0139 68.3446 50.6735 75.8006 50.6735V30.6735C65.8926 30.6735 56.5992 32.4682 48.0733 36.2254L56.1384 54.5271ZM75.8006 50.6735C81.0948 50.6735 85.9414 51.2555 90.3777 52.3645L95.2284 32.9617C89.0532 31.4179 82.5649 30.6735 75.8006 30.6735V50.6735ZM90.4285 52.3771C95.2788 53.5627 99.7304 55.107 103.806 56.9881L112.187 38.8289C106.857 36.369 101.18 34.4163 95.1776 32.9491L90.4285 52.3771ZM103.806 56.9881C108.086 58.9633 111.821 61.0551 115.049 63.2419L126.266 46.6835C122.018 43.8058 117.313 41.1948 112.187 38.8289L103.806 56.9881ZM111.876 50.1797L100.843 70.4378L118.406 80.0039L129.44 59.7457L111.876 50.1797ZM182.207 165.478L177.907 174.507L177.935 174.52L177.962 174.533L182.207 165.478ZM162.491 150.827L154.93 157.371L154.997 157.449L155.066 157.525L162.491 150.827ZM149.83 129.845L140.496 133.435L140.506 133.46L140.515 133.484L149.83 129.845ZM150.011 81.3706L140.776 77.5346L140.761 77.5706L140.746 77.6069L150.011 81.3706ZM163.215 60.5699L155.861 53.793L155.855 53.7993L163.215 60.5699ZM183.111 46.0997L187.293 55.1836L187.324 55.1691L187.355 55.1543L183.111 46.0997ZM233.757 46.2806L229.341 55.2532L229.369 55.2669L229.397 55.2804L233.757 46.2806ZM253.472 61.2934L245.91 67.8371L245.91 67.8371L253.472 61.2934ZM266.133 82.275L275.448 78.6365V78.6365L266.133 82.275ZM265.952 130.569L275.217 134.333L275.227 134.308L275.237 134.283L265.952 130.569ZM252.749 151.37L245.395 144.593L245.389 144.599L252.749 151.37ZM232.852 165.659L228.725 156.55L228.698 156.563L228.671 156.575L232.852 165.659ZM173.163 121.887L163.654 124.983L173.163 121.887ZM180.398 135.814L172.454 141.889L172.554 142.02L172.658 142.147L180.398 135.814ZM192.155 145.401L187.497 154.25L187.635 154.323L187.775 154.391L192.155 145.401ZM224.17 145.22L228.733 154.118L228.823 154.072L228.911 154.025L224.17 145.22ZM235.927 135.272L243.871 141.346L243.913 141.291L243.954 141.235L235.927 135.272ZM242.981 121.344L233.472 118.248L233.45 118.318L233.428 118.387L242.981 121.344ZM242.8 89.8718L233.292 92.9677L233.335 93.1021L233.383 93.2352L242.8 89.8718ZM235.384 76.1252L227.441 82.1997L227.541 82.3303L227.645 82.4576L235.384 76.1252ZM223.627 66.5388L218.97 75.388L219.108 75.4605L219.248 75.5287L223.627 66.5388ZM191.793 66.7196L196.451 75.5688L196.493 75.5468L196.534 75.5244L191.793 66.7196ZM180.217 76.487L172.274 70.4125L180.217 76.487ZM172.982 90.2336L163.495 87.0713L163.461 87.1737L163.429 87.2767L172.982 90.2336ZM207.891 160.904C199.799 160.904 192.708 159.356 186.451 156.424L177.962 174.533C187.14 178.835 197.172 180.904 207.891 180.904V160.904ZM186.506 156.449C180.075 153.387 174.57 149.289 169.917 144.129L155.066 157.525C161.506 164.665 169.145 170.334 177.907 174.507L186.506 156.449ZM170.053 144.283C165.372 138.874 161.744 132.862 159.144 126.207L140.515 133.484C143.945 142.263 148.758 150.24 154.93 157.371L170.053 144.283ZM159.163 126.256C156.579 119.535 155.308 112.731 155.308 105.789H135.308C135.308 115.246 137.052 124.48 140.496 133.435L159.163 126.256ZM155.308 105.789C155.308 98.4811 156.639 91.6229 159.275 85.1344L140.746 77.6069C137.112 86.5531 135.308 95.9738 135.308 105.789H155.308ZM159.246 85.2067C162.069 78.4097 165.848 72.4779 170.574 67.3404L155.855 53.7993C149.488 60.7203 144.464 68.6556 140.776 77.5346L159.246 85.2067ZM170.568 67.3467C175.341 62.1677 180.895 58.1284 187.293 55.1836L178.93 37.0159C170.134 41.0649 162.423 46.6724 155.861 53.793L170.568 67.3467ZM187.355 55.1543C193.646 52.2054 200.624 50.6735 208.434 50.6735V30.6735C197.915 30.6735 188.011 32.759 178.867 37.0452L187.355 55.1543ZM208.434 50.6735C216.338 50.6735 223.247 52.2543 229.341 55.2532L238.172 37.3081C229.072 32.8307 219.1 30.6735 208.434 30.6735V50.6735ZM229.397 55.2804C235.934 58.4467 241.404 62.6298 245.91 67.8371L261.034 54.7496C254.687 47.4161 247.014 41.5908 238.116 37.2808L229.397 55.2804ZM245.91 67.8371C250.592 73.2468 254.219 79.2582 256.819 85.9135L275.448 78.6365C272.018 69.857 267.205 61.8807 261.034 54.7496L245.91 67.8371ZM256.819 85.9135C259.385 92.4837 260.655 99.2091 260.655 106.151H280.655C280.655 96.6928 278.911 87.5011 275.448 78.6365L256.819 85.9135ZM260.655 106.151C260.655 113.319 259.33 120.198 256.668 126.855L275.237 134.283C278.845 125.264 280.655 115.864 280.655 106.151H260.655ZM256.688 126.805C254.006 133.407 250.253 139.321 245.395 144.593L260.102 158.147C266.579 151.119 271.629 143.165 275.217 134.333L256.688 126.805ZM245.389 144.599C240.783 149.606 235.262 153.588 228.725 156.55L236.979 174.768C245.877 170.736 253.62 165.192 260.108 158.14L245.389 144.599ZM228.671 156.575C222.489 159.421 215.611 160.904 207.891 160.904V180.904C218.259 180.904 228.021 178.891 237.034 174.743L228.671 156.575ZM160.631 105.789C160.631 112.369 161.635 118.781 163.654 124.983L182.672 118.791C181.315 114.623 180.631 110.303 180.631 105.789H160.631ZM163.654 124.983C165.672 131.181 168.595 136.842 172.454 141.889L188.342 129.74C185.931 126.587 184.03 122.963 182.672 118.791L163.654 124.983ZM172.658 142.147C176.769 147.171 181.738 151.219 187.497 154.25L196.812 136.552C193.407 134.759 190.539 132.417 188.138 129.482L172.658 142.147ZM187.775 154.391C194.01 157.428 200.844 158.837 208.072 158.837V138.837C203.483 138.837 199.706 137.956 196.535 136.411L187.775 154.391ZM208.072 158.837C215.463 158.837 222.431 157.35 228.733 154.118L219.607 136.322C216.504 137.913 212.739 138.837 208.072 138.837V158.837ZM228.911 154.025C234.818 150.844 239.843 146.613 243.871 141.346L227.983 129.197C225.74 132.131 222.927 134.532 219.429 136.415L228.911 154.025ZM243.954 141.235C247.77 136.098 250.635 130.438 252.534 124.301L233.428 118.387C232.193 122.38 230.354 126.004 227.9 129.309L243.954 141.235ZM252.49 124.44C254.487 118.307 255.513 112.079 255.513 105.789H235.513C235.513 109.869 234.852 114.011 233.472 118.248L252.49 124.44ZM255.513 105.789C255.513 99.1324 254.424 92.6863 252.218 86.5084L233.383 93.2352C234.794 97.1864 235.513 101.352 235.513 105.789H255.513ZM252.309 86.7759C250.26 80.4838 247.212 74.789 243.124 69.7928L227.645 82.4576C230.069 85.42 231.964 88.8895 233.292 92.9677L252.309 86.7759ZM243.328 70.0507C239.235 64.6978 234.089 60.5117 228.007 57.5489L219.248 75.5287C222.572 77.148 225.264 79.3529 227.441 82.1997L243.328 70.0507ZM228.285 57.6896C222.104 54.4366 215.289 52.9212 208.072 52.9212V72.9212C212.431 72.9212 215.986 73.8176 218.97 75.388L228.285 57.6896ZM208.072 52.9212C200.52 52.9212 193.419 54.4865 187.052 57.9149L196.534 75.5244C199.573 73.8882 203.325 72.9212 208.072 72.9212V52.9212ZM187.136 57.8705C181.274 60.9555 176.293 65.1564 172.274 70.4125L188.161 82.5615C190.412 79.6178 193.148 77.3072 196.451 75.5688L187.136 57.8705ZM172.274 70.4125C168.443 75.4211 165.521 80.9938 163.495 87.0713L182.469 93.3958C183.819 89.3442 185.72 85.7526 188.161 82.5615L172.274 70.4125ZM163.429 87.2767C161.565 93.2996 160.631 99.4816 160.631 105.789H180.631C180.631 101.485 181.264 97.2966 182.535 93.1904L163.429 87.2767ZM396.701 155.168L404.605 161.294L404.641 161.247L404.677 161.199L396.701 155.168ZM381.507 166.202L377.823 156.905L377.793 156.917L377.762 156.929L381.507 166.202ZM298.847 170H288.847V180H298.847V170ZM298.847 41.5778V31.5778H288.847V41.5778H298.847ZM383.135 46.4615L377.135 54.4615L377.259 54.5544L377.385 54.6434L383.135 46.4615ZM393.264 58.7611L384.153 62.8828L384.213 63.0149L384.276 63.1453L393.264 58.7611ZM378.432 104.161L374.405 95.0079L349.386 106.016L375.602 113.752L378.432 104.161ZM395.796 115.918L387.776 121.891L387.816 121.945L387.857 121.999L395.796 115.918ZM375.176 123.515L366.232 127.987L366.274 128.071L366.318 128.155L375.176 123.515ZM369.75 117.365L363.895 125.472L364.147 125.654L364.41 125.82L369.75 117.365ZM323.807 115.014V105.014H313.807V115.014H323.807ZM323.807 148.837H313.807V158.837H323.807V148.837ZM369.027 146.667L374.171 155.242L374.231 155.206L374.29 155.17L369.027 146.667ZM374.995 140.517L383.678 145.479V145.479L374.995 140.517ZM323.807 62.9212V52.9212H313.807V62.9212H323.807ZM323.807 95.2981H313.807V105.298H323.807V95.2981ZM370.112 87.7013L361.537 82.5563L361.44 82.7175L361.35 82.8821L370.112 87.7013ZM370.293 70.5181L361.348 74.9902L361.436 75.1655L361.53 75.3372L370.293 70.5181ZM365.228 64.9109L359.796 73.3066L359.904 73.3765L360.014 73.4437L365.228 64.9109ZM392.308 136.9C392.308 142.336 390.938 146.209 388.724 149.137L404.677 161.199C409.939 154.24 412.308 145.934 412.308 136.9H392.308ZM388.796 149.042C386.289 152.277 382.764 154.947 377.823 156.905L385.191 175.498C393.032 172.392 399.635 167.706 404.605 161.294L388.796 149.042ZM377.762 156.929C372.802 158.933 367.216 160 360.887 160V180C369.511 180 377.672 178.535 385.252 175.474L377.762 156.929ZM360.887 160H298.847V180H360.887V160ZM308.847 170V41.5778H288.847V170H308.847ZM298.847 51.5778H367.579V31.5778H298.847V51.5778ZM367.579 51.5778C371.698 51.5778 374.717 52.648 377.135 54.4615L389.135 38.4615C382.871 33.7635 375.519 31.5778 367.579 31.5778V51.5778ZM377.385 54.6434C380.354 56.7295 382.584 59.4148 384.153 62.8828L402.375 54.6394C399.362 47.9783 394.839 42.4639 388.884 38.2796L377.385 54.6434ZM384.276 63.1453C386.031 66.7432 386.881 70.431 386.881 74.3164H406.881C406.881 67.3493 405.32 60.6669 402.252 54.3769L384.276 63.1453ZM386.881 74.3164C386.881 78.6782 385.792 82.8387 383.473 86.9409L400.884 96.782C404.836 89.7904 406.881 82.2543 406.881 74.3164H386.881ZM383.473 86.9409C381.438 90.542 378.53 93.1926 374.405 95.0079L382.459 113.314C390.392 109.824 396.649 104.275 400.884 96.782L383.473 86.9409ZM375.602 113.752C381.069 115.365 384.96 118.11 387.776 121.891L403.817 109.945C398.191 102.391 390.506 97.2976 381.262 94.5699L375.602 113.752ZM387.857 121.999C390.648 125.643 392.308 130.399 392.308 136.9H412.308C412.308 126.759 409.626 117.528 403.735 109.837L387.857 121.999ZM387.166 132.197C387.166 127.551 386.209 123.027 384.035 118.875L366.318 128.155C366.796 129.067 367.166 130.331 367.166 132.197H387.166ZM384.121 119.043C382.058 114.918 379.067 111.422 375.09 108.91L364.41 125.82C365.015 126.202 365.642 126.806 366.232 127.987L384.121 119.043ZM375.605 109.258C371.59 106.359 366.97 105.014 362.153 105.014V125.014C363.125 125.014 363.569 125.236 363.895 125.472L375.605 109.258ZM362.153 105.014H323.807V125.014H362.153V105.014ZM313.807 115.014V148.837H333.807V115.014H313.807ZM323.807 158.837H360.887V138.837H323.807V158.837ZM360.887 158.837C365.579 158.837 370.094 157.689 374.171 155.242L363.882 138.092C363.136 138.539 362.224 138.837 360.887 138.837V158.837ZM374.29 155.17C378.208 152.744 381.386 149.489 383.678 145.479L366.313 135.556C365.711 136.61 364.91 137.454 363.763 138.164L374.29 155.17ZM383.678 145.479C386.018 141.383 387.166 136.891 387.166 132.197H367.166C367.166 133.532 366.867 134.587 366.313 135.556L383.678 145.479ZM313.807 62.9212V95.2981H333.807V62.9212H313.807ZM323.807 105.298H357.089V85.2981H323.807V105.298ZM357.089 105.298C361.534 105.298 365.808 104.213 369.696 101.963L359.675 84.6542C358.98 85.0564 358.19 85.2981 357.089 85.2981V105.298ZM369.696 101.963C373.628 99.6863 376.706 96.4621 378.874 92.5205L361.35 82.8821C360.865 83.7639 360.325 84.2777 359.675 84.6542L369.696 101.963ZM378.687 92.8463C381.238 88.5947 382.282 83.8431 382.282 79.0192H362.282C362.282 80.9481 361.88 81.9845 361.537 82.5563L378.687 92.8463ZM382.282 79.0192C382.282 74.387 381.33 69.8356 379.055 65.6989L361.53 75.3372C361.908 76.0238 362.282 77.1399 362.282 79.0192H382.282ZM379.237 66.0459C377.245 62.063 374.31 58.7413 370.443 56.3781L360.014 73.4437C360.487 73.7333 360.928 74.1497 361.348 74.9902L379.237 66.0459ZM370.661 56.5152C366.852 54.051 362.581 52.9212 358.174 52.9212V72.9212C359.073 72.9212 359.504 73.1179 359.796 73.3066L370.661 56.5152ZM358.174 52.9212H323.807V72.9212H358.174V52.9212ZM430.83 170H420.83V180H430.83V170ZM430.83 41.5778V31.5778H420.83V41.5778H430.83ZM503.904 45.1954L499.519 54.1831L499.562 54.2037L499.604 54.224L503.904 45.1954ZM516.927 54.9627L509.428 61.5789L509.482 61.64L509.537 61.7002L516.927 54.9627ZM525.428 68.7093L516.083 72.2692L516.12 72.3656L516.158 72.4612L525.428 68.7093ZM525.609 100.001L516.264 96.4409L516.24 96.5028L516.218 96.5651L525.609 100.001ZM517.65 113.024L510.348 106.192V106.192L517.65 113.024ZM505.351 121.706L501.355 112.539L490.866 117.111L496.801 126.893L505.351 121.706ZM534.653 170V180H552.417L543.202 164.813L534.653 170ZM507.159 170L498.635 175.229L501.562 180H507.159V170ZM480.752 126.951L489.275 121.722L486.349 116.951H480.752V126.951ZM455.791 126.951V116.951H445.791V126.951H455.791ZM455.791 170V180H465.791V170H455.791ZM455.791 105.065H445.791V115.065H455.791V105.065ZM495.402 102.352L501.402 110.352L501.527 110.259L501.649 110.161L495.402 102.352ZM501.191 94.7555L510.27 98.9461L501.191 94.7555ZM500.829 73.5929L492.024 78.3339L492.063 78.4068L492.104 78.479L500.829 73.5929ZM494.317 66.177L488.505 74.3143L488.594 74.3778L488.684 74.4393L494.317 66.177ZM455.791 63.4639V53.4639H445.791V63.4639H455.791ZM440.83 170V41.5778H420.83V170H440.83ZM430.83 51.5778H487.625V31.5778H430.83V51.5778ZM487.625 51.5778C492.129 51.5778 496.041 52.4861 499.519 54.1831L508.288 36.2077C501.879 33.0813 494.938 31.5778 487.625 31.5778V51.5778ZM499.604 54.224C503.483 56.071 506.727 58.5173 509.428 61.5789L524.425 48.3465C519.892 43.2084 514.453 39.1431 508.203 36.1668L499.604 54.224ZM509.537 61.7002C512.45 64.8954 514.611 68.4053 516.083 72.2692L534.773 65.1493C532.386 58.8842 528.879 53.2297 524.316 48.2251L509.537 61.7002ZM516.158 72.4612C517.741 76.3699 518.503 80.2834 518.503 84.2646H538.503C538.503 77.6344 537.215 71.1777 534.697 64.9574L516.158 72.4612ZM518.503 84.2646C518.503 88.4759 517.76 92.5148 516.264 96.4409L534.954 103.561C537.317 97.3579 538.503 90.906 538.503 84.2646H518.503ZM516.218 96.5651C514.857 100.285 512.901 103.463 510.348 106.192L524.953 119.856C529.393 115.109 532.744 109.605 535 103.437L516.218 96.5651ZM510.348 106.192C507.784 108.932 504.81 111.033 501.355 112.539L509.347 130.873C515.296 128.279 520.522 124.592 524.953 119.856L510.348 106.192ZM496.801 126.893L526.103 175.187L543.202 164.813L513.9 116.519L496.801 126.893ZM534.653 160H507.159V180H534.653V160ZM515.683 164.771L489.275 121.722L472.228 132.18L498.635 175.229L515.683 164.771ZM480.752 116.951H455.791V136.951H480.752V116.951ZM445.791 126.951V170H465.791V126.951H445.791ZM455.791 160H430.83V180H455.791V160ZM455.791 115.065H487.082V95.0654H455.791V115.065ZM487.082 115.065C492.288 115.065 497.187 113.514 501.402 110.352L489.402 94.3523C488.795 94.8082 488.146 95.0654 487.082 95.0654V115.065ZM501.649 110.161C505.41 107.152 508.25 103.323 510.27 98.9461L492.111 90.5649C491.237 92.4587 490.218 93.6935 489.156 94.5436L501.649 110.161ZM510.27 98.9461C512.391 94.3502 513.361 89.3994 513.361 84.2646H493.361C493.361 86.8473 492.884 88.8904 492.111 90.5649L510.27 98.9461ZM513.361 84.2646C513.361 78.7737 512.221 73.4706 509.554 68.7069L492.104 78.479C492.812 79.7445 493.361 81.5558 493.361 84.2646H513.361ZM509.633 68.8519C507.27 64.4621 504.067 60.7211 499.951 57.9147L488.684 74.4393C489.874 75.2504 491.011 76.4534 492.024 78.3339L509.633 68.8519ZM500.13 58.0397C495.96 55.0612 491.166 53.4639 485.997 53.4639V73.4639C486.857 73.4639 487.61 73.6753 488.505 74.3143L500.13 58.0397ZM485.997 53.4639H455.791V73.4639H485.997V53.4639ZM445.791 63.4639V105.065H465.791V63.4639H445.791ZM649.335 148.114H659.335V138.114H649.335V148.114ZM649.335 170V180H659.335V170H649.335ZM560.163 170H550.163V180H560.163V170ZM560.163 41.5778V31.5778H550.163V41.5778H560.163ZM647.707 41.5778H657.707V31.5778H647.707V41.5778ZM647.707 63.4639V73.4639H657.707V63.4639H647.707ZM585.124 63.4639V53.4639H575.124V63.4639H585.124ZM585.124 94.3937H575.124V104.394H585.124V94.3937ZM639.206 94.3937H649.206V84.3937H639.206V94.3937ZM639.206 114.652V124.652H649.206V114.652H639.206ZM585.124 114.652V104.652H575.124V114.652H585.124ZM585.124 148.114H575.124V158.114H585.124V148.114ZM639.335 148.114V170H659.335V148.114H639.335ZM649.335 160H560.163V180H649.335V160ZM570.163 170V41.5778H550.163V170H570.163ZM560.163 51.5778H647.707V31.5778H560.163V51.5778ZM637.707 41.5778V63.4639H657.707V41.5778H637.707ZM647.707 53.4639H585.124V73.4639H647.707V53.4639ZM575.124 63.4639V94.3937H595.124V63.4639H575.124ZM585.124 104.394H639.206V84.3937H585.124V104.394ZM629.206 94.3937V114.652H649.206V94.3937H629.206ZM639.206 104.652H585.124V124.652H639.206V104.652ZM575.124 114.652V148.114H595.124V114.652H575.124ZM585.124 158.114H649.335V138.114H585.124V158.114Z" fill="#D7FF01" mask="url(#path-1-outside-1_366_7)"/>
<path d="M234.893 382V314.352L213.369 361.923H194.558L173.033 314.352V382H137.762V253.578H176.289L203.963 313.991L231.818 253.578H270.164V382H234.893ZM281.291 382V253.578H316.561V382H281.291ZM424.976 382V314.352L403.451 361.923H384.64L363.116 314.352V382H327.845V253.578H366.372L394.046 313.991L421.901 253.578H460.246V382H424.976Z" fill="#990DCE"/>
</g>
<defs>
<clipPath id="clip0_366_7">
<rect width="494" height="424" fill="white"/>
</clipPath>
</defs>
</svg>
