<svg width="27" height="35" viewBox="0 0 27 35" fill="none" xmlns="http://www.w3.org/2000/svg">
<path d="M13.0335 18.258C12.1456 16.8523 11.5015 15.6869 10.6092 13.4923C9.1003 9.78553 19.786 6.43604 15.4533 0C17.3314 4.44591 8.71241 7.19435 7.91172 10.8968C7.17953 14.3022 13.029 18.258 13.0335 18.258Z" fill="#F44336"/>
<path d="M13.2363 11.5939C13.0655 13.792 15.2194 14.9635 15.2816 16.5693C15.3315 17.8762 13.9943 18.9656 13.9943 18.9656C13.9943 18.9656 16.4213 18.4974 17.1784 16.5038C18.0191 14.29 15.5468 12.7742 15.8012 11.0016C16.0387 9.30853 21.1667 6.15909 21.1667 6.15909C21.1667 6.15909 13.6215 6.65008 13.2363 11.5939Z" fill="#F44336"/>
<path d="M20.5368 18.3952C22.0973 18.051 23.4131 19.0268 23.4131 20.1512C23.4131 22.6856 19.8358 25.0811 19.8358 25.0811C19.8358 25.0811 25.3739 24.4328 25.3739 20.2717C25.3739 17.5198 22.6542 16.8322 20.5368 18.3952ZM17.9079 20.4395C17.9079 20.4395 19.6347 19.2312 20.0947 18.7778C15.8572 19.6611 6.18223 19.7799 6.18223 19.0128C6.18223 18.3061 9.30225 17.5818 9.30225 17.5818C9.30225 17.5818 2.38695 17.484 2.38695 19.4872C2.38695 21.5752 11.4392 21.7246 17.9079 20.4395Z" fill="#1565C0"/>
<path d="M16.8457 22.3405C12.8342 23.65 5.44559 23.2316 7.63415 21.473C6.56834 21.473 4.98831 22.3143 4.98831 23.1232C4.98831 24.7456 12.9792 25.9984 18.8936 23.623L16.8457 22.3405Z" fill="#1565C0"/>
<path d="M8.61722 25.1081C7.16174 25.1081 6.21959 26.0289 6.21959 26.6999C6.21959 28.7887 14.9026 28.9993 18.3429 26.879L16.1562 25.4532C13.586 26.5627 7.12971 26.7156 8.61722 25.1081Z" fill="#1565C0"/>
<path d="M24.2707 28.5092C24.2707 27.6915 23.3321 27.3062 22.9959 27.1219C24.978 31.8159 3.14138 31.4516 3.14138 28.6804C3.14138 28.0505 4.74899 27.4337 6.23472 27.7255L4.9714 26.9926C2.01062 26.5365 0 27.8146 0 28.8455C0 33.6531 24.2707 33.4216 24.2707 28.5092Z" fill="#1565C0"/>
<path d="M26.6897 30.232C23.0012 33.8095 13.6482 35.113 4.24277 32.9027C13.6482 36.8366 26.6452 34.6211 26.6897 30.232Z" fill="#1565C0"/>
</svg>
