<svg width="35" height="35" viewBox="0 0 35 35" fill="none" xmlns="http://www.w3.org/2000/svg">
<path d="M3.34358 0C1.91672 0 0.789196 0.763252 0.255307 2.08485C0.0867934 2.49308 0.00157686 2.92601 1.96616e-06 3.37236C-0.00157293 4.85121 0.943339 6.05156 1.5103 6.76954C1.60952 6.89503 1.6988 7.00682 1.79329 7.14184L2.04859 7.48311C2.30215 7.81827 2.5909 8.19841 2.68224 8.38902C2.71217 8.47639 2.75174 8.62958 2.80528 8.82337C3.05254 9.72084 3.51401 11.3888 4.24791 12.658C4.54399 13.1695 4.96067 13.8124 5.2599 14.2651C5.05989 15.2753 4.72161 17.1362 4.72161 18.2672C4.72161 20.2528 5.12985 21.8474 6.01967 23.3056C6.34882 23.8266 7.35326 25.4153 9.05257 25.4153C9.65575 25.4153 10.658 25.1776 10.9289 23.6686C12.1337 25.2364 14.171 27.2023 17.3208 28.5922C17.3208 28.5922 11.4162 21.6434 10.3783 17.3117C10.3783 17.3117 9.24884 18.4664 8.28973 20.8236C8.0031 20.0961 7.8714 19.2759 7.8714 18.2672C7.8714 17.2713 8.30577 15.0448 8.47429 14.2713L8.62193 13.598L8.23436 13.0303C8.22806 13.0192 7.43473 11.864 6.97014 11.0602C6.44097 10.1453 6.05072 8.72947 5.84126 7.97019C5.73889 7.60008 5.65847 7.33223 5.58288 7.15115C5.30727 6.54912 4.90371 6.02039 4.54935 5.55338L4.35249 5.28968C4.25327 5.14513 4.12219 4.97762 3.97415 4.79018C3.68594 4.42484 3.14942 3.74404 3.16517 3.30721L3.3405 3.18311L3.34358 3.17691C4.59562 3.17691 6.20843 4.07334 6.81634 4.41168C7.01478 4.52129 7.16058 4.59701 7.23775 4.63196L7.51151 4.75295L8.0498 4.77157C8.75378 4.78745 10.8935 4.83794 12.4054 5.4479C15.163 6.55982 16.6877 7.67283 18.2374 9.70446C21.8975 14.5048 23.2478 20.7214 23.2604 20.7833L23.4573 21.6799L24.3186 21.9622C24.3485 21.9734 26.759 22.7858 29.0064 24.9096C26.1794 25.6148 25.1952 27.0037 25.1952 27.0037C25.1952 27.0037 25.9449 28.4778 29.5262 30.7763C31.6917 32.1662 32.8728 33.159 34.6446 34.946C34.6446 34.946 32.8739 30.9746 30.3998 27.8104C32.2833 27.202 34.5985 26.8858 34.5985 26.8858L33.1651 24.8816C30.8059 21.5824 27.6421 19.9174 26.1365 19.2693C25.6136 17.2583 24.0345 12.0955 20.7351 7.76853C18.8468 5.29213 16.8374 3.8112 13.5742 2.49437C11.6418 1.71603 9.31828 1.62318 8.28358 1.59776C7.37801 1.09581 5.36574 0 3.34358 0ZM9.74158 6.35382C9.74158 6.35382 9.05257 6.35382 8.26512 6.55237L10.4306 9.52762C11.0212 8.73657 11.0212 7.81197 11.0212 7.81197C11.0212 7.81197 10.6282 6.75093 9.74158 6.35382Z" fill="url(#paint0_linear_571_8)"/>
<defs>
<linearGradient id="paint0_linear_571_8" x1="-1.57797" y1="-4.25706" x2="45.5409" y2="47.188" gradientUnits="userSpaceOnUse">
<stop stop-color="#037E82"/>
<stop offset="1" stop-color="#011B1C"/>
</linearGradient>
</defs>
</svg>
