<svg width="35" height="21" viewBox="0 0 35 21" fill="none" xmlns="http://www.w3.org/2000/svg">
<path d="M17.475 0C12.815 0 9.9025 2.32927 8.7375 6.98782C10.485 4.65854 12.5237 3.78552 14.8537 4.36729C16.1833 4.69932 17.1335 5.66409 18.1856 6.73152C19.8982 8.46955 21.8809 10.4821 26.2125 10.4821C30.8725 10.4821 33.785 8.15282 34.95 3.49354C33.2025 5.82282 31.1637 6.69657 28.8337 6.11479C27.5049 5.78277 26.5547 4.818 25.5026 3.75057C23.7893 2.01181 21.8059 0 17.475 0ZM8.7375 10.4821C4.0775 10.4821 1.165 12.8114 0 17.4706C1.7475 15.1414 3.78625 14.2676 6.11625 14.8501C7.44508 15.1829 8.39528 16.1469 9.44742 17.2136C11.1607 18.9524 13.1441 20.9649 17.475 20.9649C22.135 20.9649 25.0475 18.6356 26.2125 13.9764C24.465 16.3056 22.4262 17.1794 20.0963 16.5969C18.7667 16.2649 17.8165 15.3001 16.7643 14.2334C15.0518 12.4946 13.0691 10.4821 8.7375 10.4821Z" fill="#00ACC1"/>
</svg>
