<svg width="36" height="36" viewBox="0 0 36 36" fill="none" xmlns="http://www.w3.org/2000/svg">
<path d="M35.5671 26.6755V8.89239L17.7836 0L0 8.89239V26.6755L17.7836 35.5671L35.5671 26.6755Z" fill="#43A047"/>
<path d="M25.7394 8.618C24.4468 8.618 23.3994 9.53182 23.3994 10.6596V19.868L13.0887 9.80458L12.9661 9.68045C11.8017 8.56737 10.4708 8.618 9.82775 8.618C8.53517 8.618 7.48781 9.53182 7.48781 10.6596V24.5425C7.48781 25.6703 8.53517 26.5841 9.82775 26.5841C11.1203 26.5841 12.1677 25.6703 12.1677 24.5425V15.2663L22.7236 25.578L22.8266 25.6939C23.9797 26.6927 25.5475 26.5841 25.7394 26.5841C27.0319 26.5841 28.0793 25.6703 28.0793 24.5425V10.6596C28.0793 9.53182 27.0319 8.618 25.7394 8.618Z" fill="white"/>
</svg>
