<svg width="34" height="78" viewBox="0 0 34 78" fill="none" xmlns="http://www.w3.org/2000/svg">
<path d="M8.9978 38.7748V0.884521H26.262V38.7748H8.9978Z" fill="#990DCE"/>
<path d="M14.3268 56.6792C13.9667 53.652 13.6297 50.6248 13.3158 47.5976C13.1496 46.0356 13.5722 44.5842 15.518 45.1647C15.8059 45.2512 16.0621 45.4189 16.2553 45.6473C16.4484 45.8756 16.5699 46.1547 16.605 46.4503L17.7824 56.147C17.8239 56.4604 17.9484 56.4995 18.1562 56.2645C19.6842 54.5274 21.1708 52.7812 22.6158 51.0256C23.6314 49.7908 24.6608 49.7125 25.7042 50.7907C25.9302 51.0259 26.0626 51.3353 26.0766 51.661C26.0906 51.9866 25.9852 52.3062 25.7802 52.56L21.1061 58.3587C21.076 58.394 21.0576 58.4374 21.0528 58.4834C21.0481 58.5294 21.0574 58.5759 21.0795 58.6172C21.1017 58.6585 21.1357 58.6927 21.1774 58.7155C21.2191 58.7384 21.2665 58.7489 21.3139 58.7457C24.5777 58.4831 27.8738 58.1398 31.2023 57.7159C33.1551 57.4671 33.7299 59.8032 32.4626 60.909C32.3951 60.9674 32.3128 61.0036 32.2271 61.0127L21.5424 62.2637C21.5021 62.2673 21.4642 62.2832 21.4336 62.3092C21.4029 62.3353 21.3809 62.3703 21.3705 62.4097C21.36 62.4492 21.3615 62.4913 21.3749 62.5306C21.3883 62.5698 21.4128 62.6045 21.4454 62.63C23.2643 63.9662 25.1108 65.3254 26.9851 66.7077C29.1595 68.3112 27.1445 71.4766 24.8594 69.6451C23.0128 68.1614 21.1085 66.7538 19.1465 65.4222C18.8926 65.2471 18.7795 65.3139 18.8072 65.6226C19.1119 68.7881 19.5135 71.8959 20.0121 74.9462C20.3653 77.1233 16.9514 78.1531 16.5498 75.2434C16.1389 72.2069 15.7579 69.1521 15.4071 66.0788C15.4005 66.0224 15.3774 65.9691 15.3408 65.9256C15.3042 65.8822 15.2557 65.8504 15.2012 65.8342C15.1466 65.818 15.0884 65.8181 15.034 65.8346C14.9795 65.851 14.9311 65.8831 14.8947 65.9267C13.3943 67.6776 11.8733 69.4539 10.3314 71.2555C9.45891 72.2784 8.52405 72.3406 7.52689 71.4421C7.24791 71.1905 7.07632 70.8418 7.04795 70.4685C7.01958 70.0952 7.13662 69.726 7.37457 69.4377L11.8132 64.0468C12.2703 63.4893 12.141 63.2497 11.4254 63.328L1.36383 64.4062C1.22129 64.4208 1.07756 64.3972 0.947272 64.3376C0.81699 64.2781 0.705028 64.1848 0.623016 64.0676C0.0274945 63.2105 -0.0211202 62.3074 0.477456 61.3583C0.524573 61.2666 0.594109 61.1878 0.67982 61.1288C0.765532 61.0698 0.864947 61.0323 0.96925 61.0196L11.2454 59.8516C11.3028 59.8434 11.3565 59.8187 11.4 59.7805C11.4436 59.7423 11.4751 59.6923 11.4905 59.6365C11.5059 59.5807 11.5048 59.5216 11.4871 59.4665C11.4694 59.4114 11.4358 59.3627 11.3907 59.3263C9.90194 58.1652 3.61434 54.5781 5.85101 52.249C6.10368 51.9834 6.44609 51.8208 6.81194 51.7927C7.1778 51.7647 7.54115 51.873 7.83154 52.0969L14.0222 56.852C14.2622 57.0363 14.3637 56.9787 14.3268 56.6792Z" fill="#990DCE"/>
</svg>
