<svg width="47" height="495" viewBox="0 0 47 495" fill="none" xmlns="http://www.w3.org/2000/svg">
<path d="M6.65625 6.98905L40.5613 6.98905V0.845186L46.2175 0.845186V18.3341C46.2175 23.1668 45.9683 26.8835 45.4699 29.484C44.9714 32.1063 43.8445 34.6418 42.0891 37.0907C40.3337 39.5396 37.9174 41.49 34.84 42.942C31.7843 44.4157 28.2952 45.1525 24.3727 45.1525C19.9084 45.1525 16.0292 44.4482 12.7351 43.0395C9.44104 41.6309 6.98132 39.778 5.35596 37.4808C3.7306 35.2053 2.59285 32.4855 1.94271 29.3215C1.31423 26.1791 0.999997 22.1699 0.999998 17.2938L0.999998 0.845184L6.65625 0.845185V6.98905ZM6.65625 13.8156V17.3914C6.65625 21.3789 6.90547 24.5321 7.40392 26.851C7.90236 29.1915 8.74755 31.1636 9.93948 32.7673C11.1531 34.371 12.9735 35.6712 15.4007 36.6681C17.8279 37.665 20.6885 38.1635 23.9826 38.1635C27.9051 38.1635 31.2317 37.3399 33.9623 35.6929C36.6929 34.0676 38.47 31.9763 39.2935 29.419C40.1387 26.8835 40.5613 22.9718 40.5613 17.6839V13.8156L6.65625 13.8156Z" fill="#D7FF01"/>
<path d="M6.65625 56.2375H40.5613V50.3862H46.2175V87.9645H32.597V82.3733H40.5613V63.064H27.1033L27.1033 79.8702H21.447V63.064H6.65625L6.65625 82.3733H14.8806L14.8806 87.9645H0.999995L0.999996 50.3862H6.65625L6.65625 56.2375Z" fill="#D7FF01"/>
<path d="M0.544893 110.817L40.5613 95.6362V90.045H46.2175V107.891H40.5613V102.658L10.1995 114.165L40.5613 125.38V120.114H46.2175V137.473H40.5613V131.979L0.544892 117.091L0.544893 110.817Z" fill="#D7FF01"/>
<path d="M6.65625 161.008H40.5613V155.449H46.2175V170.5C46.2175 174.64 45.9683 177.739 45.4699 179.797C44.9714 181.878 43.7036 183.709 41.6665 185.291C39.6511 186.873 37.278 187.664 34.5474 187.664C32.4453 187.664 30.549 187.187 28.8587 186.234C27.1683 185.302 25.8897 183.926 25.0228 182.105C24.156 184.619 22.7148 186.548 20.6994 187.892C18.7056 189.257 16.4192 189.94 13.8403 189.94C11.6082 189.94 9.58189 189.43 7.76149 188.412C5.94109 187.415 4.53244 186.082 3.53555 184.413C2.53866 182.745 1.86685 180.913 1.52011 178.92C1.17336 176.948 0.999991 174.249 0.999991 170.825L0.999992 155.449H6.65625V161.008ZM27.3958 167.835V172.093C27.3958 175.344 27.9593 177.609 29.0862 178.887C30.2348 180.187 31.9143 180.838 34.1248 180.838C38.4158 180.838 40.5613 177.923 40.5613 172.093V167.835L27.3958 167.835ZM6.65625 167.835V170.403C6.65625 173.762 6.81878 176.222 7.14385 177.782C7.4906 179.342 8.28161 180.61 9.51688 181.585C10.7738 182.582 12.3775 183.081 14.3279 183.081C16.105 183.081 17.5895 182.604 18.7814 181.65C19.995 180.718 20.7969 179.505 21.187 178.009C21.5987 176.536 21.8046 174.445 21.8046 171.736V167.835H6.65625Z" fill="#D7FF01"/>
<path d="M16.896 224.3V208.046L6.65624 204.568L6.65624 210.062H0.999989L0.99999 192.248H6.65624L6.65624 197.709L41.1139 210.062V204.568H46.2175L46.2175 227.681H41.1139V222.057L6.65624 234.702L6.65624 239.773H0.999988L0.999989 222.057H6.65624V227.68L16.896 224.3ZM22.1947 222.609L41.1139 216.596V215.978L22.1947 209.737V222.609Z" fill="#D7FF01"/>
<path d="M19.3991 279.399L16.1158 285.283C11.0881 283.961 7.18719 281.285 4.41324 277.254C1.66097 273.245 0.284828 268.629 0.284828 263.406C0.284828 256.558 2.50616 251.064 6.94881 246.925C11.3915 242.786 16.8852 240.716 23.43 240.716C30.6032 240.716 36.3137 242.796 40.5613 246.957C44.8089 251.118 46.9327 256.547 46.9327 263.243C46.9327 269.16 45.3181 274.133 42.0891 278.164H46.2175V284.016H31.6868L31.6868 278.164C34.6341 276.864 36.9096 274.859 38.5133 272.15C40.1387 269.441 40.9513 266.592 40.9513 263.601C40.9513 259.093 39.326 255.387 36.0753 252.484C32.8245 249.601 28.7178 248.16 23.755 248.16C18.6622 248.16 14.5013 249.71 11.2723 252.809C8.04322 255.908 6.42869 259.581 6.42869 263.829C6.42869 267.318 7.54477 270.493 9.77693 273.353C12.0308 276.214 15.2381 278.229 19.3991 279.399Z" fill="#D7FF01"/>
<path d="M6.65624 295.328H40.5613V289.672H46.2175L46.2175 307.973H40.5613V302.155H6.65624L6.65624 307.356H0.999985L0.999986 289.672H6.65624L6.65624 295.328ZM24.8603 302.382L40.5613 316.88V311.712H46.2175V329.428H40.5613V324.617L24.8603 310.704L6.65624 325.007L6.65624 329.851H0.999984L0.999985 311.484H6.65624L6.65624 316.36L24.8603 302.382Z" fill="#D7FF01"/>
<path d="M14.2484 338.333C14.2484 337.002 14.6922 335.892 15.5799 335.005C16.4675 334.117 17.5771 333.673 18.9086 333.673C20.2401 333.673 21.3275 334.117 22.1708 335.005C23.0584 335.892 23.5023 337.002 23.5023 338.333V351.515C23.5023 352.847 23.0584 353.956 22.1708 354.844C21.3275 355.732 20.2401 356.176 18.9086 356.176C17.5771 356.176 16.4675 355.732 15.5799 354.844C14.6922 353.956 14.2484 352.847 14.2484 351.515L14.2484 338.333Z" fill="#990DCE"/>
<path d="M6.65624 367.396H40.5613V361.545H46.2175L46.2175 399.124H32.597V393.532H40.5613V374.223H27.1033V391.029H21.447V374.223H6.65624L6.65624 393.532H14.8806V399.124H0.999981L0.999983 361.545H6.65624V367.396Z" fill="#D7FF01"/>
<path d="M6.65624 408.128H40.5613V401.659H46.2175V417.1L11.0772 436.929H40.5613V430.525H46.2175V449.087H40.5613L40.5613 442.423H0.544878L0.544878 435.402L39.1309 413.719H6.65623V420.188H0.99998L0.999981 401.659H6.65624L6.65624 408.128Z" fill="#D7FF01"/>
<path d="M6.65623 456.239H40.5613V450.095H46.2175V467.584C46.2175 472.416 45.9683 476.133 45.4698 478.734C44.9714 481.356 43.8445 483.892 42.0891 486.34C40.3337 488.789 37.9173 490.74 34.84 492.192C31.7843 493.665 28.2952 494.402 24.3727 494.402C19.9083 494.402 16.0291 493.698 12.7351 492.289C9.44102 490.881 6.9813 489.028 5.35594 486.73C3.73058 484.455 2.59283 481.735 1.94269 478.571C1.31421 475.429 0.999978 471.42 0.999978 466.543L0.999979 450.095H6.65623V456.239ZM6.65623 463.065V466.641C6.65623 470.629 6.90545 473.782 7.4039 476.101C7.90234 478.441 8.74753 480.413 9.93946 482.017C11.1531 483.621 12.9735 484.921 15.4007 485.918C17.8279 486.915 20.6885 487.413 23.9826 487.413C27.9051 487.413 31.2317 486.59 33.9623 484.943C36.6929 483.317 38.47 481.226 39.2935 478.669C40.1387 476.133 40.5613 472.221 40.5613 466.934V463.065H6.65623Z" fill="#D7FF01"/>
</svg>
