<svg width="25" height="23" viewBox="0 0 25 23" fill="none" xmlns="http://www.w3.org/2000/svg">
<path d="M13.0671 0.445371C13.3785 0.64204 13.3785 0.64204 13.6296 1.00787C13.6877 1.49684 13.7117 1.94206 13.7107 2.43147C13.7136 2.6483 13.7136 2.6483 13.7165 2.86952C13.7222 3.34737 13.7239 3.82515 13.7256 4.30304C13.7287 4.63433 13.7321 4.96563 13.7358 5.29692C13.7447 6.16894 13.7503 7.04095 13.7552 7.91301C13.7608 8.80284 13.7695 9.69264 13.778 10.5825C13.7941 12.3284 13.8067 14.0744 13.8171 15.8204C13.9361 15.6955 13.9361 15.6955 14.0575 15.5681C14.4207 15.1893 14.7868 14.8134 15.1531 14.4376C15.3402 14.2411 15.3402 14.2411 15.531 14.0406C16.2184 13.3397 16.7503 12.8066 17.7546 12.6329C18.2937 12.8086 18.2937 12.8086 18.6921 13.1954C18.8328 13.793 18.8328 13.793 18.6921 14.5079C17.7677 15.8199 16.4851 16.9306 15.3523 18.0586C15.1717 18.2399 14.9912 18.4212 14.8107 18.6025C14.5549 18.8579 14.5549 18.8579 14.2939 19.1185C14.1393 19.2729 13.9847 19.4273 13.8253 19.5864C13.3855 19.9985 13.1653 20.1142 12.575 20.2266C10.9477 19.9855 9.50324 17.9095 8.39136 16.793C8.21011 16.6124 8.02884 16.4319 7.84753 16.2514C7.67726 16.0809 7.50698 15.9104 7.33154 15.7347C7.17711 15.58 7.02268 15.4254 6.86357 15.2661C6.3844 14.7545 6.32437 14.5741 6.24683 13.8633C6.31714 13.1954 6.31714 13.1954 6.70386 12.7969C7.34003 12.6074 7.61504 12.7078 8.20647 12.9799C8.89244 13.3897 9.41541 13.9667 9.96167 14.543C10.0809 14.6657 10.2002 14.7883 10.3231 14.9147C10.6146 15.215 10.9041 15.5168 11.1921 15.8204C11.1932 15.636 11.1943 15.4517 11.1955 15.2618C11.2062 13.5264 11.2198 11.791 11.2363 10.0556C11.2447 9.16335 11.2521 8.27114 11.2571 7.37889C11.262 6.51812 11.2695 5.65741 11.279 4.79668C11.2821 4.46798 11.2843 4.13927 11.2854 3.81056C11.2872 3.35079 11.2925 2.89119 11.2986 2.43147C11.2983 2.29498 11.298 2.1585 11.2978 2.01788C11.3079 1.47437 11.3182 1.09742 11.6308 0.64204C12.1218 0.331908 12.5023 0.374762 13.0671 0.445371Z" fill="#161616"/>
<path d="M1.99996 20.2323C2.28861 20.2299 2.28861 20.2299 2.5831 20.2275C2.79409 20.2286 3.00508 20.2298 3.22247 20.231C3.5559 20.2295 3.5559 20.2295 3.89608 20.228C4.50585 20.2259 5.11555 20.2264 5.72532 20.2282C6.36317 20.2296 7.00102 20.2283 7.63888 20.2274C8.71008 20.2264 9.78127 20.2277 10.8525 20.2304C12.0913 20.2335 13.33 20.2325 14.5688 20.2294C15.6321 20.2268 16.6953 20.2265 17.7585 20.2279C18.3937 20.2288 19.0289 20.2289 19.664 20.2271C20.372 20.2256 21.0799 20.2278 21.7879 20.231C21.9989 20.2298 22.2099 20.2287 22.4273 20.2275C22.6197 20.2291 22.8121 20.2307 23.0104 20.2323C23.1778 20.2325 23.3453 20.2327 23.5178 20.233C23.9427 20.3037 23.9427 20.3037 24.2785 20.5477C24.6518 21.0723 24.5616 21.5584 24.5052 22.1787C24.0291 22.6549 23.8648 22.6008 23.205 22.6014C22.9115 22.6029 22.9115 22.6029 22.6122 22.6046C22.3967 22.6038 22.1813 22.603 21.9593 22.6023C21.7331 22.6029 21.5068 22.6036 21.2738 22.6043C20.6524 22.6056 20.031 22.6053 19.4097 22.6041C18.7602 22.6032 18.1108 22.604 17.4613 22.6046C16.3705 22.6053 15.2798 22.6044 14.189 22.6026C12.9269 22.6006 11.6648 22.6012 10.4027 22.6033C9.3202 22.605 8.23772 22.6053 7.15523 22.6043C6.50821 22.6037 5.8612 22.6036 5.21417 22.6048C4.49313 22.6061 3.77212 22.6044 3.05108 22.6023C2.72788 22.6034 2.72788 22.6034 2.39815 22.6046C2.20255 22.6035 2.00694 22.6024 1.80541 22.6014C1.63479 22.6012 1.46417 22.6011 1.28838 22.6009C0.880182 22.5537 0.880182 22.5537 0.505182 22.1787C0.399382 21.0149 0.399382 21.0149 0.731827 20.5477C1.17651 20.2247 1.45256 20.233 1.99996 20.2323Z" fill="#161616"/>
</svg>
