<svg width="725" height="192" viewBox="0 0 725 192" fill="none" xmlns="http://www.w3.org/2000/svg">
<path d="M6.87831 48.694C6.87831 32.2137 11.0409 20.3207 19.366 13.015C27.6911 5.70928 41.1981 2.05643 59.8871 2.05643C72.9694 2.05643 83.5032 5.45444 91.4885 12.2504C99.4738 19.0464 105.25 29.4103 108.818 43.3421L85.1173 61.1817H72.6296L100.153 40.5388C96.5855 29.1555 91.4036 21.1702 84.6076 16.5829C77.9815 11.9956 69.7413 9.70195 59.8871 9.70195C53.0911 9.70195 47.3145 10.1267 42.5573 10.9762C37.97 11.8257 33.2978 13.5247 28.5406 16.0732C23.9533 18.4518 20.4703 22.3595 18.0917 27.7963C15.7131 33.2331 14.5238 40.199 14.5238 48.694C14.5238 56.1696 17.9218 62.7957 24.7178 68.5723C31.6837 74.3489 40.0938 79.276 49.948 83.3536C59.8022 87.4312 69.6564 91.5938 79.5106 95.8413C89.5347 100.089 97.9447 105.526 104.741 112.152C111.707 118.778 115.19 126.423 115.19 135.088C115.19 152.078 110.942 164.736 102.447 173.061C94.122 181.386 79.7654 185.548 59.3774 185.548C42.7272 185.548 29.6449 182.235 20.1305 175.609C10.6161 168.813 4.07496 158.364 0.507057 144.263L7.64286 141.205C11.0409 154.966 16.8175 164.566 24.9727 170.003C33.2978 175.27 44.766 177.903 59.3774 177.903C75.6878 177.903 87.7507 174.76 95.5661 168.474C103.551 162.187 107.544 151.059 107.544 135.088C107.544 127.613 104.061 120.986 97.0952 115.21C90.2992 109.433 81.8892 104.506 71.8651 100.429C62.0109 96.351 52.1567 92.1884 42.3025 87.9409C32.4483 83.6934 24.0382 78.2566 17.0723 71.6305C10.2763 65.0044 6.87831 57.3589 6.87831 48.694Z" fill="#D9D9D9"/>
<path d="M228.627 43.0873C222.85 41.2184 215.715 40.284 207.22 40.284C198.725 40.284 191.589 41.2184 185.812 43.0873C180.036 44.7863 174.684 48.0993 169.757 53.0264C164.999 57.7836 161.432 64.8345 159.053 74.179C156.674 83.3536 155.485 94.9918 155.485 109.093C155.485 123.195 156.674 134.918 159.053 144.263C161.432 153.437 164.999 160.488 169.757 165.415C174.684 170.173 180.036 173.486 185.812 175.354C191.589 177.053 198.725 177.903 207.22 177.903C215.715 177.903 222.85 177.053 228.627 175.354C234.404 173.486 239.67 170.173 244.428 165.415C249.355 160.488 253.008 153.437 255.386 144.263C257.765 134.918 258.954 123.195 258.954 109.093C258.954 94.9918 257.765 83.3536 255.386 74.179C253.008 64.8345 249.355 57.7836 244.428 53.0264C239.67 48.0993 234.404 44.7863 228.627 43.0873ZM252.838 167.454C243.663 179.517 228.457 185.548 207.22 185.548C185.982 185.548 170.776 179.517 161.601 167.454C152.427 155.391 147.84 135.938 147.84 109.093C147.84 82.2493 152.427 62.7957 161.601 50.7328C170.776 38.6699 185.982 32.6384 207.22 32.6384C228.457 32.6384 243.663 38.6699 252.838 50.7328C262.012 62.7957 266.6 82.2493 266.6 109.093C266.6 135.938 262.012 155.391 252.838 167.454Z" fill="#D9D9D9"/>
<path d="M306.662 183V109.093C306.662 82.2493 311.25 62.7957 320.424 50.7328C329.769 38.6699 344.975 32.6384 366.042 32.6384C390.678 32.6384 407.413 40.7087 416.248 56.8492L362.984 101.448H417.267V109.093H341.832L406.309 55.3201C398.833 45.296 385.411 40.284 366.042 40.284C357.547 40.284 350.412 41.2184 344.635 43.0873C338.858 44.7863 333.506 48.0993 328.579 53.0264C323.822 57.7836 320.254 64.8345 317.876 74.179C315.497 83.3536 314.308 94.9918 314.308 109.093V183H306.662Z" fill="#D9D9D9"/>
<path d="M542.548 51.9397C543.158 52.4413 543.765 52.9469 544.368 53.4563C544.679 53.7171 544.991 53.978 545.312 54.2467C547.646 56.2678 549.59 58.4708 551.461 60.9226C551.678 61.2003 551.896 61.478 552.12 61.764C560.124 72.5172 562.71 85.9144 560.794 99.0008C559.119 109.462 553.915 118.785 546.366 126.119C543.895 128.598 541.987 131.235 540.635 134.466C540.501 134.785 540.367 135.105 540.229 135.434C538.363 140.43 537.92 145.936 537.789 151.231C537.705 153.951 537.705 153.951 536.902 154.998C535.732 155.722 534.834 155.839 533.47 155.842C532.882 155.846 532.882 155.846 532.282 155.85C531.854 155.849 531.426 155.848 530.985 155.847C530.532 155.849 530.08 155.851 529.614 155.853C528.375 155.857 527.135 155.858 525.896 155.857C524.86 155.857 523.825 155.859 522.79 155.861C520.347 155.865 517.904 155.865 515.461 155.863C512.942 155.86 510.424 155.865 507.905 155.873C505.741 155.879 503.577 155.882 501.413 155.88C500.121 155.88 498.83 155.881 497.538 155.886C496.097 155.892 494.657 155.888 493.216 155.884C492.789 155.887 492.361 155.889 491.921 155.892C491.331 155.888 491.331 155.888 490.73 155.884C490.219 155.885 490.219 155.885 489.698 155.885C488.535 155.714 487.83 155.301 486.877 154.625C486.151 153.558 486.035 152.686 486.016 151.412C486.007 151.079 485.998 150.746 485.99 150.402C485.982 150.048 485.975 149.693 485.967 149.328C485.621 139.086 482.88 131.34 475.445 124.2C466.698 115.515 462.814 102.625 462.519 90.5779C462.884 76.6106 468.41 64.0194 478.517 54.3781C485.777 47.6593 494.745 43.6099 504.423 41.8835C504.824 41.8114 505.224 41.7392 505.636 41.6648C518.99 40.1904 531.966 43.6674 542.548 51.9397ZM483.891 57.9361C483.611 58.1584 483.332 58.3808 483.044 58.6098C480.908 60.3707 479.227 62.4678 477.545 64.6558C477.204 65.0932 477.204 65.0932 476.856 65.5395C470.308 74.3798 467.739 85.7104 469.146 96.5597C469.377 98.0167 469.71 99.4389 470.078 100.867C470.171 101.231 470.171 101.231 470.266 101.603C472.392 109.679 476.685 116.195 482.654 122.006C489.982 129.267 491.445 139.217 492.477 149.025C505.289 149.025 518.101 149.025 531.302 149.025C531.671 146.192 532.041 143.358 532.422 140.439C534.16 132.981 536.314 126.893 542.004 121.563C548.877 115.062 552.863 106.36 554.447 97.1342C554.497 96.859 554.546 96.5837 554.596 96.3001C556.142 85.5249 553.13 74.1615 546.8 65.3666C543.668 61.2206 539.874 57.263 535.408 54.5763C535.2 54.4461 534.991 54.3159 534.777 54.1818C530.936 51.7973 527.064 50.1919 522.716 48.9765C522.286 48.8495 521.856 48.7224 521.413 48.5915C508.102 45.2752 494.228 49.3902 483.891 57.9361Z" fill="#D7FF01"/>
<path d="M491.984 158.679C492.523 158.676 492.523 158.676 493.072 158.672C493.465 158.672 493.859 158.672 494.264 158.671C494.679 158.669 495.093 158.667 495.521 158.666C496.896 158.66 498.271 158.658 499.646 158.655C500.601 158.653 501.555 158.651 502.51 158.649C504.257 158.646 506.005 158.643 507.752 158.642C510.32 158.64 512.888 158.634 515.456 158.623C517.684 158.614 519.911 158.611 522.138 158.611C523.084 158.609 524.03 158.606 524.976 158.601C526.3 158.595 527.624 158.596 528.949 158.598C529.339 158.595 529.729 158.591 530.131 158.588C532.82 158.603 534.648 158.928 536.785 160.668C538.164 162.345 539.21 164.003 539.305 166.221C539.014 168.837 538.01 170.689 536.155 172.544C534.126 173.594 532.233 174.081 529.959 174.09C529.626 174.092 529.293 174.094 528.95 174.096C528.589 174.097 528.228 174.097 527.856 174.097C527.472 174.099 527.088 174.101 526.693 174.103C525.424 174.108 524.155 174.111 522.886 174.113C522.002 174.115 521.118 174.117 520.234 174.12C518.381 174.123 516.527 174.126 514.673 174.127C512.304 174.129 509.934 174.138 507.565 174.149C505.738 174.156 503.912 174.157 502.085 174.158C501.212 174.159 500.339 174.162 499.466 174.167C498.241 174.173 497.016 174.173 495.791 174.17C495.434 174.174 495.077 174.177 494.709 174.181C492.043 174.164 489.261 173.885 487.087 172.22C485.055 169.608 484.237 167.692 484.637 164.331C485.333 161.833 486.932 160.401 489.117 159.105C490.191 158.747 490.868 158.683 491.984 158.679ZM490.984 165.451C491.17 166.48 491.17 166.48 491.73 167.318C492.255 167.353 492.781 167.363 493.306 167.362C493.646 167.363 493.986 167.363 494.336 167.364C494.711 167.363 495.087 167.361 495.474 167.36C495.867 167.36 496.261 167.36 496.666 167.36C497.973 167.36 499.28 167.357 500.587 167.354C501.49 167.353 502.393 167.353 503.297 167.352C505.68 167.351 508.063 167.347 510.446 167.343C512.876 167.339 515.305 167.338 517.735 167.336C522.506 167.332 527.277 167.325 532.049 167.318C532.172 166.702 532.295 166.086 532.422 165.451C531.262 164.678 531.016 164.611 529.703 164.61C529.377 164.607 529.051 164.605 528.715 164.603C528.359 164.605 528.002 164.606 527.634 164.608C527.258 164.606 526.882 164.605 526.494 164.604C525.247 164.6 523.999 164.603 522.752 164.605C521.887 164.605 521.022 164.604 520.156 164.603C518.341 164.602 516.527 164.604 514.712 164.607C512.384 164.611 510.056 164.609 507.728 164.604C505.941 164.602 504.153 164.603 502.366 164.604C501.508 164.605 500.649 164.604 499.791 164.603C498.592 164.601 497.392 164.604 496.193 164.608C495.837 164.606 495.481 164.605 495.114 164.603C494.624 164.606 494.624 164.606 494.123 164.61C493.84 164.61 493.556 164.61 493.264 164.61C492.371 164.717 491.761 165.008 490.984 165.451Z" fill="#D7FF01"/>
<path d="M498.906 176.536C499.215 176.533 499.523 176.53 499.841 176.527C500.861 176.518 501.881 176.514 502.901 176.512C503.611 176.509 504.322 176.505 505.032 176.502C506.522 176.496 508.012 176.493 509.502 176.492C511.407 176.49 513.312 176.476 515.216 176.458C516.684 176.447 518.152 176.445 519.621 176.444C520.322 176.443 521.024 176.438 521.726 176.43C522.711 176.42 523.695 176.422 524.68 176.427C524.967 176.421 525.254 176.416 525.55 176.41C527.999 176.443 529.76 177.388 531.514 179.082C533.238 181.031 533.304 182.814 533.271 185.33C533.022 187.826 531.548 189.228 529.691 190.775C528.213 191.797 526.621 191.641 524.903 191.643C524.594 191.645 524.284 191.647 523.965 191.649C522.939 191.654 521.914 191.657 520.888 191.659C520.176 191.661 519.463 191.663 518.75 191.665C517.255 191.669 515.759 191.671 514.264 191.673C512.349 191.675 510.435 191.684 508.521 191.694C507.048 191.701 505.575 191.703 504.102 191.704C503.397 191.705 502.691 191.708 501.985 191.713C500.997 191.719 500.009 191.719 499.021 191.716C498.73 191.72 498.44 191.723 498.141 191.727C495.804 191.709 494.35 191.111 492.594 189.6C490.751 187.458 490.402 185.743 490.481 182.962C490.729 180.883 491.659 179.587 493.224 178.214C495.172 176.793 496.501 176.538 498.906 176.536ZM496.957 183.37C496.957 183.863 496.957 184.356 496.957 184.863C498.058 185.414 499.174 185.292 500.381 185.291C500.657 185.292 500.932 185.293 501.216 185.295C502.13 185.298 503.043 185.299 503.957 185.299C504.59 185.301 505.223 185.302 505.856 185.303C507.184 185.305 508.513 185.306 509.841 185.306C511.546 185.306 513.25 185.311 514.955 185.317C516.263 185.322 517.571 185.322 518.879 185.322C519.508 185.323 520.136 185.324 520.765 185.327C521.643 185.331 522.52 185.33 523.398 185.327C523.66 185.329 523.921 185.332 524.19 185.334C525.672 185.362 525.672 185.362 526.822 184.49C526.76 183.712 526.76 183.712 526.449 182.997C525.356 182.45 524.257 182.568 523.059 182.569C522.787 182.568 522.515 182.567 522.235 182.565C521.333 182.562 520.432 182.561 519.531 182.561C518.906 182.56 518.281 182.558 517.656 182.557C516.346 182.555 515.035 182.554 513.725 182.554C512.042 182.554 510.36 182.549 508.678 182.543C507.387 182.539 506.097 182.538 504.806 182.538C504.186 182.538 503.565 182.536 502.945 182.533C502.079 182.529 501.213 182.531 500.347 182.533C499.96 182.53 499.96 182.53 499.565 182.526C498.096 182.5 498.096 182.5 496.957 183.37Z" fill="#D7FF01"/>
<path d="M522.716 55.3229C524.629 55.9637 526.473 56.7422 528.315 57.5628C528.653 57.7086 528.991 57.8544 529.339 58.0046C532 59.2331 534.254 60.9561 536.528 62.7892C536.848 63.0467 537.168 63.3041 537.498 63.5694C544.699 69.6972 549.242 78.5678 550.132 87.9647C550.181 88.5712 550.227 89.1778 550.271 89.7846C550.295 90.0749 550.32 90.3652 550.345 90.6644C550.449 92.4125 550.358 93.4653 549.221 94.8943C548.272 95.6143 547.809 95.6443 546.608 95.5943C545.237 95.1945 544.843 94.9275 543.995 93.7744C543.687 92.5127 543.581 91.2388 543.458 89.9479C542.572 82.4159 540.097 76.365 535.035 70.6288C534.752 70.2932 534.752 70.2932 534.463 69.9507C529.314 64.2885 521.266 61.1853 513.779 60.736C510.635 60.5309 510.635 60.5309 509.276 59.4294C508.693 58.1928 508.693 58.1928 508.53 56.8162C510.298 52.0423 518.778 54.1978 522.716 55.3229Z" fill="#D7FF01"/>
<path d="M466.718 14.2582C468.607 16.2089 469.965 18.5746 471.408 20.8612C471.937 21.6978 472.467 22.5344 472.996 23.3709C473.258 23.7853 473.52 24.1997 473.79 24.6266C474.497 25.7354 475.217 26.834 475.945 27.9294C476.153 28.2469 476.361 28.5644 476.576 28.8916C476.962 29.4793 477.353 30.0642 477.748 30.6457C478.844 32.3323 479.302 33.4618 479.038 35.5372C478.501 36.6338 478.501 36.6338 477.545 37.4038C476.359 37.6957 475.349 37.7867 474.185 37.4038C472.452 35.6458 471.218 33.5155 469.915 31.4307C468.496 29.1675 467.073 26.9111 465.588 24.6906C465.227 24.1442 465.227 24.1442 464.859 23.5867C464.397 22.889 463.931 22.1947 463.459 21.5043C462.126 19.471 461.543 18.1915 461.865 15.7514C462.996 13.6508 464.552 13.6979 466.718 14.2582Z" fill="#D7FF01"/>
<path d="M589.913 45.99C590.799 46.3633 590.799 46.3633 591.406 47.11C591.744 48.1257 591.935 49.0334 591.779 50.0965C590.789 51.5233 589.864 52.3186 588.332 53.118C587.944 53.3232 587.557 53.5284 587.157 53.7398C586.742 53.9542 586.327 54.1687 585.899 54.3896C585.247 54.7322 584.594 55.0747 583.942 55.4179C583.495 55.6531 583.047 55.8879 582.599 56.1221C581.061 56.9282 579.54 57.7612 578.025 58.6098C577.622 58.8338 577.22 59.0578 576.805 59.2886C576.039 59.7165 575.274 60.1475 574.511 60.5821C574.163 60.7744 573.816 60.9666 573.457 61.1647C573.156 61.3347 572.854 61.5048 572.543 61.68C571.415 62.1229 570.582 62.158 569.38 62.0426C568.307 61.2726 568.307 61.2726 567.514 60.176C567.283 58.739 567.292 57.9412 568.031 56.6776C569.447 55.2536 571.092 54.5041 572.88 53.6196C573.652 53.2281 574.423 52.8358 575.194 52.4428C575.59 52.2422 575.985 52.0416 576.392 51.8349C578.327 50.8382 580.235 49.7922 582.143 48.7432C582.817 48.3727 583.491 48.0023 584.165 47.632C584.447 47.4768 584.729 47.3215 585.019 47.1615C585.279 47.0213 585.538 46.8811 585.806 46.7366C586.059 46.5974 586.313 46.4581 586.574 46.3146C587.716 45.8036 588.681 45.8801 589.913 45.99Z" fill="#D7FF01"/>
<path d="M436.48 45.99C437.576 46.391 437.576 46.391 438.72 46.9933C438.935 47.1054 439.15 47.2175 439.371 47.3331C442.368 48.9171 445.304 50.6189 448.247 52.2999C450.23 53.4292 452.238 54.4954 454.276 55.5227C455.215 56.1135 455.705 56.6092 456.266 57.5628C456.408 58.8943 456.414 59.8233 455.892 61.0626C454.773 61.9718 453.56 62.0632 452.159 62.0426C451.167 61.6863 450.402 61.3488 449.504 60.8351C449.262 60.7048 449.019 60.5744 448.77 60.44C447.99 60.0172 447.216 59.5838 446.443 59.1494C445.907 58.8556 445.372 58.5624 444.836 58.2698C443.526 57.5516 442.222 56.8241 440.92 56.0924C439.913 55.5278 438.902 54.9704 437.891 54.4115C437.257 54.0553 436.623 53.6981 435.99 53.3397C435.707 53.1812 435.425 53.0228 435.134 52.8595C432.717 51.4567 432.717 51.4567 432 50.0965C432.026 48.6559 432.178 47.7768 432.98 46.5733C434.209 45.7646 435.025 45.8863 436.48 45.99Z" fill="#D7FF01"/>
<path d="M512.623 0.273438C513.746 0.52768 514.159 1.05128 514.876 1.93877C515.066 3.00117 515.066 3.00117 515.069 4.24356C515.074 4.70949 515.079 5.17543 515.084 5.65548C515.081 6.16261 515.078 6.66973 515.074 7.17686C515.075 7.69845 515.077 8.22003 515.079 8.74162C515.081 9.83373 515.078 10.9257 515.071 12.0177C515.062 13.4163 515.067 14.8144 515.076 16.2129C515.081 17.2897 515.08 18.3663 515.076 19.4431C515.075 19.9587 515.076 20.4742 515.08 20.9898C515.083 21.7108 515.077 22.4319 515.069 23.1529C515.067 23.7679 515.067 23.7679 515.066 24.3953C514.832 25.7048 514.413 26.1365 513.383 26.9509C512.121 27.4488 511.617 27.3599 510.326 26.9043C509.106 26.0904 508.951 25.7106 508.53 24.3377C508.435 23.318 508.435 23.318 508.433 22.2021C508.431 21.7822 508.428 21.3624 508.426 20.9298C508.427 20.4798 508.429 20.0299 508.431 19.5663C508.429 18.8684 508.429 18.8684 508.428 18.1564C508.428 16.9223 508.431 15.6883 508.435 14.4542C508.436 13.6989 508.435 12.9437 508.432 12.1884C508.428 10.7356 508.428 9.28293 508.431 7.83016C508.429 7.3802 508.427 6.93024 508.426 6.46664C508.428 6.04678 508.431 5.62693 508.433 5.19435C508.434 4.8261 508.434 4.45786 508.435 4.07846C508.538 2.96953 508.766 2.18071 509.276 1.19214C510.476 0.392162 511.208 0.333422 512.623 0.273438Z" fill="#D7FF01"/>
<path d="M561.541 15.0048C562.427 15.3781 562.427 15.3781 563.034 16.1248C563.454 17.6247 563.647 18.5442 563.033 19.995C562.445 20.9954 561.813 21.9491 561.154 22.9042C560.919 23.2584 560.683 23.6126 560.44 23.9775C559.687 25.1061 558.922 26.2266 558.157 27.3476C557.652 28.1027 557.148 28.8583 556.644 29.6144C551.061 37.9453 551.061 37.9453 549.596 38.3628C548.351 38.4321 547.485 38.2289 546.421 37.5904C545.632 36.2751 545.587 35.1453 545.861 33.6706C546.496 32.3033 547.325 31.0919 548.177 29.8514C548.414 29.4955 548.65 29.1395 548.894 28.7728C549.65 27.64 550.416 26.514 551.181 25.3877C551.691 24.6261 552.199 23.8642 552.708 23.1018C558.278 14.7798 558.278 14.7798 561.541 15.0048Z" fill="#D7FF01"/>
<path d="M629.552 175.354H712.633L660.389 52.2619L604.831 183H596.676L660.389 32.6384L724.101 183H629.552V175.354Z" fill="#D9D9D9"/>
</svg>
