<svg width="28" height="35" viewBox="0 0 28 35" fill="none" xmlns="http://www.w3.org/2000/svg">
<path fill-rule="evenodd" clip-rule="evenodd" d="M26.7981 0C27.4781 0 28.0119 0.646528 27.9522 1.39789L25.6475 30.434C25.6054 30.9639 25.2733 31.4103 24.8123 31.5568L14.2973 34.8963C14.0889 34.9625 13.8679 34.9625 13.6595 34.8963L3.14452 31.5568C2.68346 31.4103 2.35139 30.9639 2.30932 30.434L0.00455387 1.39789C-0.055086 0.646528 0.478694 0 1.15866 0H26.7981ZM7.25187 21.617C7.21565 20.8808 7.74405 20.2618 8.40872 20.2618H9.38498C10.0073 20.2618 10.5184 20.8071 10.5427 21.4969L10.5492 21.6833C10.5679 22.2141 10.8791 22.6776 11.3323 22.8493L13.6038 23.7102C13.8466 23.8023 14.1102 23.8023 14.353 23.7102L16.6459 22.8412C17.0884 22.6735 17.3966 22.2271 17.4273 21.7095L17.5413 19.7894C17.5853 19.048 17.055 18.4198 16.3852 18.4198H11.4356C10.8185 18.4198 10.3097 17.8833 10.2785 17.1997L10.2276 16.0861C10.1941 15.3517 10.7218 14.7358 11.3847 14.7358H16.7149C17.3216 14.7358 17.8255 14.2167 17.8703 13.5456L17.9447 12.432C17.9944 11.6868 17.4629 11.0519 16.7893 11.0519H7.68078C7.07455 11.0519 6.57082 10.5335 6.52545 9.86288L6.45012 8.74925C6.39969 8.00368 6.93143 7.36792 7.60545 7.36792H20.2861C20.9543 7.36792 21.484 7.99328 21.4424 8.73309L21.1049 14.7358L20.5702 24.458C20.5413 24.9829 20.2271 25.4354 19.7769 25.6002L14.3415 27.5903C14.1057 27.6766 13.8511 27.6766 13.6153 27.5903L8.18504 25.6021C7.73228 25.4363 7.41731 24.9798 7.39133 24.4517L7.25187 21.617Z" fill="#01A4FF"/>
</svg>
