<svg width="36" height="36" viewBox="0 0 36 36" fill="none" xmlns="http://www.w3.org/2000/svg">
<path d="M34.8183 16.0052L19.5619 0.748781C19.0939 0.280793 18.4387 0 17.7836 0C17.1284 0 16.4732 0.280793 16.0052 0.748781L12.7293 4.0247L16.5668 7.8622C16.9412 7.67501 17.3156 7.58141 17.7836 7.58141C19.3747 7.58141 20.5915 8.79818 20.5915 10.3893C20.5915 10.8573 20.4979 11.2317 20.3107 11.6061L24.0546 15.35C24.429 15.1628 24.8034 15.0692 25.2714 15.0692C26.8625 15.0692 28.0793 16.286 28.0793 17.8772C28.0793 19.4683 26.8625 20.6851 25.2714 20.6851C23.6802 20.6851 22.4634 19.4683 22.4634 17.8772C22.4634 17.4092 22.557 17.0348 22.7442 16.6604L19.0003 12.9165C18.9067 12.9165 18.8131 13.0101 18.7195 13.0101V22.7442C19.8427 23.1186 20.5915 24.1482 20.5915 25.365C20.5915 26.9561 19.3747 28.1729 17.7836 28.1729C16.1924 28.1729 14.9756 26.9561 14.9756 25.365C14.9756 24.1482 15.7244 23.1186 16.8476 22.7442V12.9165C15.7244 12.5421 14.9756 11.5125 14.9756 10.2957C14.9756 9.82775 15.0692 9.45336 15.2564 9.07897L11.4189 5.24147L0.748781 16.0052C0.280793 16.4732 0 17.1284 0 17.7836C0 18.4387 0.280793 19.0939 0.748781 19.5619L16.0052 34.8183C16.4732 35.2863 17.1284 35.5671 17.7836 35.5671C18.4387 35.5671 19.0939 35.2863 19.5619 34.8183L34.8183 19.5619C35.2863 19.0939 35.5671 18.4387 35.5671 17.7836C35.5671 17.1284 35.2863 16.4732 34.8183 16.0052Z" fill="#F4511E"/>
</svg>
