<svg width="36" height="36" viewBox="0 0 36 36" fill="none" xmlns="http://www.w3.org/2000/svg">
<g opacity="0.8">
<path d="M17.7836 0L11.8458 6.27364L5.89821 12.5374L0 18.7715V0H17.7836Z" fill="#0D91D6"/>
<path d="M17.7836 0H17.744L0 18.7419V18.7715V18.8604V35.5671L8.5855 26.9816L14.6912 20.8759L20.8068 14.7604L26.9223 8.64478L35.5671 0H17.7836Z" fill="#F88909"/>
<path d="M8.5855 26.9816L0 35.5671V18.8604L8.5855 26.9816Z" fill="#C757BC"/>
<path d="M14.6912 20.8759L8.5855 26.9816L0 18.8604V18.7715L5.89821 12.5374L14.6912 20.8759Z" fill="#D3638F"/>
<path d="M20.8068 14.7604L14.6912 20.8759L5.89821 12.5374L11.8458 6.27364L20.8068 14.7604Z" fill="#E07063"/>
<path d="M26.9223 8.64478L20.8068 14.7604L11.8458 6.27364L17.7836 0L26.9223 8.64478Z" fill="#EC7D36"/>
<path d="M35.5671 0L26.9223 8.64478L17.7836 0H35.5671Z" fill="#F88909"/>
<path d="M5.44374 12.9919L1.96607 16.677L0 14.8196V7.84452L5.44374 12.9919Z" fill="#0095D5"/>
<path d="M8.92142 9.30673L5.44374 12.9919L0 7.84452V0.859538L8.92142 9.30673Z" fill="#2B88DA"/>
<path d="M12.409 5.63146L8.92142 9.30673L0 0.859538V0H6.45148L12.409 5.63146Z" fill="#557BDE"/>
<path d="M15.8866 1.94631L12.409 5.63146L6.45148 0H17.7836L15.8866 1.94631Z" fill="#806EE3"/>
<path d="M16.7956 18.7715L0 35.5671L11.3815 35.5671H33.5912L16.7956 18.7715Z" fill="#0095D5"/>
<path d="M19.4434 35.5671H11.3815L5.69074 29.8862L9.72168 25.8553L19.4434 35.5671Z" fill="#2B88DA"/>
<path d="M27.525 35.5671H19.4434L9.72168 25.8553L13.7526 21.8244L27.525 35.5671Z" fill="#557BDE"/>
<path d="M35.5671 35.5671L27.525 35.5671L13.7526 21.8244L17.7836 17.7836L35.5671 35.5671Z" fill="#806EE3"/>
</g>
</svg>
