<svg width="35" height="35" viewBox="0 0 35 35" fill="none" xmlns="http://www.w3.org/2000/svg">
<path d="M34.1139 0H0.832047C0.371925 0 0 0.372757 0 0.832047V34.1139C0 34.5732 0.371925 34.946 0.832047 34.946H34.1139C34.5741 34.946 34.946 34.5732 34.946 34.1139V0.832047C34.946 0.372757 34.5741 0 34.1139 0ZM20.8012 18.6753H16.6409V31.6178H13.3128V18.6753H9.15252V15.8089H20.8012V18.6753ZM21.7339 30.8789V27.4193C21.7339 27.4193 23.6235 28.8438 25.8908 28.8438C28.1581 28.8438 28.0708 27.361 28.0708 27.158C28.0708 25.0064 21.6465 25.0064 21.6465 20.2396C21.6465 13.7571 31.0071 16.3148 31.0071 16.3148L30.8906 19.3967C30.8906 19.3967 29.3205 18.35 27.5474 18.35C25.7743 18.35 25.1345 19.1928 25.1345 20.0939C25.1345 22.4195 31.617 22.1874 31.617 26.8676C31.6178 34.0765 21.7339 30.8789 21.7339 30.8789Z" fill="#3178C6"/>
</svg>
