<svg width="36" height="36" viewBox="0 0 36 36" fill="none" xmlns="http://www.w3.org/2000/svg">
<path d="M18.2366 6.84823e-05C16.7811 0.00474835 15.7722 0.132977 14.5526 0.343571C10.9511 0.970673 10.295 2.28759 10.295 4.71456V8.42383H18.7186V10.2958H5.90349C3.43631 10.2958 1.27706 11.4582 0.592881 14.2446C-0.180217 17.4429 -0.214847 19.4458 0.592881 22.7854C1.20593 25.276 2.55651 27.1433 5.02462 27.1433H8.42401V22.3661C8.42401 19.59 10.938 16.8476 13.8189 16.8476H20.5914C22.9528 16.8476 25.2712 15.1048 25.2712 12.7508V4.71456C25.2712 2.43173 23.6248 0.724511 21.3233 0.341698C21.3804 0.336083 19.6798 -0.00554736 18.2366 6.84823e-05ZM13.5718 3.74396C14.3402 3.74396 14.9757 4.37761 14.9757 5.14979C14.9757 5.92946 14.3402 6.55188 13.5718 6.55188C12.7884 6.55188 12.1678 5.93039 12.1678 5.14979C12.1678 4.38042 12.7884 3.74396 13.5718 3.74396Z" fill="#0277BD"/>
<path d="M17.3296 35.567C18.785 35.5624 19.794 35.4341 21.0135 35.2235C24.6151 34.5964 25.2712 33.2795 25.2712 30.8525V27.1433H16.8476V25.2713H29.6636C32.1308 25.2713 34.29 24.1089 34.9742 21.3225C35.7473 18.1242 35.782 16.1213 34.9742 12.7817C34.3602 10.2911 33.0097 8.42383 30.5415 8.42383H27.1422V13.201C27.1422 15.9771 24.6282 18.7195 21.7473 18.7195H14.9748C12.6133 18.7195 10.295 20.4623 10.295 22.8163V30.8525C10.295 33.1354 11.9413 34.8426 14.2428 35.2254C14.1857 35.231 15.8864 35.5727 17.3296 35.567ZM21.9953 31.8231C21.2269 31.8231 20.5914 31.1895 20.5914 30.4173C20.5914 29.6377 21.2269 29.0152 21.9953 29.0152C22.7787 29.0152 23.3993 29.6367 23.3993 30.4173C23.3993 31.1867 22.7778 31.8231 21.9953 31.8231Z" fill="#FFC107"/>
</svg>
