<svg width="36" height="36" viewBox="0 0 36 36" fill="none" xmlns="http://www.w3.org/2000/svg">
<path d="M12.2096 35.5671C12.7593 35.3244 13.1444 34.7635 13.1444 34.1107V29.827C13.1444 29.6707 13.1567 29.5081 13.1761 29.3431C13.1652 29.3463 13.1552 29.3487 13.1444 29.351C13.1444 29.351 10.8248 29.351 10.3609 29.351C9.20106 29.351 8.1959 28.8751 7.73198 27.9231C7.19074 26.8919 6.95878 25.1467 5.56703 24.1948C5.33507 24.0361 5.48971 23.7981 5.95362 23.7981C6.41754 23.8775 7.4227 24.5121 8.04126 25.3847C8.73714 26.2573 9.43302 26.9712 10.6701 26.9712C12.5931 26.9712 13.6237 26.8721 14.2439 26.531C14.966 25.4291 15.9658 24.5914 17.0104 24.5914V24.5716C12.6279 24.4272 9.82812 22.9327 8.52451 20.6251C5.69074 20.6584 3.22346 20.9463 1.81547 21.1859C1.77062 20.9265 1.73196 20.6655 1.69872 20.4029C3.08815 20.1681 5.44331 19.8897 8.15105 19.8365C8.06446 19.6176 7.98946 19.3931 7.92605 19.1631C5.21135 19.0219 2.86856 19.1321 1.59588 19.24C1.58042 18.9766 1.55954 18.7141 1.55645 18.4475C2.83145 18.3404 5.11084 18.2333 7.75595 18.3595C7.69487 17.9628 7.65543 17.5575 7.65543 17.1355C7.65543 15.7869 8.11935 14.359 8.96987 13.1691C8.58327 11.8205 8.04203 8.96476 9.12451 7.93351C11.2121 7.93351 12.6812 8.96476 13.3771 9.59938C14.6908 9.04329 16.1598 8.72598 17.7836 8.72598C19.4073 8.72598 20.8763 9.04329 22.1135 9.59858C22.8093 8.96397 24.2784 7.93271 26.3661 7.93271C27.5258 9.04329 26.9073 11.8991 26.5207 13.1683C27.3712 14.3582 27.8351 15.7068 27.7578 17.1347C27.7578 17.5186 27.723 17.8891 27.6728 18.2524C30.3782 18.1159 32.7194 18.2254 34.0161 18.3333C34.0145 18.6006 33.9906 18.8616 33.9766 19.1258C32.6846 19.0163 30.2846 18.9037 27.5135 19.0552C27.4447 19.3217 27.3612 19.5811 27.2622 19.8326C30.0039 19.8691 32.4156 20.1412 33.8715 20.3791C33.8382 20.6425 33.7996 20.9035 33.7547 21.1621C32.2764 20.9194 29.7565 20.6354 26.8895 20.6211C25.6021 22.9041 22.8534 24.3931 18.5568 24.5668V24.5914C20.5671 24.5914 22.4227 27.6852 22.4227 29.827V34.1107C22.4227 34.7635 22.8078 35.3244 23.3575 35.5671C30.4408 33.1619 35.5671 26.308 35.5671 18.2452C35.5671 8.18497 27.59 0 17.7836 0C7.97708 0 0 8.18497 0 18.2452C0 26.308 5.1263 33.1619 12.2096 35.5671Z" fill="white"/>
</svg>
