<svg width="36" height="36" viewBox="0 0 36 36" fill="none" xmlns="http://www.w3.org/2000/svg">
<path d="M35.5511 17.5938C35.6125 13.8332 34.7588 9.3613 32.9805 4.11449L31.5863 0L29.6923 3.91238C29.5909 4.12155 29.4754 4.3263 29.3544 4.52841C26.2432 1.8772 22.2063 0.264768 17.7836 0.264768C7.9617 0.264768 0 8.1672 0 17.9159C0 27.6647 7.9617 35.5671 17.7836 35.5671C27.6054 35.5671 35.5671 27.6647 35.5671 17.9159C35.5671 17.8074 35.5529 17.7024 35.5511 17.5938Z" fill="#8BC34A"/>
<path d="M31.4635 25.4689C28.6866 29.2656 23.7713 29.4695 19.1449 29.3892H11.3921C15.3294 27.9833 17.6724 27.6488 20.0652 26.3885C24.5715 24.0365 29.0263 18.8903 29.9537 13.5367C28.2376 18.6873 23.0368 23.1124 18.2975 24.912C15.0502 26.1414 9.18521 27.3346 9.18521 27.3346L8.94779 27.2066C4.95539 25.2129 4.83446 16.3397 12.0928 13.4749C15.2707 12.219 18.3108 12.9092 21.7439 12.069C25.4091 11.1758 29.6487 8.35518 31.3737 4.67756C33.305 10.5616 35.6293 19.7746 31.4635 25.4689ZM10.3749 30.6645C10.1242 30.9734 9.74094 31.1543 9.34081 31.1543C8.60902 31.1543 8.01149 30.5568 8.01149 29.8305C8.01149 29.1041 8.61346 28.5066 9.34081 28.5066C9.64402 28.5066 9.94278 28.6108 10.1775 28.8032C10.7466 29.2612 10.8355 30.0997 10.3749 30.6645Z" fill="white"/>
</svg>
