<svg width="38" height="9" viewBox="0 0 38 9" fill="none" xmlns="http://www.w3.org/2000/svg">
<path d="M33.9638 3.85018C29.8534 6.91654 23.8811 8.54442 18.7454 8.54442C11.5491 8.54442 5.0642 5.85685 0.166473 1.38957C-0.220931 1.03661 0.128907 0.55685 0.591444 0.834685C5.8891 3.93861 12.4233 5.81928 19.1829 5.81928C23.7433 5.81928 28.7538 4.86056 33.3635 2.89145C34.0514 2.57605 34.6384 3.34538 33.9638 3.85018ZM35.6754 1.88185C35.1502 1.20018 32.2021 1.55393 30.8653 1.7175C30.4654 1.76759 30.4028 1.41462 30.7651 1.1493C33.1138 -0.516142 36.9746 -0.0371701 37.4246 0.5185C37.8746 1.08669 37.2994 4.98578 35.1009 6.85314C34.7636 7.1435 34.4388 6.99167 34.5883 6.61366C35.0884 5.36457 36.2005 2.55022 35.6754 1.88185Z" fill="#FF9900"/>
</svg>
