<svg width="51" height="36" viewBox="0 0 51 36" fill="none" xmlns="http://www.w3.org/2000/svg">
<path d="M43.6509 12.6181C44.0995 10.6279 43.5454 8.28206 40.7832 5.7355C36.2934 9.79968 37.577 14.0256 39.0625 16.0594C39.0625 16.0594 38.8721 17.2065 34.4741 17.2065C30.0762 17.2065 0.0611381 17.2065 0.0611381 17.2065C0.0611381 17.2065 -2.0415 35.5601 18.4147 35.5601C36.3015 35.5601 41.3258 21.7915 42.3065 18.2664C42.7126 18.3215 43.168 18.357 43.6509 18.3536C46.1138 18.3341 49.3061 17.0103 50.5335 12.0629C47.2781 10.9353 45.1869 11.4458 43.6509 12.6181Z" fill="#03A9F4"/>
<path d="M0.250409 21.7949C1.09353 27.231 4.63004 35.5601 18.4147 35.5601C32.3922 35.5601 38.5154 27.1519 40.992 21.7949H0.250409Z" fill="#0288D1"/>
<path d="M20.4933 35.489C19.438 35.1196 14.6752 34.2386 13.8263 27.5304C8.9982 29.6674 4.72066 29.1077 2.83827 28.6867C5.3183 32.3907 9.91587 35.5601 18.4147 35.5601C19.1294 35.5601 19.8188 35.5326 20.4933 35.489Z" fill="#81D4FA"/>
<path d="M18.4147 24.0891C17.8063 24.0891 17.2227 24.3308 16.7925 24.7611C16.3623 25.1913 16.1205 25.7748 16.1205 26.3833C16.1205 26.9918 16.3623 27.5753 16.7925 28.0055C17.2227 28.4358 17.8063 28.6775 18.4147 28.6775C19.0232 28.6775 19.6067 28.4358 20.037 28.0055C20.4672 27.5753 20.7089 26.9918 20.7089 26.3833C20.7089 25.7748 20.4672 25.1913 20.037 24.7611C19.6067 24.3308 19.0232 24.0891 18.4147 24.0891Z" fill="white"/>
<path d="M14.8748 28.2152C15.1317 28.7945 14.8977 29.5482 14.2898 29.7271C10.5032 30.8432 7.23969 30.9912 4.77228 30.9912C4.03355 30.2811 3.40264 29.5241 2.87268 28.7394C5.83793 28.7394 10.5697 28.6018 13.3618 27.6313C13.9605 27.4226 14.6178 27.6336 14.8748 28.2152ZM0.0611379 20.6478C0.0611379 20.6478 2.21195 20.7912 3.50244 19.5007C5.65325 21.437 10.3162 20.7487 11.5321 19.5007C12.7515 21.437 19.4907 21.078 20.7089 19.5007C22.1428 21.1502 28.3085 21.5081 29.8857 19.5007C30.4352 21.1766 37.7078 21.6504 39.0625 19.5007C40.2796 20.7487 44.8703 21.7238 47.449 19.5007C48.096 20.8635 50.5335 20.6478 50.5335 20.6478V21.7949H0.0611379M17.2676 26.3833C17.2676 27.0165 17.7815 27.5304 18.4147 27.5304C19.0479 27.5304 19.5618 27.0165 19.5618 26.3833C19.5618 25.7501 19.0479 25.2362 18.4147 25.2362C17.7815 25.2362 17.2676 25.7501 17.2676 26.3833Z" fill="#37474F"/>
<path d="M10.385 17.2065H4.64954V11.471H10.385V17.2065ZM21.856 11.471H16.1205V17.2065H21.856V11.471ZM33.327 11.471H27.5915V17.2065H33.327V11.471ZM16.1205 5.7355H10.385V11.471H16.1205V5.7355ZM27.5915 5.7355H21.856V11.471H27.5915V5.7355Z" fill="#01579B"/>
<path d="M16.1205 17.2065H10.385V11.471H16.1205V17.2065ZM27.5915 11.471H21.856V17.2065H27.5915V11.471ZM27.5915 0H21.856V5.7355H27.5915V0ZM21.856 5.7355H16.1205V11.471H21.856V5.7355Z" fill="#0288D1"/>
</svg>
