<svg width="29" height="36" viewBox="0 0 29 36" fill="none" xmlns="http://www.w3.org/2000/svg">
<path d="M28.1455 0.413422C28.0179 0.256141 27.8344 0.167114 27.643 0.167114H1.04857C0.857127 0.167114 0.673662 0.256141 0.546034 0.413422C0.415747 0.570702 0.351934 0.781399 0.370546 0.995064L2.76622 30.9467C2.79015 31.2612 2.98691 31.5224 3.25812 31.6114L14.157 35.0834C14.2155 35.1042 14.2793 35.1131 14.3431 35.1131C14.4069 35.1131 14.4681 35.1042 14.5292 35.0834L25.4361 31.6114C25.7073 31.5224 25.9014 31.2612 25.928 30.9467L28.321 0.995064C28.3396 0.781399 28.2758 0.570702 28.1455 0.413422ZM22.5036 9.57122C22.4508 10.2332 21.9538 10.7405 21.3584 10.7405H10.8607C10.1858 10.7405 9.656 11.3863 9.71534 12.1366L9.81815 13.4368C9.87054 14.0992 10.3677 14.6073 10.9635 14.6073H20.8447C21.5201 14.6073 22.05 15.2539 21.99 16.0047L21.2563 25.1718C21.2145 25.6936 20.8928 26.1346 20.4436 26.2861L14.4073 28.3216C14.3637 28.3362 14.3173 28.3358 14.274 28.3204L8.25046 26.2837C7.8013 26.1319 7.47992 25.6906 7.43851 25.1688L7.24832 22.7728C7.18875 22.0223 7.71857 21.3763 8.39363 21.3763H9.555C10.0634 21.3763 10.4876 21.8096 10.5325 22.3747C10.5706 22.8551 10.8858 23.2511 11.3088 23.3499L14.1425 24.0123C14.2993 24.0489 14.4613 24.0486 14.618 24.0113L17.2659 23.3809C17.7588 23.2635 18.1258 22.8016 18.1711 22.2414L18.3777 19.6918C18.4386 18.9405 17.9085 18.293 17.2326 18.293H7.94173C7.34642 18.293 6.84954 17.7858 6.79651 17.124L6.10083 8.44352C6.04065 7.69265 6.5706 7.04592 7.24605 7.04592H21.4485C22.1238 7.04592 22.6537 7.69241 22.5938 8.44315L22.5036 9.57122Z" fill="#FC490B"/>
</svg>
