<svg width="35" height="35" viewBox="0 0 35 35" fill="none" xmlns="http://www.w3.org/2000/svg">
<path d="M0.999998 34.946C0.447713 34.946 0 34.4983 0 33.946V0.999998C0 0.447713 0.447715 0 1 0H33.946C34.4983 0 34.946 0.447715 34.946 1V33.946C34.946 34.4983 34.4983 34.946 33.946 34.946H0.999998Z" fill="#FFD600"/>
<path d="M21.9867 26.7304C22.458 26.4175 23.0809 26.5682 23.4246 27.0174C23.9777 27.7402 24.6708 28.2946 25.7969 28.2946C27.0958 28.2946 27.7772 27.6491 27.7772 26.756C27.7772 25.6872 27.0725 25.3077 25.6436 24.6855L24.8602 24.3515C22.5994 23.3925 21.0957 22.1907 21.0957 19.6523C21.0957 17.3128 22.8867 15.5325 25.6853 15.5325C27.357 15.5325 28.6339 16.0182 29.6117 17.2415C29.9445 17.6579 29.7902 18.2556 29.3411 18.5427L28.5958 19.0191C28.1111 19.3289 27.4928 19.1339 27.067 18.747C26.6865 18.4013 26.2484 18.2535 25.6853 18.2535C24.767 18.2535 24.1855 18.833 24.1855 19.5901C24.1855 20.5259 24.768 20.9045 26.1124 21.484L26.8958 21.8179C29.5604 22.9527 31.0631 24.1118 31.0631 26.7172C31.0631 29.5245 28.846 31.0631 25.8697 31.0631C23.3839 31.0631 21.8153 29.9979 20.8371 28.5607C20.5514 28.1409 20.7043 27.5818 21.1273 27.301L21.9867 26.7304ZM10.7144 26.7809C11.1988 26.4845 11.8174 26.6703 12.2197 27.0712C12.6601 27.51 13.2181 27.7937 13.9134 27.7937C14.9404 27.7937 15.5316 27.3879 15.5316 25.8105V16.5315C15.5316 15.9793 15.9793 15.5315 16.5316 15.5315H17.767C18.3193 15.5315 18.767 15.9793 18.767 16.5315V26.3075C18.767 29.576 16.8711 31.0631 14.1026 31.0631C12.01 31.0631 10.4044 29.877 9.50466 28.5675C9.21641 28.148 9.38792 27.5928 9.82206 27.3271L10.7144 26.7809Z" fill="#000001"/>
</svg>
