<svg width="100%" height="100%" viewBox="0 0 1440 768" fill="none" xmlns="http://www.w3.org/2000/svg">
<g clip-path="url(#clip0_246_42)">
<path d="M-12.0895 253.165C-12.0895 242.99 -10.1818 235.137 -6.36618 229.606C-2.52102 224.075 2.71431 221.309 9.33981 221.309C16.2019 221.309 21.4816 224.178 25.1789 229.916C28.8762 235.655 30.7248 243.404 30.7248 253.165C30.7248 263.281 28.817 271.119 25.0014 276.679C21.1859 282.211 15.9653 284.976 9.33981 284.976C2.41853 284.976 -2.89075 282.092 -6.58802 276.324C-10.2557 270.557 -12.0895 262.837 -12.0895 253.165ZM-3.03864 253.165C-3.03864 261.979 -1.97383 268.294 0.1558 272.11C2.28543 275.896 5.34676 277.789 9.33981 277.789C13.3329 277.789 16.3942 275.881 18.5238 272.065C20.6535 268.25 21.7183 261.949 21.7183 253.165C21.7183 244.232 20.6387 237.888 18.4795 234.131C16.3203 230.375 13.2737 228.497 9.33981 228.497C4.90309 228.497 1.72344 230.641 -0.199138 234.93C-2.09214 239.189 -3.03864 245.267 -3.03864 253.165ZM55.4817 276.502V229.783H47.0519V222.374H63.9115V276.502H71.9419V284H47.0519V276.502H55.4817ZM104.729 276.502V229.783H96.2995V222.374H113.159V276.502H121.19V284H96.2995V276.502H104.729ZM153.977 276.502V229.783H145.547V222.374H162.407V276.502H170.437V284H145.547V276.502H153.977ZM184.901 253.165C184.901 242.99 186.809 235.137 190.624 229.606C194.469 224.075 199.705 221.309 206.33 221.309C213.192 221.309 218.472 224.178 222.169 229.916C225.867 235.655 227.715 243.404 227.715 253.165C227.715 263.281 225.807 271.119 221.992 276.679C218.176 282.211 212.956 284.976 206.33 284.976C199.409 284.976 194.1 282.092 190.402 276.324C186.735 270.557 184.901 262.837 184.901 253.165ZM193.952 253.165C193.952 261.979 195.017 268.294 197.146 272.11C199.276 275.896 202.337 277.789 206.33 277.789C210.323 277.789 213.385 275.881 215.514 272.065C217.644 268.25 218.709 261.949 218.709 253.165C218.709 244.232 217.629 237.888 215.47 234.131C213.311 230.375 210.264 228.497 206.33 228.497C201.894 228.497 198.714 230.641 196.791 234.93C194.898 239.189 193.952 245.267 193.952 253.165ZM234.148 253.165C234.148 242.99 236.056 235.137 239.872 229.606C243.717 224.075 248.952 221.309 255.578 221.309C262.44 221.309 267.72 224.178 271.417 229.916C275.114 235.655 276.963 243.404 276.963 253.165C276.963 263.281 275.055 271.119 271.239 276.679C267.424 282.211 262.203 284.976 255.578 284.976C248.657 284.976 243.347 282.092 239.65 276.324C235.982 270.557 234.148 262.837 234.148 253.165ZM243.199 253.165C243.199 261.979 244.264 268.294 246.394 272.11C248.523 275.896 251.585 277.789 255.578 277.789C259.571 277.789 262.632 275.881 264.762 272.065C266.891 268.25 267.956 261.949 267.956 253.165C267.956 244.232 266.877 237.888 264.717 234.131C262.558 230.375 259.512 228.497 255.578 228.497C251.141 228.497 247.961 230.641 246.039 234.93C244.146 239.189 243.199 245.267 243.199 253.165ZM301.72 276.502V229.783H293.29V222.374H310.149V276.502H318.18V284H293.29V276.502H301.72ZM350.967 276.502V229.783H342.538V222.374H359.397V276.502H367.428V284H342.538V276.502H350.967Z" fill="#990DCE" fill-opacity="0.25"/>
<path d="M484.835 3.19444C495.01 3.19444 502.863 5.10224 508.394 8.91782C513.925 12.763 516.691 17.9983 516.691 24.6238C516.691 31.4859 513.822 36.7656 508.084 40.4629C502.345 44.1602 494.596 46.0088 484.835 46.0088C474.719 46.0088 466.881 44.101 461.321 40.2854C455.789 36.4698 453.024 31.2493 453.024 24.6238C453.024 17.7025 455.908 12.3932 461.676 8.69598C467.443 5.02829 475.163 3.19444 484.835 3.19444ZM484.835 12.2454C476.021 12.2454 469.706 13.3102 465.89 15.4398C462.104 17.5694 460.211 20.6308 460.211 24.6238C460.211 28.6169 462.119 31.6782 465.935 33.8078C469.75 35.9374 476.051 37.0023 484.835 37.0023C493.768 37.0023 500.112 35.9227 503.869 33.7635C507.625 31.6042 509.503 28.5577 509.503 24.6238C509.503 20.1871 507.359 17.0074 503.07 15.0849C498.811 13.1919 492.733 12.2454 484.835 12.2454ZM461.498 70.7657L508.217 70.7657L508.217 62.3359L515.626 62.3359L515.626 79.1955L461.498 79.1955L461.498 87.2259L454 87.2259L454 62.3359L461.498 62.3359L461.498 70.7657ZM461.498 120.013L508.217 120.013L508.217 111.584L515.626 111.584L515.626 128.443L461.498 128.443L461.498 136.474L454 136.474L454 111.584L461.498 111.584L461.498 120.013ZM484.835 150.937C495.01 150.937 502.863 152.845 508.394 156.661C513.925 160.506 516.691 165.741 516.691 172.367C516.691 179.229 513.822 184.508 508.084 188.206C502.345 191.903 494.596 193.752 484.835 193.752C474.719 193.752 466.881 191.844 461.321 188.028C455.789 184.213 453.024 178.992 453.024 172.367C453.024 165.445 455.908 160.136 461.676 156.439C467.443 152.771 475.163 150.937 484.835 150.937ZM484.835 159.988C476.021 159.988 469.706 161.053 465.89 163.183C462.104 165.312 460.211 168.374 460.211 172.367C460.211 176.36 462.119 179.421 465.935 181.551C469.75 183.68 476.05 184.745 484.835 184.745C493.768 184.745 500.112 183.665 503.869 181.506C507.625 179.347 509.503 176.3 509.503 172.367C509.503 167.93 507.359 164.75 503.07 162.828C498.811 160.935 492.733 159.988 484.835 159.988ZM461.498 218.509L508.217 218.509L508.217 210.079L515.626 210.079L515.626 226.938L461.498 226.938L461.498 234.969L454 234.969L454 210.079L461.498 210.079L461.498 218.509ZM461.498 267.756L508.217 267.756L508.217 259.326L515.626 259.326L515.626 276.186L461.498 276.186L461.498 284.216L454 284.216L454 259.326L461.498 259.326L461.498 267.756ZM461.498 317.004L508.217 317.004L508.217 308.574L515.626 308.574L515.626 325.433L461.498 325.433L461.498 333.464L454 333.464L454 308.574L461.498 308.574L461.498 317.004ZM461.498 366.251L508.217 366.251L508.217 357.822L515.626 357.822L515.626 374.681L461.498 374.681L461.498 382.712L454 382.712L454 357.822L461.498 357.822L461.498 366.251Z" fill="white" fill-opacity="0.02"/>
<path d="M129.194 546.165C129.194 535.99 131.102 528.137 134.918 522.606C138.763 517.075 143.998 514.309 150.624 514.309C157.486 514.309 162.766 517.178 166.463 522.916C170.16 528.655 172.009 536.404 172.009 546.165C172.009 556.281 170.101 564.119 166.285 569.679C162.47 575.211 157.249 577.976 150.624 577.976C143.703 577.976 138.393 575.092 134.696 569.324C131.028 563.557 129.194 555.837 129.194 546.165ZM138.245 546.165C138.245 554.979 139.31 561.294 141.44 565.11C143.569 568.896 146.631 570.789 150.624 570.789C154.617 570.789 157.678 568.881 159.808 565.065C161.937 561.25 163.002 554.949 163.002 546.165C163.002 537.232 161.923 530.888 159.763 527.131C157.604 523.375 154.558 521.497 150.624 521.497C146.187 521.497 143.007 523.641 141.085 527.93C139.192 532.189 138.245 538.267 138.245 546.165ZM196.766 569.502V522.783H188.336V515.374H205.195V569.502H213.226V577H188.336V569.502H196.766ZM246.013 569.502V522.783H237.584V515.374H254.443V569.502H262.474V577H237.584V569.502H246.013ZM295.261 569.502V522.783H286.831V515.374H303.691V569.502H311.721V577H286.831V569.502H295.261ZM326.185 546.165C326.185 535.99 328.093 528.137 331.908 522.606C335.753 517.075 340.989 514.309 347.614 514.309C354.476 514.309 359.756 517.178 363.453 522.916C367.151 528.655 368.999 536.404 368.999 546.165C368.999 556.281 367.091 564.119 363.276 569.679C359.46 575.211 354.24 577.976 347.614 577.976C340.693 577.976 335.384 575.092 331.686 569.324C328.019 563.557 326.185 555.837 326.185 546.165ZM335.236 546.165C335.236 554.979 336.301 561.294 338.43 565.11C340.56 568.896 343.621 570.789 347.614 570.789C351.607 570.789 354.669 568.881 356.798 565.065C358.928 561.25 359.993 554.949 359.993 546.165C359.993 537.232 358.913 530.888 356.754 527.131C354.595 523.375 351.548 521.497 347.614 521.497C343.177 521.497 339.998 523.641 338.075 527.93C336.182 532.189 335.236 538.267 335.236 546.165ZM375.432 546.165C375.432 535.99 377.34 528.137 381.156 522.606C385.001 517.075 390.236 514.309 396.862 514.309C403.724 514.309 409.004 517.178 412.701 522.916C416.398 528.655 418.247 536.404 418.247 546.165C418.247 556.281 416.339 564.119 412.523 569.679C408.708 575.211 403.487 577.976 396.862 577.976C389.941 577.976 384.631 575.092 380.934 569.324C377.266 563.557 375.432 555.837 375.432 546.165ZM384.483 546.165C384.483 554.979 385.548 561.294 387.678 565.11C389.807 568.896 392.869 570.789 396.862 570.789C400.855 570.789 403.916 568.881 406.046 565.065C408.175 561.25 409.24 554.949 409.24 546.165C409.24 537.232 408.161 530.888 406.001 527.131C403.842 523.375 400.796 521.497 396.862 521.497C392.425 521.497 389.245 523.641 387.323 527.93C385.43 532.189 384.483 538.267 384.483 546.165ZM424.68 546.165C424.68 535.99 426.588 528.137 430.403 522.606C434.249 517.075 439.484 514.309 446.109 514.309C452.972 514.309 458.251 517.178 461.948 522.916C465.646 528.655 467.494 536.404 467.494 546.165C467.494 556.281 465.587 564.119 461.771 569.679C457.955 575.211 452.735 577.976 446.109 577.976C439.188 577.976 433.879 575.092 430.182 569.324C426.514 563.557 424.68 555.837 424.68 546.165ZM433.731 546.165C433.731 554.979 434.796 561.294 436.925 565.11C439.055 568.896 442.116 570.789 446.109 570.789C450.102 570.789 453.164 568.881 455.293 565.065C457.423 561.25 458.488 554.949 458.488 546.165C458.488 537.232 457.408 530.888 455.249 527.131C453.09 523.375 450.043 521.497 446.109 521.497C441.673 521.497 438.493 523.641 436.57 527.93C434.677 532.189 433.731 538.267 433.731 546.165ZM473.928 546.165C473.928 535.99 475.835 528.137 479.651 522.606C483.496 517.075 488.732 514.309 495.357 514.309C502.219 514.309 507.499 517.178 511.196 522.916C514.893 528.655 516.742 536.404 516.742 546.165C516.742 556.281 514.834 564.119 511.019 569.679C507.203 575.211 501.983 577.976 495.357 577.976C488.436 577.976 483.126 575.092 479.429 569.324C475.761 563.557 473.928 555.837 473.928 546.165ZM482.979 546.165C482.979 554.979 484.043 561.294 486.173 565.11C488.303 568.896 491.364 570.789 495.357 570.789C499.35 570.789 502.411 568.881 504.541 565.065C506.671 561.25 507.735 554.949 507.735 546.165C507.735 537.232 506.656 530.888 504.497 527.131C502.337 523.375 499.291 521.497 495.357 521.497C490.92 521.497 487.741 523.641 485.818 527.93C483.925 532.189 482.979 538.267 482.979 546.165Z" fill="#D7FF01" fill-opacity="0.25"/>
<path d="M764.165 695.806C753.99 695.806 746.137 693.898 740.606 690.082C735.075 686.237 732.309 681.002 732.309 674.376C732.309 667.514 735.178 662.234 740.916 658.537C746.655 654.84 754.404 652.991 764.165 652.991C774.281 652.991 782.119 654.899 787.679 658.715C793.211 662.53 795.976 667.751 795.976 674.376C795.976 681.297 793.092 686.607 787.324 690.304C781.557 693.972 773.837 695.806 764.165 695.806ZM764.165 686.755C772.979 686.755 779.294 685.69 783.11 683.56C786.896 681.431 788.789 678.369 788.789 674.376C788.789 670.383 786.881 667.322 783.065 665.192C779.25 663.063 772.949 661.998 764.165 661.998C755.232 661.998 748.888 663.077 745.131 665.237C741.375 667.396 739.497 670.442 739.497 674.376C739.497 678.813 741.641 681.993 745.93 683.915C750.189 685.808 756.267 686.755 764.165 686.755ZM787.502 628.234L740.783 628.234L740.783 636.664L733.374 636.664L733.374 619.805L787.502 619.805L787.502 611.774L795 611.774L795 636.664L787.502 636.664L787.502 628.234ZM787.502 578.987L740.783 578.987L740.783 587.416L733.374 587.416L733.374 570.557L787.502 570.557L787.502 562.526L795 562.526L795 587.416L787.502 587.416L787.502 578.987ZM764.165 548.063C753.99 548.063 746.137 546.155 740.606 542.339C735.075 538.494 732.309 533.259 732.309 526.633C732.309 519.771 735.178 514.492 740.916 510.794C746.655 507.097 754.404 505.248 764.165 505.248C774.281 505.248 782.119 507.156 787.679 510.972C793.211 514.787 795.976 520.008 795.976 526.633C795.976 533.555 793.092 538.864 787.324 542.561C781.557 546.229 773.837 548.063 764.165 548.063ZM764.165 539.012C772.979 539.012 779.294 537.947 783.11 535.817C786.896 533.688 788.789 530.626 788.789 526.633C788.789 522.64 786.881 519.579 783.065 517.449C779.25 515.32 772.949 514.255 764.165 514.255C755.232 514.255 748.888 515.335 745.131 517.494C741.375 519.653 739.497 522.7 739.497 526.633C739.497 531.07 741.641 534.25 745.93 536.172C750.189 538.065 756.267 539.012 764.165 539.012ZM787.502 480.491L740.783 480.491L740.783 488.921L733.374 488.921L733.374 472.062L787.502 472.062L787.502 464.031L795 464.031L795 488.921L787.502 488.921L787.502 480.491ZM764.165 449.568C753.99 449.568 746.137 447.66 740.606 443.844C735.075 439.999 732.309 434.764 732.309 428.138C732.309 421.276 735.178 415.996 740.916 412.299C746.655 408.602 754.404 406.753 764.165 406.753C774.281 406.753 782.119 408.661 787.679 412.477C793.211 416.292 795.976 421.513 795.976 428.138C795.976 435.059 793.092 440.369 787.324 444.066C781.557 447.734 773.837 449.568 764.165 449.568ZM764.165 440.517C772.979 440.517 779.294 439.452 783.11 437.322C786.896 435.193 788.789 432.131 788.789 428.138C788.789 424.145 786.881 421.084 783.065 418.954C779.25 416.825 772.949 415.76 764.165 415.76C755.232 415.76 748.888 416.839 745.131 418.999C741.375 421.158 739.497 424.204 739.497 428.138C739.497 432.575 741.641 435.755 745.93 437.677C750.189 439.57 756.267 440.517 764.165 440.517ZM764.165 400.32C753.99 400.32 746.137 398.412 740.606 394.597C735.075 390.751 732.309 385.516 732.309 378.891C732.309 372.028 735.178 366.749 740.916 363.052C746.655 359.354 754.404 357.506 764.165 357.506C774.28 357.506 782.119 359.413 787.679 363.229C793.211 367.045 795.976 372.265 795.976 378.891C795.976 385.812 793.092 391.121 787.324 394.818C781.557 398.486 773.837 400.32 764.165 400.32ZM764.165 391.269C772.979 391.269 779.294 390.204 783.11 388.075C786.896 385.945 788.789 382.884 788.789 378.891C788.789 374.898 786.881 371.836 783.065 369.707C779.25 367.577 772.949 366.512 764.165 366.512C755.232 366.512 748.888 367.592 745.131 369.751C741.375 371.91 739.497 374.957 739.497 378.891C739.497 383.327 741.641 386.507 745.93 388.43C750.189 390.323 756.267 391.269 764.165 391.269ZM787.502 332.749L740.783 332.749L740.783 341.178L733.374 341.178L733.374 324.319L787.502 324.319L787.502 316.288L795 316.288L795 341.178L787.502 341.178L787.502 332.749Z" fill="white" fill-opacity="0.02"/>
<path d="M877.194 396.165C877.194 385.99 879.102 378.137 882.918 372.606C886.763 367.075 891.998 364.309 898.624 364.309C905.486 364.309 910.766 367.178 914.463 372.916C918.16 378.655 920.009 386.404 920.009 396.165C920.009 406.281 918.101 414.119 914.285 419.679C910.47 425.211 905.249 427.976 898.624 427.976C891.703 427.976 886.393 425.092 882.696 419.324C879.028 413.557 877.194 405.837 877.194 396.165ZM886.245 396.165C886.245 404.979 887.31 411.294 889.44 415.11C891.569 418.896 894.631 420.789 898.624 420.789C902.617 420.789 905.678 418.881 907.808 415.065C909.937 411.25 911.002 404.949 911.002 396.165C911.002 387.232 909.923 380.888 907.763 377.131C905.604 373.375 902.558 371.497 898.624 371.497C894.187 371.497 891.007 373.641 889.085 377.93C887.192 382.189 886.245 388.267 886.245 396.165ZM944.766 419.502V372.783H936.336V365.374H953.195V419.502H961.226V427H936.336V419.502H944.766ZM994.013 419.502V372.783H985.584V365.374H1002.44V419.502H1010.47V427H985.584V419.502H994.013ZM1024.94 396.165C1024.94 385.99 1026.85 378.137 1030.66 372.606C1034.51 367.075 1039.74 364.309 1046.37 364.309C1053.23 364.309 1058.51 367.178 1062.21 372.916C1065.9 378.655 1067.75 386.404 1067.75 396.165C1067.75 406.281 1065.84 414.119 1062.03 419.679C1058.21 425.211 1052.99 427.976 1046.37 427.976C1039.45 427.976 1034.14 425.092 1030.44 419.324C1026.77 413.557 1024.94 405.837 1024.94 396.165ZM1033.99 396.165C1033.99 404.979 1035.05 411.294 1037.18 415.11C1039.31 418.896 1042.37 420.789 1046.37 420.789C1050.36 420.789 1053.42 418.881 1055.55 415.065C1057.68 411.25 1058.75 404.949 1058.75 396.165C1058.75 387.232 1057.67 380.888 1055.51 377.131C1053.35 373.375 1050.3 371.497 1046.37 371.497C1041.93 371.497 1038.75 373.641 1036.83 377.93C1034.93 382.189 1033.99 388.267 1033.99 396.165ZM1092.51 419.502V372.783H1084.08V365.374H1100.94V419.502H1108.97V427L1084.08 427V419.502L1092.51 419.502ZM1141.76 419.502V372.783H1133.33V365.374H1150.19V419.502H1158.22V427H1133.33V419.502H1141.76ZM1191 419.502V372.783H1182.57V365.374H1199.43V419.502H1207.46V427H1182.57V419.502H1191ZM1221.93 396.165C1221.93 385.99 1223.84 378.137 1227.65 372.606C1231.5 367.075 1236.73 364.309 1243.36 364.309C1250.22 364.309 1255.5 367.178 1259.2 372.916C1262.89 378.655 1264.74 386.404 1264.74 396.165C1264.74 406.281 1262.83 414.119 1259.02 419.679C1255.2 425.211 1249.98 427.976 1243.36 427.976C1236.44 427.976 1231.13 425.092 1227.43 419.324C1223.76 413.557 1221.93 405.837 1221.93 396.165ZM1230.98 396.165C1230.98 404.979 1232.04 411.294 1234.17 415.11C1236.3 418.896 1239.36 420.789 1243.36 420.789C1247.35 420.789 1250.41 418.881 1252.54 415.065C1254.67 411.25 1255.74 404.949 1255.74 396.165C1255.74 387.232 1254.66 380.888 1252.5 377.131C1250.34 373.375 1247.29 371.497 1243.36 371.497C1238.92 371.497 1235.74 373.641 1233.82 377.93C1231.93 382.189 1230.98 388.267 1230.98 396.165Z" fill="#990DCE" fill-opacity="0.25"/>
<path d="M1425.16 518.09C1414.99 518.09 1407.14 516.182 1401.61 512.366C1396.07 508.521 1393.31 503.286 1393.31 496.66C1393.31 489.798 1396.18 484.518 1401.92 480.821C1407.65 477.124 1415.4 475.275 1425.16 475.275C1435.28 475.275 1443.12 477.183 1448.68 480.999C1454.21 484.814 1456.98 490.035 1456.98 496.66C1456.98 503.581 1454.09 508.891 1448.32 512.588C1442.56 516.256 1434.84 518.09 1425.16 518.09ZM1425.16 509.039C1433.98 509.039 1440.29 507.974 1444.11 505.844C1447.9 503.715 1449.79 500.653 1449.79 496.66C1449.79 492.667 1447.88 489.606 1444.07 487.476C1440.25 485.347 1433.95 484.282 1425.16 484.282C1416.23 484.282 1409.89 485.361 1406.13 487.521C1402.37 489.68 1400.5 492.726 1400.5 496.66C1400.5 501.097 1402.64 504.277 1406.93 506.199C1411.19 508.092 1417.27 509.039 1425.16 509.039ZM1448.5 450.518L1401.78 450.518L1401.78 458.948L1394.37 458.948L1394.37 442.089L1448.5 442.089L1448.5 434.058L1456 434.058L1456 458.948L1448.5 458.948L1448.5 450.518ZM1448.5 401.271L1401.78 401.271L1401.78 409.7L1394.37 409.7L1394.37 392.841L1448.5 392.841L1448.5 384.81L1456 384.81L1456 409.7L1448.5 409.7L1448.5 401.271ZM1425.16 370.347C1414.99 370.347 1407.14 368.439 1401.61 364.623C1396.07 360.778 1393.31 355.543 1393.31 348.917C1393.31 342.055 1396.18 336.776 1401.92 333.078C1407.65 329.381 1415.4 327.532 1425.16 327.532C1435.28 327.532 1443.12 329.44 1448.68 333.256C1454.21 337.071 1456.98 342.292 1456.98 348.917C1456.98 355.839 1454.09 361.148 1448.32 364.845C1442.56 368.513 1434.84 370.347 1425.16 370.347ZM1425.16 361.296C1433.98 361.296 1440.29 360.231 1444.11 358.101C1447.9 355.972 1449.79 352.91 1449.79 348.917C1449.79 344.924 1447.88 341.863 1444.07 339.733C1440.25 337.604 1433.95 336.539 1425.16 336.539C1416.23 336.539 1409.89 337.619 1406.13 339.778C1402.37 341.937 1400.5 344.983 1400.5 348.917C1400.5 353.354 1402.64 356.534 1406.93 358.456C1411.19 360.349 1417.27 361.296 1425.16 361.296ZM1448.5 302.775L1401.78 302.775L1401.78 311.205L1394.37 311.205L1394.37 294.346L1448.5 294.346L1448.5 286.315L1456 286.315L1456 311.205L1448.5 311.205L1448.5 302.775ZM1425.16 271.852C1414.99 271.852 1407.14 269.944 1401.61 266.128C1396.07 262.283 1393.31 257.048 1393.31 250.422C1393.31 243.56 1396.18 238.28 1401.92 234.583C1407.65 230.886 1415.4 229.037 1425.16 229.037C1435.28 229.037 1443.12 230.945 1448.68 234.761C1454.21 238.576 1456.98 243.797 1456.98 250.422C1456.98 257.343 1454.09 262.653 1448.32 266.35C1442.56 270.018 1434.84 271.852 1425.16 271.852ZM1425.16 262.801C1433.98 262.801 1440.29 261.736 1444.11 259.606C1447.9 257.477 1449.79 254.415 1449.79 250.422C1449.79 246.429 1447.88 243.368 1444.07 241.238C1440.25 239.109 1433.95 238.044 1425.16 238.044C1416.23 238.044 1409.89 239.123 1406.13 241.283C1402.37 243.442 1400.5 246.488 1400.5 250.422C1400.5 254.859 1402.64 258.039 1406.93 259.961C1411.19 261.854 1417.27 262.801 1425.16 262.801ZM1425.16 222.604C1414.99 222.604 1407.14 220.696 1401.61 216.881C1396.07 213.035 1393.31 207.8 1393.31 201.175C1393.31 194.312 1396.18 189.033 1401.92 185.336C1407.65 181.638 1415.4 179.79 1425.16 179.79C1435.28 179.79 1443.12 181.697 1448.68 185.513C1454.21 189.329 1456.98 194.549 1456.98 201.175C1456.98 208.096 1454.09 213.405 1448.32 217.102C1442.56 220.77 1434.84 222.604 1425.16 222.604ZM1425.16 213.553C1433.98 213.553 1440.29 212.488 1444.11 210.359C1447.9 208.229 1449.79 205.168 1449.79 201.175C1449.79 197.182 1447.88 194.12 1444.07 191.991C1440.25 189.861 1433.95 188.796 1425.16 188.796C1416.23 188.796 1409.89 189.876 1406.13 192.035C1402.37 194.194 1400.5 197.241 1400.5 201.175C1400.5 205.611 1402.64 208.791 1406.93 210.714C1411.19 212.607 1417.27 213.553 1425.16 213.553ZM1425.16 173.356C1414.99 173.356 1407.14 171.449 1401.61 167.633C1396.07 163.788 1393.31 158.552 1393.31 151.927C1393.31 145.065 1396.18 139.785 1401.92 136.088C1407.65 132.391 1415.4 130.542 1425.16 130.542C1435.28 130.542 1443.12 132.45 1448.68 136.265C1454.21 140.081 1456.98 145.301 1456.98 151.927C1456.98 158.848 1454.09 164.158 1448.32 167.855C1442.56 171.522 1434.84 173.356 1425.16 173.356ZM1425.16 164.305C1433.98 164.305 1440.29 163.241 1444.11 161.111C1447.9 158.981 1449.79 155.92 1449.79 151.927C1449.79 147.934 1447.88 144.873 1444.07 142.743C1440.25 140.613 1433.95 139.549 1425.16 139.549C1416.23 139.549 1409.89 140.628 1406.13 142.787C1402.37 144.947 1400.5 147.993 1400.5 151.927C1400.5 156.364 1402.64 159.543 1406.93 161.466C1411.19 163.359 1417.27 164.305 1425.16 164.305Z" fill="white" fill-opacity="0.02"/>
<path d="M712.194 93.1648C712.194 82.9899 714.102 75.1369 717.918 69.6058C721.763 64.0747 726.998 61.3091 733.624 61.3091C740.486 61.3091 745.766 64.1782 749.463 69.9164C753.16 75.6545 755.009 83.404 755.009 93.1648C755.009 103.281 753.101 111.119 749.285 116.679C745.47 122.211 740.249 124.976 733.624 124.976C726.703 124.976 721.393 122.092 717.696 116.324C714.028 110.557 712.194 102.837 712.194 93.1648ZM721.245 93.1648C721.245 101.979 722.31 108.294 724.44 112.11C726.569 115.896 729.631 117.789 733.624 117.789C737.617 117.789 740.678 115.881 742.808 112.065C744.937 108.25 746.002 101.95 746.002 93.1648C746.002 84.2322 744.923 77.8877 742.763 74.1313C740.604 70.3748 737.558 68.4966 733.624 68.4966C729.187 68.4966 726.007 70.641 724.085 74.9299C722.192 79.1891 721.245 85.2674 721.245 93.1648ZM779.766 116.502V69.7833H771.336V62.374H788.195V116.502H796.226V124H771.336V116.502H779.766ZM829.013 116.502V69.7833H820.584V62.374H837.443V116.502H845.474V124H820.584V116.502H829.013ZM859.937 93.1648C859.937 82.9899 861.845 75.1369 865.661 69.6058C869.506 64.0747 874.741 61.3091 881.367 61.3091C888.229 61.3091 893.508 64.1782 897.206 69.9164C900.903 75.6545 902.752 83.404 902.752 93.1648C902.752 103.281 900.844 111.119 897.028 116.679C893.213 122.211 887.992 124.976 881.367 124.976C874.445 124.976 869.136 122.092 865.439 116.324C861.771 110.557 859.937 102.837 859.937 93.1648ZM868.988 93.1648C868.988 101.979 870.053 108.294 872.183 112.11C874.312 115.896 877.374 117.789 881.367 117.789C885.36 117.789 888.421 115.881 890.551 112.065C892.68 108.25 893.745 101.95 893.745 93.1648C893.745 84.2322 892.665 77.8877 890.506 74.1313C888.347 70.3748 885.3 68.4966 881.367 68.4966C876.93 68.4966 873.75 70.641 871.828 74.9299C869.935 79.1891 868.988 85.2674 868.988 93.1648ZM909.185 93.1648C909.185 82.9899 911.093 75.1369 914.908 69.6058C918.753 64.0747 923.989 61.3091 930.614 61.3091C937.476 61.3091 942.756 64.1782 946.453 69.9164C950.151 75.6545 951.999 83.404 951.999 93.1648C951.999 103.281 950.091 111.119 946.276 116.679C942.46 122.211 937.24 124.976 930.614 124.976C923.693 124.976 918.384 122.092 914.686 116.324C911.019 110.557 909.185 102.837 909.185 93.1648ZM918.236 93.1648C918.236 101.979 919.301 108.294 921.43 112.11C923.56 115.896 926.621 117.789 930.614 117.789C934.607 117.789 937.669 115.881 939.798 112.065C941.928 108.25 942.993 101.95 942.993 93.1648C942.993 84.2322 941.913 77.8877 939.754 74.1313C937.595 70.3748 934.548 68.4966 930.614 68.4966C926.177 68.4966 922.998 70.641 921.075 74.9299C919.182 79.1891 918.236 85.2674 918.236 93.1648ZM958.432 93.1648C958.432 82.9899 960.34 75.1369 964.156 69.6058C968.001 64.0747 973.236 61.3091 979.862 61.3091C986.724 61.3091 992.004 64.1782 995.701 69.9164C999.398 75.6545 1001.25 83.404 1001.25 93.1648C1001.25 103.281 999.339 111.119 995.523 116.679C991.708 122.211 986.487 124.976 979.862 124.976C972.941 124.976 967.631 122.092 963.934 116.324C960.266 110.557 958.432 102.837 958.432 93.1648ZM967.483 93.1648C967.483 101.979 968.548 108.294 970.678 112.11C972.807 115.896 975.869 117.789 979.862 117.789C983.855 117.789 986.916 115.881 989.046 112.065C991.175 108.25 992.24 101.95 992.24 93.1648C992.24 84.2322 991.161 77.8877 989.001 74.1313C986.842 70.3748 983.796 68.4966 979.862 68.4966C975.425 68.4966 972.245 70.641 970.323 74.9299C968.43 79.1891 967.483 85.2674 967.483 93.1648ZM1007.68 93.1648C1007.68 82.9899 1009.59 75.1369 1013.4 69.6058C1017.25 64.0747 1022.48 61.3091 1029.11 61.3091C1035.97 61.3091 1041.25 64.1782 1044.95 69.9164C1048.65 75.6545 1050.49 83.404 1050.49 93.1648C1050.49 103.281 1048.59 111.119 1044.77 116.679C1040.96 122.211 1035.73 124.976 1029.11 124.976C1022.19 124.976 1016.88 122.092 1013.18 116.324C1009.51 110.557 1007.68 102.837 1007.68 93.1648ZM1016.73 93.1648C1016.73 101.979 1017.8 108.294 1019.93 112.11C1022.06 115.896 1025.12 117.789 1029.11 117.789C1033.1 117.789 1036.16 115.881 1038.29 112.065C1040.42 108.25 1041.49 101.95 1041.49 93.1648C1041.49 84.2322 1040.41 77.8877 1038.25 74.1313C1036.09 70.3748 1033.04 68.4966 1029.11 68.4966C1024.67 68.4966 1021.49 70.641 1019.57 74.9299C1017.68 79.1891 1016.73 85.2674 1016.73 93.1648ZM1075.25 116.502V69.7833H1066.82V62.374H1083.68V116.502H1091.71V124H1066.82V116.502H1075.25Z" fill="#D7FF01" fill-opacity="0.25"/>
<path d="M940.13 518.5H911.15V516.19H943.98L918.64 565.89H915.91L940.13 518.5ZM967.721 540.48C969.914 540.76 971.804 541.507 973.391 542.72C975.024 543.933 976.284 545.473 977.171 547.34C978.058 549.16 978.501 551.213 978.501 553.5C978.501 556.253 977.848 558.657 976.541 560.71C975.281 562.81 973.508 564.42 971.221 565.54C968.934 566.707 966.298 567.29 963.311 567.29C959.811 567.29 956.731 566.497 954.071 564.91C951.458 563.37 949.614 561.27 948.541 558.61L950.431 557.35C951.271 559.683 952.834 561.55 955.121 562.95C957.454 564.35 960.208 565.05 963.381 565.05C967.254 565.05 970.334 564 972.621 561.9C974.954 559.8 976.121 556.953 976.121 553.36C976.121 549.72 974.954 546.85 972.621 544.75C970.288 542.603 967.044 541.53 962.891 541.53H961.281V539.36H962.961C966.928 539.36 969.961 538.497 972.061 536.77C974.161 534.997 975.211 532.64 975.211 529.7C975.211 527.46 974.698 525.547 973.671 523.96C972.644 522.373 971.244 521.137 969.471 520.25C967.698 519.363 965.644 518.92 963.311 518.92C960.464 518.92 957.944 519.62 955.751 521.02C953.604 522.373 952.041 524.193 951.061 526.48L949.311 525.29C950.011 523.563 951.038 522.047 952.391 520.74C953.791 519.433 955.424 518.43 957.291 517.73C959.204 517.03 961.258 516.68 963.451 516.68C966.204 516.68 968.631 517.217 970.731 518.29C972.878 519.363 974.558 520.857 975.771 522.77C977.031 524.683 977.661 526.853 977.661 529.28C977.661 531.24 977.241 533.013 976.401 534.6C975.608 536.187 974.464 537.493 972.971 538.52C971.524 539.547 969.774 540.2 967.721 540.48Z" fill="white" fill-opacity="0.02"/>
<path d="M630.78 226.69C630.78 229.863 630.01 232.733 628.47 235.3C626.93 237.867 624.853 239.92 622.24 241.46C619.627 242.953 616.687 243.7 613.42 243.7C610.107 243.7 607.12 242.907 604.46 241.32C601.8 239.733 599.7 237.47 598.16 234.53C596.62 231.543 595.85 228.02 595.85 223.96C595.85 216.82 596.597 210.987 598.09 206.46C599.583 201.887 601.683 198.503 604.39 196.31C607.097 194.07 610.2 192.95 613.7 192.95C617.06 192.95 620.023 193.86 622.59 195.68C625.203 197.453 627.093 199.88 628.26 202.96L626.37 204.08C625.483 201.42 623.873 199.273 621.54 197.64C619.253 196.007 616.64 195.19 613.7 195.19C610.62 195.19 607.913 196.193 605.58 198.2C603.293 200.207 601.497 203.1 600.19 206.88C598.93 210.66 598.3 215.257 598.3 220.67C599 218.477 600.12 216.563 601.66 214.93C603.2 213.297 605.02 212.037 607.12 211.15C609.22 210.217 611.437 209.75 613.77 209.75C616.943 209.75 619.813 210.52 622.38 212.06C624.947 213.6 626.977 215.653 628.47 218.22C630.01 220.74 630.78 223.563 630.78 226.69ZM613.56 241.46C616.313 241.46 618.81 240.807 621.05 239.5C623.29 238.147 625.087 236.35 626.44 234.11C627.793 231.87 628.47 229.42 628.47 226.76C628.47 224.053 627.77 221.58 626.37 219.34C625.017 217.1 623.197 215.303 620.91 213.95C618.67 212.597 616.197 211.92 613.49 211.92C610.83 211.92 608.357 212.597 606.07 213.95C603.783 215.303 601.963 217.1 600.61 219.34C599.257 221.533 598.58 223.983 598.58 226.69C598.58 229.35 599.257 231.8 600.61 234.04C602.01 236.28 603.83 238.077 606.07 239.43C608.357 240.783 610.853 241.46 613.56 241.46ZM640.488 243V193.3H672.688V195.54H642.938V216.54H668.208V218.71H642.938V243H640.488Z" fill="white" fill-opacity="0.02"/>
<path d="M277.13 111.5H248.15V109.19H280.98L255.64 158.89H252.91L277.13 111.5ZM320.279 129.49C320.279 133.597 319.532 137.26 318.039 140.48C316.592 143.653 314.562 146.15 311.949 147.97C309.336 149.79 306.372 150.7 303.059 150.7C299.699 150.7 296.712 149.79 294.099 147.97C291.532 146.15 289.502 143.653 288.009 140.48C286.516 137.26 285.769 133.597 285.769 129.49C285.769 125.383 286.516 121.743 288.009 118.57C289.502 115.35 291.532 112.83 294.099 111.01C296.712 109.143 299.699 108.21 303.059 108.21C306.372 108.21 309.336 109.143 311.949 111.01C314.562 112.83 316.592 115.35 318.039 118.57C319.532 121.743 320.279 125.383 320.279 129.49ZM317.899 129.49C317.899 125.757 317.269 122.467 316.009 119.62C314.749 116.773 312.999 114.557 310.759 112.97C308.566 111.337 305.999 110.52 303.059 110.52C300.119 110.52 297.529 111.337 295.289 112.97C293.049 114.557 291.299 116.773 290.039 119.62C288.779 122.467 288.149 125.757 288.149 129.49C288.149 133.223 288.779 136.513 290.039 139.36C291.299 142.207 293.049 144.423 295.289 146.01C297.529 147.597 300.119 148.39 303.059 148.39C305.999 148.39 308.566 147.597 310.759 146.01C312.999 144.377 314.749 142.16 316.009 139.36C317.269 136.513 317.899 133.223 317.899 129.49Z" fill="white" fill-opacity="0.02"/>
<path d="M1330.78 623.69C1330.78 626.863 1330.01 629.733 1328.47 632.3C1326.93 634.867 1324.85 636.92 1322.24 638.46C1319.63 639.953 1316.69 640.7 1313.42 640.7C1310.11 640.7 1307.12 639.907 1304.46 638.32C1301.8 636.733 1299.7 634.47 1298.16 631.53C1296.62 628.543 1295.85 625.02 1295.85 620.96C1295.85 613.82 1296.6 607.987 1298.09 603.46C1299.58 598.887 1301.68 595.503 1304.39 593.31C1307.1 591.07 1310.2 589.95 1313.7 589.95C1317.06 589.95 1320.02 590.86 1322.59 592.68C1325.2 594.453 1327.09 596.88 1328.26 599.96L1326.37 601.08C1325.48 598.42 1323.87 596.273 1321.54 594.64C1319.25 593.007 1316.64 592.19 1313.7 592.19C1310.62 592.19 1307.91 593.193 1305.58 595.2C1303.29 597.207 1301.5 600.1 1300.19 603.88C1298.93 607.66 1298.3 612.257 1298.3 617.67C1299 615.477 1300.12 613.563 1301.66 611.93C1303.2 610.297 1305.02 609.037 1307.12 608.15C1309.22 607.217 1311.44 606.75 1313.77 606.75C1316.94 606.75 1319.81 607.52 1322.38 609.06C1324.95 610.6 1326.98 612.653 1328.47 615.22C1330.01 617.74 1330.78 620.563 1330.78 623.69ZM1313.56 638.46C1316.31 638.46 1318.81 637.807 1321.05 636.5C1323.29 635.147 1325.09 633.35 1326.44 631.11C1327.79 628.87 1328.47 626.42 1328.47 623.76C1328.47 621.053 1327.77 618.58 1326.37 616.34C1325.02 614.1 1323.2 612.303 1320.91 610.95C1318.67 609.597 1316.2 608.92 1313.49 608.92C1310.83 608.92 1308.36 609.597 1306.07 610.95C1303.78 612.303 1301.96 614.1 1300.61 616.34C1299.26 618.533 1298.58 620.983 1298.58 623.69C1298.58 626.35 1299.26 628.8 1300.61 631.04C1302.01 633.28 1303.83 635.077 1306.07 636.43C1308.36 637.783 1310.85 638.46 1313.56 638.46ZM1336.36 617.04C1336.36 613.867 1337.13 610.997 1338.67 608.43C1340.21 605.863 1342.28 603.833 1344.9 602.34C1347.56 600.8 1350.47 600.03 1353.65 600.03C1357.05 600.03 1360.06 600.823 1362.68 602.41C1365.34 603.997 1367.44 606.26 1368.98 609.2C1370.52 612.14 1371.29 615.663 1371.29 619.77C1371.29 626.863 1370.52 632.697 1368.98 637.27C1367.48 641.843 1365.38 645.227 1362.68 647.42C1360.02 649.66 1356.94 650.78 1353.44 650.78C1350.08 650.78 1347.09 649.87 1344.48 648.05C1341.86 646.277 1340 643.85 1338.88 640.77L1340.77 639.65C1341.65 642.31 1343.26 644.457 1345.6 646.09C1347.93 647.723 1350.52 648.54 1353.37 648.54C1356.49 648.54 1359.2 647.537 1361.49 645.53C1363.82 643.523 1365.62 640.63 1366.88 636.85C1368.18 633.07 1368.84 628.473 1368.84 623.06C1368.18 625.207 1367.06 627.12 1365.48 628.8C1363.94 630.433 1362.12 631.717 1360.02 632.65C1357.92 633.537 1355.68 633.98 1353.3 633.98C1350.17 633.98 1347.32 633.21 1344.76 631.67C1342.19 630.13 1340.14 628.1 1338.6 625.58C1337.1 623.013 1336.36 620.167 1336.36 617.04ZM1353.58 602.27C1350.87 602.27 1348.37 602.947 1346.09 604.3C1343.85 605.607 1342.05 607.38 1340.7 609.62C1339.34 611.813 1338.67 614.263 1338.67 616.97C1338.67 619.677 1339.34 622.15 1340.7 624.39C1342.1 626.63 1343.92 628.427 1346.16 629.78C1348.44 631.133 1350.92 631.81 1353.58 631.81C1356.33 631.81 1358.83 631.133 1361.07 629.78C1363.35 628.427 1365.17 626.63 1366.53 624.39C1367.88 622.15 1368.56 619.7 1368.56 617.04C1368.56 614.333 1367.86 611.86 1366.46 609.62C1365.1 607.38 1363.28 605.607 1361 604.3C1358.76 602.947 1356.28 602.27 1353.58 602.27Z" fill="white" fill-opacity="0.02"/>
<path d="M64.78 662.69C64.78 665.863 64.01 668.733 62.47 671.3C60.93 673.867 58.8533 675.92 56.24 677.46C53.6267 678.953 50.6867 679.7 47.42 679.7C44.1067 679.7 41.12 678.907 38.46 677.32C35.8 675.733 33.7 673.47 32.16 670.53C30.62 667.543 29.85 664.02 29.85 659.96C29.85 652.82 30.5967 646.987 32.09 642.46C33.5833 637.887 35.6833 634.503 38.39 632.31C41.0967 630.07 44.2 628.95 47.7 628.95C51.06 628.95 54.0233 629.86 56.59 631.68C59.2033 633.453 61.0933 635.88 62.26 638.96L60.37 640.08C59.4833 637.42 57.8733 635.273 55.54 633.64C53.2533 632.007 50.64 631.19 47.7 631.19C44.62 631.19 41.9133 632.193 39.58 634.2C37.2933 636.207 35.4967 639.1 34.19 642.88C32.93 646.66 32.3 651.257 32.3 656.67C33 654.477 34.12 652.563 35.66 650.93C37.2 649.297 39.02 648.037 41.12 647.15C43.22 646.217 45.4367 645.75 47.77 645.75C50.9433 645.75 53.8133 646.52 56.38 648.06C58.9467 649.6 60.9767 651.653 62.47 654.22C64.01 656.74 64.78 659.563 64.78 662.69ZM47.56 677.46C50.3133 677.46 52.81 676.807 55.05 675.5C57.29 674.147 59.0867 672.35 60.44 670.11C61.7933 667.87 62.47 665.42 62.47 662.76C62.47 660.053 61.77 657.58 60.37 655.34C59.0167 653.1 57.1967 651.303 54.91 649.95C52.67 648.597 50.1967 647.92 47.49 647.92C44.83 647.92 42.3567 648.597 40.07 649.95C37.7833 651.303 35.9633 653.1 34.61 655.34C33.2567 657.533 32.58 659.983 32.58 662.69C32.58 665.35 33.2567 667.8 34.61 670.04C36.01 672.28 37.83 674.077 40.07 675.43C42.3567 676.783 44.8533 677.46 47.56 677.46ZM107.318 676.76V679H74.4876V629.3H106.688V631.54H76.9376V652.47H102.978V654.71H76.9376V676.76H107.318Z" fill="white" fill-opacity="0.02"/>
<path d="M1267.78 300.69C1267.78 303.863 1267.01 306.733 1265.47 309.3C1263.93 311.867 1261.85 313.92 1259.24 315.46C1256.63 316.953 1253.69 317.7 1250.42 317.7C1247.11 317.7 1244.12 316.907 1241.46 315.32C1238.8 313.733 1236.7 311.47 1235.16 308.53C1233.62 305.543 1232.85 302.02 1232.85 297.96C1232.85 290.82 1233.6 284.987 1235.09 280.46C1236.58 275.887 1238.68 272.503 1241.39 270.31C1244.1 268.07 1247.2 266.95 1250.7 266.95C1254.06 266.95 1257.02 267.86 1259.59 269.68C1262.2 271.453 1264.09 273.88 1265.26 276.96L1263.37 278.08C1262.48 275.42 1260.87 273.273 1258.54 271.64C1256.25 270.007 1253.64 269.19 1250.7 269.19C1247.62 269.19 1244.91 270.193 1242.58 272.2C1240.29 274.207 1238.5 277.1 1237.19 280.88C1235.93 284.66 1235.3 289.257 1235.3 294.67C1236 292.477 1237.12 290.563 1238.66 288.93C1240.2 287.297 1242.02 286.037 1244.12 285.15C1246.22 284.217 1248.44 283.75 1250.77 283.75C1253.94 283.75 1256.81 284.52 1259.38 286.06C1261.95 287.6 1263.98 289.653 1265.47 292.22C1267.01 294.74 1267.78 297.563 1267.78 300.69ZM1250.56 315.46C1253.31 315.46 1255.81 314.807 1258.05 313.5C1260.29 312.147 1262.09 310.35 1263.44 308.11C1264.79 305.87 1265.47 303.42 1265.47 300.76C1265.47 298.053 1264.77 295.58 1263.37 293.34C1262.02 291.1 1260.2 289.303 1257.91 287.95C1255.67 286.597 1253.2 285.92 1250.49 285.92C1247.83 285.92 1245.36 286.597 1243.07 287.95C1240.78 289.303 1238.96 291.1 1237.61 293.34C1236.26 295.533 1235.58 297.983 1235.58 300.69C1235.58 303.35 1236.26 305.8 1237.61 308.04C1239.01 310.28 1240.83 312.077 1243.07 313.43C1245.36 314.783 1247.85 315.46 1250.56 315.46ZM1308.01 303.63C1308.01 306.43 1307.21 308.88 1305.63 310.98C1304.09 313.033 1302.01 314.643 1299.4 315.81C1296.83 316.93 1294.03 317.49 1291 317.49C1287.68 317.49 1284.77 316.837 1282.25 315.53C1279.77 314.223 1277.84 312.52 1276.44 310.42C1275.08 308.273 1274.41 305.963 1274.41 303.49C1274.41 301.203 1274.94 299.173 1276.02 297.4C1277.14 295.627 1278.54 294.133 1280.22 292.92C1281.9 291.707 1283.65 290.843 1285.47 290.33C1283.79 289.723 1282.25 288.907 1280.85 287.88C1279.45 286.853 1278.33 285.64 1277.49 284.24C1276.65 282.793 1276.23 281.183 1276.23 279.41C1276.23 277.45 1276.65 275.723 1277.49 274.23C1278.37 272.69 1279.54 271.407 1280.99 270.38C1282.43 269.353 1284.04 268.583 1285.82 268.07C1287.59 267.557 1289.41 267.3 1291.28 267.3C1293.1 267.3 1294.89 267.557 1296.67 268.07C1298.44 268.583 1300.05 269.353 1301.5 270.38C1302.94 271.407 1304.09 272.667 1304.93 274.16C1305.81 275.653 1306.26 277.38 1306.26 279.34C1306.26 281.16 1305.81 282.793 1304.93 284.24C1304.09 285.64 1302.94 286.853 1301.5 287.88C1300.1 288.907 1298.58 289.723 1296.95 290.33C1299 290.937 1300.87 291.893 1302.55 293.2C1304.23 294.46 1305.56 295.977 1306.54 297.75C1307.52 299.477 1308.01 301.437 1308.01 303.63ZM1305.63 303.42C1305.63 301.507 1305.18 299.803 1304.3 298.31C1303.46 296.817 1302.31 295.58 1300.87 294.6C1299.47 293.573 1297.9 292.803 1296.18 292.29C1294.5 291.73 1292.82 291.45 1291.14 291.45C1288.8 291.45 1286.54 291.963 1284.35 292.99C1282.2 293.97 1280.4 295.37 1278.96 297.19C1277.56 298.963 1276.86 301.063 1276.86 303.49C1276.86 305.403 1277.28 307.107 1278.12 308.6C1279 310.047 1280.15 311.283 1281.55 312.31C1282.99 313.337 1284.56 314.107 1286.24 314.62C1287.96 315.133 1289.67 315.39 1291.35 315.39C1293.63 315.39 1295.87 314.9 1298.07 313.92C1300.26 312.94 1302.06 311.563 1303.46 309.79C1304.9 307.97 1305.63 305.847 1305.63 303.42ZM1278.61 279.55C1278.61 281.603 1279.24 283.377 1280.5 284.87C1281.8 286.363 1283.44 287.483 1285.4 288.23C1287.36 288.977 1289.29 289.35 1291.21 289.35C1293.12 289.35 1295.06 288.977 1297.02 288.23C1298.98 287.437 1300.61 286.293 1301.92 284.8C1303.22 283.26 1303.88 281.463 1303.88 279.41C1303.88 277.31 1303.25 275.537 1301.99 274.09C1300.77 272.597 1299.19 271.477 1297.23 270.73C1295.31 269.937 1293.28 269.54 1291.14 269.54C1289.04 269.54 1287.01 269.937 1285.05 270.73C1283.13 271.523 1281.57 272.667 1280.36 274.16C1279.19 275.653 1278.61 277.45 1278.61 279.55Z" fill="white" fill-opacity="0.02"/>
<path d="M608.78 602.69C608.78 605.863 608.01 608.733 606.47 611.3C604.93 613.867 602.853 615.92 600.24 617.46C597.627 618.953 594.687 619.7 591.42 619.7C588.107 619.7 585.12 618.907 582.46 617.32C579.8 615.733 577.7 613.47 576.16 610.53C574.62 607.543 573.85 604.02 573.85 599.96C573.85 592.82 574.597 586.987 576.09 582.46C577.583 577.887 579.683 574.503 582.39 572.31C585.097 570.07 588.2 568.95 591.7 568.95C595.06 568.95 598.023 569.86 600.59 571.68C603.203 573.453 605.093 575.88 606.26 578.96L604.37 580.08C603.483 577.42 601.873 575.273 599.54 573.64C597.253 572.007 594.64 571.19 591.7 571.19C588.62 571.19 585.913 572.193 583.58 574.2C581.293 576.207 579.497 579.1 578.19 582.88C576.93 586.66 576.3 591.257 576.3 596.67C577 594.477 578.12 592.563 579.66 590.93C581.2 589.297 583.02 588.037 585.12 587.15C587.22 586.217 589.437 585.75 591.77 585.75C594.943 585.75 597.813 586.52 600.38 588.06C602.947 589.6 604.977 591.653 606.47 594.22C608.01 596.74 608.78 599.563 608.78 602.69ZM591.56 617.46C594.313 617.46 596.81 616.807 599.05 615.5C601.29 614.147 603.087 612.35 604.44 610.11C605.793 607.87 606.47 605.42 606.47 602.76C606.47 600.053 605.77 597.58 604.37 595.34C603.017 593.1 601.197 591.303 598.91 589.95C596.67 588.597 594.197 587.92 591.49 587.92C588.83 587.92 586.357 588.597 584.07 589.95C581.783 591.303 579.963 593.1 578.61 595.34C577.257 597.533 576.58 599.983 576.58 602.69C576.58 605.35 577.257 607.8 578.61 610.04C580.01 612.28 581.83 614.077 584.07 615.43C586.357 616.783 588.853 617.46 591.56 617.46ZM637.738 616.76V619H616.528V616.76H626.468V582.32C626.094 582.88 625.464 583.51 624.578 584.21C623.691 584.863 622.664 585.493 621.498 586.1C620.378 586.707 619.234 587.22 618.068 587.64C616.901 588.013 615.851 588.2 614.918 588.2V585.68C616.131 585.68 617.391 585.377 618.698 584.77C620.004 584.117 621.241 583.37 622.408 582.53C623.574 581.69 624.508 580.92 625.208 580.22C625.954 579.52 626.374 579.123 626.468 579.03H628.848V616.76H637.738Z" fill="white" fill-opacity="0.02"/>
</g>
<defs>
<clipPath id="clip0_246_42">
<rect width="1440" height="768" fill="white"/>
</clipPath>
</defs>
</svg>
