<svg width="1515" height="717" viewBox="0 0 1515 717" fill="none" xmlns="http://www.w3.org/2000/svg">
<path d="M25.9105 253.165C25.9105 242.99 27.8182 235.137 31.6338 229.606C35.479 224.075 40.7143 221.309 47.3398 221.309C54.2019 221.309 59.4816 224.178 63.1789 229.916C66.8762 235.655 68.7248 243.404 68.7248 253.165C68.7248 263.281 66.817 271.119 63.0014 276.679C59.1859 282.211 53.9653 284.976 47.3398 284.976C40.4185 284.976 35.1093 282.092 31.412 276.324C27.7443 270.557 25.9105 262.837 25.9105 253.165ZM34.9614 253.165C34.9614 261.979 36.0262 268.294 38.1558 272.11C40.2854 275.896 43.3468 277.789 47.3398 277.789C51.3329 277.789 54.3942 275.881 56.5238 272.065C58.6535 268.25 59.7183 261.949 59.7183 253.165C59.7183 244.232 58.6387 237.888 56.4795 234.131C54.3203 230.375 51.2737 228.497 47.3398 228.497C42.9031 228.497 39.7234 230.641 37.8009 234.93C35.9079 239.189 34.9614 245.267 34.9614 253.165ZM93.4817 276.502V229.783H85.0519V222.374H101.911V276.502H109.942V284H85.0519V276.502H93.4817ZM142.729 276.502V229.783H134.3V222.374H151.159V276.502H159.19V284H134.3V276.502H142.729ZM191.977 276.502V229.783H183.547V222.374H200.407V276.502H208.437V284H183.547V276.502H191.977ZM222.901 253.165C222.901 242.99 224.809 235.137 228.624 229.606C232.469 224.075 237.705 221.309 244.33 221.309C251.192 221.309 256.472 224.178 260.169 229.916C263.867 235.655 265.715 243.404 265.715 253.165C265.715 263.281 263.807 271.119 259.992 276.679C256.176 282.211 250.956 284.976 244.33 284.976C237.409 284.976 232.1 282.092 228.402 276.324C224.735 270.557 222.901 262.837 222.901 253.165ZM231.952 253.165C231.952 261.979 233.017 268.294 235.146 272.11C237.276 275.896 240.337 277.789 244.33 277.789C248.323 277.789 251.385 275.881 253.514 272.065C255.644 268.25 256.709 261.949 256.709 253.165C256.709 244.232 255.629 237.888 253.47 234.131C251.311 230.375 248.264 228.497 244.33 228.497C239.894 228.497 236.714 230.641 234.791 234.93C232.898 239.189 231.952 245.267 231.952 253.165ZM272.148 253.165C272.148 242.99 274.056 235.137 277.872 229.606C281.717 224.075 286.952 221.309 293.578 221.309C300.44 221.309 305.72 224.178 309.417 229.916C313.114 235.655 314.963 243.404 314.963 253.165C314.963 263.281 313.055 271.119 309.239 276.679C305.424 282.211 300.203 284.976 293.578 284.976C286.657 284.976 281.347 282.092 277.65 276.324C273.982 270.557 272.148 262.837 272.148 253.165ZM281.199 253.165C281.199 261.979 282.264 268.294 284.394 272.11C286.523 275.896 289.585 277.789 293.578 277.789C297.571 277.789 300.632 275.881 302.762 272.065C304.891 268.25 305.956 261.949 305.956 253.165C305.956 244.232 304.877 237.888 302.717 234.131C300.558 230.375 297.512 228.497 293.578 228.497C289.141 228.497 285.961 230.641 284.039 234.93C282.146 239.189 281.199 245.267 281.199 253.165ZM339.72 276.502V229.783H331.29V222.374H348.149V276.502H356.18V284H331.29V276.502H339.72ZM388.967 276.502V229.783H380.538V222.374H397.397V276.502H405.428V284H380.538V276.502H388.967Z" fill="#990DCE" fill-opacity="0.25"/>
<path d="M522.835 3.19444C533.01 3.19444 540.863 5.10223 546.394 8.91781C551.925 12.763 554.691 17.9983 554.691 24.6238C554.691 31.4859 551.822 36.7656 546.084 40.4629C540.345 44.1602 532.596 46.0088 522.835 46.0088C512.719 46.0088 504.881 44.101 499.321 40.2854C493.789 36.4698 491.024 31.2493 491.024 24.6238C491.024 17.7025 493.908 12.3932 499.676 8.69597C505.443 5.02828 513.163 3.19444 522.835 3.19444ZM522.835 12.2453C514.021 12.2453 507.706 13.3102 503.89 15.4398C500.104 17.5694 498.211 20.6307 498.211 24.6238C498.211 28.6168 500.119 31.6782 503.935 33.8078C507.75 35.9374 514.051 37.0022 522.835 37.0022C531.768 37.0023 538.112 35.9226 541.869 33.7634C545.625 31.6042 547.503 28.5577 547.503 24.6238C547.503 20.1871 545.359 17.0074 541.07 15.0848C536.811 13.1918 530.733 12.2453 522.835 12.2453ZM499.498 70.7657L546.217 70.7657L546.217 62.3359L553.626 62.3359L553.626 79.1955L499.498 79.1955L499.498 87.2259L492 87.2259L492 62.3359L499.498 62.3359L499.498 70.7657ZM499.498 120.013L546.217 120.013L546.217 111.584L553.626 111.584L553.626 128.443L499.498 128.443L499.498 136.474L492 136.474L492 111.584L499.498 111.584L499.498 120.013ZM522.835 150.937C533.01 150.937 540.863 152.845 546.394 156.661C551.925 160.506 554.691 165.741 554.691 172.367C554.691 179.229 551.822 184.508 546.084 188.206C540.345 191.903 532.596 193.752 522.835 193.752C512.719 193.752 504.881 191.844 499.321 188.028C493.789 184.213 491.024 178.992 491.024 172.367C491.024 165.445 493.908 160.136 499.676 156.439C505.443 152.771 513.163 150.937 522.835 150.937ZM522.835 159.988C514.021 159.988 507.706 161.053 503.89 163.183C500.104 165.312 498.211 168.374 498.211 172.367C498.211 176.36 500.119 179.421 503.935 181.551C507.75 183.68 514.05 184.745 522.835 184.745C531.768 184.745 538.112 183.665 541.869 181.506C545.625 179.347 547.503 176.3 547.503 172.367C547.503 167.93 545.359 164.75 541.07 162.828C536.811 160.935 530.733 159.988 522.835 159.988ZM499.498 218.508L546.217 218.508L546.217 210.079L553.626 210.079L553.626 226.938L499.498 226.938L499.498 234.969L492 234.969L492 210.079L499.498 210.079L499.498 218.508ZM499.498 267.756L546.217 267.756L546.217 259.326L553.626 259.326L553.626 276.186L499.498 276.186L499.498 284.216L492 284.216L492 259.326L499.498 259.326L499.498 267.756ZM499.498 317.004L546.217 317.004L546.217 308.574L553.626 308.574L553.626 325.433L499.498 325.433L499.498 333.464L492 333.464L492 308.574L499.498 308.574L499.498 317.004ZM499.498 366.251L546.217 366.251L546.217 357.822L553.626 357.822L553.626 374.681L499.498 374.681L499.498 382.712L492 382.712L492 357.822L499.498 357.822L499.498 366.251Z" fill="white" fill-opacity="0.02"/>
<path d="M167.194 546.165C167.194 535.99 169.102 528.137 172.918 522.606C176.763 517.075 181.998 514.309 188.624 514.309C195.486 514.309 200.766 517.178 204.463 522.916C208.16 528.655 210.009 536.404 210.009 546.165C210.009 556.281 208.101 564.119 204.285 569.679C200.47 575.211 195.249 577.976 188.624 577.976C181.703 577.976 176.393 575.092 172.696 569.324C169.028 563.557 167.194 555.837 167.194 546.165ZM176.245 546.165C176.245 554.979 177.31 561.294 179.44 565.11C181.569 568.896 184.631 570.789 188.624 570.789C192.617 570.789 195.678 568.881 197.808 565.065C199.937 561.25 201.002 554.949 201.002 546.165C201.002 537.232 199.923 530.888 197.763 527.131C195.604 523.375 192.558 521.497 188.624 521.497C184.187 521.497 181.007 523.641 179.085 527.93C177.192 532.189 176.245 538.267 176.245 546.165ZM234.766 569.502V522.783H226.336V515.374H243.195V569.502H251.226V577H226.336V569.502H234.766ZM284.013 569.502V522.783H275.584V515.374H292.443V569.502H300.474V577H275.584V569.502H284.013ZM333.261 569.502V522.783H324.831V515.374H341.691V569.502H349.721V577H324.831V569.502H333.261ZM364.185 546.165C364.185 535.99 366.093 528.137 369.908 522.606C373.753 517.075 378.989 514.309 385.614 514.309C392.476 514.309 397.756 517.178 401.453 522.916C405.151 528.655 406.999 536.404 406.999 546.165C406.999 556.281 405.091 564.119 401.276 569.679C397.46 575.211 392.24 577.976 385.614 577.976C378.693 577.976 373.384 575.092 369.686 569.324C366.019 563.557 364.185 555.837 364.185 546.165ZM373.236 546.165C373.236 554.979 374.301 561.294 376.43 565.11C378.56 568.896 381.621 570.789 385.614 570.789C389.607 570.789 392.669 568.881 394.798 565.065C396.928 561.25 397.993 554.949 397.993 546.165C397.993 537.232 396.913 530.888 394.754 527.131C392.595 523.375 389.548 521.497 385.614 521.497C381.177 521.497 377.998 523.641 376.075 527.93C374.182 532.189 373.236 538.267 373.236 546.165ZM413.432 546.165C413.432 535.99 415.34 528.137 419.156 522.606C423.001 517.075 428.236 514.309 434.862 514.309C441.724 514.309 447.004 517.178 450.701 522.916C454.398 528.655 456.247 536.404 456.247 546.165C456.247 556.281 454.339 564.119 450.523 569.679C446.708 575.211 441.487 577.976 434.862 577.976C427.941 577.976 422.631 575.092 418.934 569.324C415.266 563.557 413.432 555.837 413.432 546.165ZM422.483 546.165C422.483 554.979 423.548 561.294 425.678 565.11C427.807 568.896 430.869 570.789 434.862 570.789C438.855 570.789 441.916 568.881 444.046 565.065C446.175 561.25 447.24 554.949 447.24 546.165C447.24 537.232 446.161 530.888 444.001 527.131C441.842 523.375 438.796 521.497 434.862 521.497C430.425 521.497 427.245 523.641 425.323 527.93C423.43 532.189 422.483 538.267 422.483 546.165ZM462.68 546.165C462.68 535.99 464.588 528.137 468.403 522.606C472.249 517.075 477.484 514.309 484.109 514.309C490.972 514.309 496.251 517.178 499.948 522.916C503.646 528.655 505.494 536.404 505.494 546.165C505.494 556.281 503.587 564.119 499.771 569.679C495.955 575.211 490.735 577.976 484.109 577.976C477.188 577.976 471.879 575.092 468.182 569.324C464.514 563.557 462.68 555.837 462.68 546.165ZM471.731 546.165C471.731 554.979 472.796 561.294 474.925 565.11C477.055 568.896 480.116 570.789 484.109 570.789C488.102 570.789 491.164 568.881 493.293 565.065C495.423 561.25 496.488 554.949 496.488 546.165C496.488 537.232 495.408 530.888 493.249 527.131C491.09 523.375 488.043 521.497 484.109 521.497C479.673 521.497 476.493 523.641 474.57 527.93C472.677 532.189 471.731 538.267 471.731 546.165ZM511.928 546.165C511.928 535.99 513.835 528.137 517.651 522.606C521.496 517.075 526.732 514.309 533.357 514.309C540.219 514.309 545.499 517.178 549.196 522.916C552.893 528.655 554.742 536.404 554.742 546.165C554.742 556.281 552.834 564.119 549.019 569.679C545.203 575.211 539.983 577.976 533.357 577.976C526.436 577.976 521.126 575.092 517.429 569.324C513.761 563.557 511.928 555.837 511.928 546.165ZM520.979 546.165C520.979 554.979 522.043 561.294 524.173 565.11C526.303 568.896 529.364 570.789 533.357 570.789C537.35 570.789 540.411 568.881 542.541 565.065C544.671 561.25 545.735 554.949 545.735 546.165C545.735 537.232 544.656 530.888 542.497 527.131C540.337 523.375 537.291 521.497 533.357 521.497C528.92 521.497 525.741 523.641 523.818 527.93C521.925 532.189 520.979 538.267 520.979 546.165Z" fill="#D7FF01" fill-opacity="0.1"/>
<path d="M802.165 695.806C791.99 695.806 784.137 693.898 778.606 690.082C773.075 686.237 770.309 681.002 770.309 674.376C770.309 667.514 773.178 662.234 778.916 658.537C784.655 654.84 792.404 652.991 802.165 652.991C812.281 652.991 820.119 654.899 825.679 658.715C831.211 662.53 833.976 667.751 833.976 674.376C833.976 681.297 831.092 686.607 825.324 690.304C819.557 693.972 811.837 695.806 802.165 695.806ZM802.165 686.755C810.979 686.755 817.294 685.69 821.11 683.56C824.896 681.431 826.789 678.369 826.789 674.376C826.789 670.383 824.881 667.322 821.065 665.192C817.25 663.063 810.949 661.998 802.165 661.998C793.232 661.998 786.888 663.077 783.131 665.237C779.375 667.396 777.497 670.442 777.497 674.376C777.497 678.813 779.641 681.993 783.93 683.915C788.189 685.808 794.267 686.755 802.165 686.755ZM825.502 628.234L778.783 628.234L778.783 636.664L771.374 636.664L771.374 619.805L825.502 619.805L825.502 611.774L833 611.774L833 636.664L825.502 636.664L825.502 628.234ZM825.502 578.987L778.783 578.987L778.783 587.416L771.374 587.416L771.374 570.557L825.502 570.557L825.502 562.526L833 562.526L833 587.416L825.502 587.416L825.502 578.987ZM802.165 548.063C791.99 548.063 784.137 546.155 778.606 542.339C773.075 538.494 770.309 533.259 770.309 526.633C770.309 519.771 773.178 514.492 778.916 510.794C784.655 507.097 792.404 505.248 802.165 505.248C812.281 505.248 820.119 507.156 825.679 510.972C831.211 514.787 833.976 520.008 833.976 526.633C833.976 533.555 831.092 538.864 825.324 542.561C819.557 546.229 811.837 548.063 802.165 548.063ZM802.165 539.012C810.979 539.012 817.294 537.947 821.11 535.817C824.896 533.688 826.789 530.626 826.789 526.633C826.789 522.64 824.881 519.579 821.065 517.449C817.25 515.32 810.949 514.255 802.165 514.255C793.232 514.255 786.888 515.335 783.131 517.494C779.375 519.653 777.497 522.7 777.497 526.633C777.497 531.07 779.641 534.25 783.93 536.172C788.189 538.065 794.267 539.012 802.165 539.012ZM825.502 480.491L778.783 480.491L778.783 488.921L771.374 488.921L771.374 472.062L825.502 472.062L825.502 464.031L833 464.031L833 488.921L825.502 488.921L825.502 480.491ZM802.165 449.568C791.99 449.568 784.137 447.66 778.606 443.844C773.075 439.999 770.309 434.764 770.309 428.138C770.309 421.276 773.178 415.996 778.916 412.299C784.655 408.602 792.404 406.753 802.165 406.753C812.281 406.753 820.119 408.661 825.679 412.477C831.211 416.292 833.976 421.513 833.976 428.138C833.976 435.059 831.092 440.369 825.324 444.066C819.557 447.734 811.837 449.568 802.165 449.568ZM802.165 440.517C810.979 440.517 817.294 439.452 821.11 437.322C824.896 435.193 826.789 432.131 826.789 428.138C826.789 424.145 824.881 421.084 821.065 418.954C817.25 416.825 810.949 415.76 802.165 415.76C793.232 415.76 786.888 416.839 783.131 418.999C779.375 421.158 777.497 424.204 777.497 428.138C777.497 432.575 779.641 435.755 783.93 437.677C788.189 439.57 794.267 440.517 802.165 440.517ZM802.165 400.32C791.99 400.32 784.137 398.412 778.606 394.597C773.075 390.751 770.309 385.516 770.309 378.891C770.309 372.028 773.178 366.749 778.916 363.052C784.655 359.354 792.404 357.506 802.165 357.506C812.28 357.506 820.119 359.413 825.679 363.229C831.211 367.045 833.976 372.265 833.976 378.891C833.976 385.812 831.092 391.121 825.324 394.818C819.557 398.486 811.837 400.32 802.165 400.32ZM802.165 391.269C810.979 391.269 817.294 390.204 821.11 388.075C824.896 385.945 826.789 382.884 826.789 378.891C826.789 374.898 824.881 371.836 821.065 369.707C817.25 367.577 810.949 366.512 802.165 366.512C793.232 366.512 786.888 367.592 783.131 369.751C779.375 371.91 777.497 374.957 777.497 378.891C777.497 383.327 779.641 386.507 783.93 388.43C788.189 390.323 794.267 391.269 802.165 391.269ZM825.502 332.749L778.783 332.749L778.783 341.178L771.374 341.178L771.374 324.319L825.502 324.319L825.502 316.288L833 316.288L833 341.178L825.502 341.178L825.502 332.749Z" fill="white" fill-opacity="0.02"/>
<path d="M915.194 396.165C915.194 385.99 917.102 378.137 920.918 372.606C924.763 367.075 929.998 364.309 936.624 364.309C943.486 364.309 948.766 367.178 952.463 372.916C956.16 378.655 958.009 386.404 958.009 396.165C958.009 406.281 956.101 414.119 952.285 419.679C948.47 425.211 943.249 427.976 936.624 427.976C929.703 427.976 924.393 425.092 920.696 419.324C917.028 413.557 915.194 405.837 915.194 396.165ZM924.245 396.165C924.245 404.979 925.31 411.294 927.44 415.11C929.569 418.896 932.631 420.789 936.624 420.789C940.617 420.789 943.678 418.881 945.808 415.065C947.937 411.25 949.002 404.949 949.002 396.165C949.002 387.232 947.923 380.888 945.763 377.131C943.604 373.375 940.558 371.497 936.624 371.497C932.187 371.497 929.007 373.641 927.085 377.93C925.192 382.189 924.245 388.267 924.245 396.165ZM982.766 419.502V372.783H974.336V365.374H991.195V419.502H999.226V427H974.336V419.502H982.766ZM1032.01 419.502V372.783H1023.58V365.374H1040.44V419.502H1048.47V427H1023.58V419.502H1032.01ZM1062.94 396.165C1062.94 385.99 1064.85 378.137 1068.66 372.606C1072.51 367.075 1077.74 364.309 1084.37 364.309C1091.23 364.309 1096.51 367.178 1100.21 372.916C1103.9 378.655 1105.75 386.404 1105.75 396.165C1105.75 406.281 1103.84 414.119 1100.03 419.679C1096.21 425.211 1090.99 427.976 1084.37 427.976C1077.45 427.976 1072.14 425.092 1068.44 419.324C1064.77 413.557 1062.94 405.837 1062.94 396.165ZM1071.99 396.165C1071.99 404.979 1073.05 411.294 1075.18 415.11C1077.31 418.896 1080.37 420.789 1084.37 420.789C1088.36 420.789 1091.42 418.881 1093.55 415.065C1095.68 411.25 1096.75 404.949 1096.75 396.165C1096.75 387.232 1095.67 380.888 1093.51 377.131C1091.35 373.375 1088.3 371.497 1084.37 371.497C1079.93 371.497 1076.75 373.641 1074.83 377.93C1072.93 382.189 1071.99 388.267 1071.99 396.165ZM1130.51 419.502V372.783H1122.08V365.374H1138.94V419.502H1146.97V427L1122.08 427V419.502L1130.51 419.502ZM1179.76 419.502V372.783H1171.33V365.374H1188.19V419.502H1196.22V427H1171.33V419.502H1179.76ZM1229 419.502V372.783H1220.57V365.374H1237.43V419.502H1245.46V427H1220.57V419.502H1229ZM1259.93 396.165C1259.93 385.99 1261.84 378.137 1265.65 372.606C1269.5 367.075 1274.73 364.309 1281.36 364.309C1288.22 364.309 1293.5 367.178 1297.2 372.916C1300.89 378.655 1302.74 386.404 1302.74 396.165C1302.74 406.281 1300.83 414.119 1297.02 419.679C1293.2 425.211 1287.98 427.976 1281.36 427.976C1274.44 427.976 1269.13 425.092 1265.43 419.324C1261.76 413.557 1259.93 405.837 1259.93 396.165ZM1268.98 396.165C1268.98 404.979 1270.04 411.294 1272.17 415.11C1274.3 418.896 1277.36 420.789 1281.36 420.789C1285.35 420.789 1288.41 418.881 1290.54 415.065C1292.67 411.25 1293.74 404.949 1293.74 396.165C1293.74 387.232 1292.66 380.888 1290.5 377.131C1288.34 373.375 1285.29 371.497 1281.36 371.497C1276.92 371.497 1273.74 373.641 1271.82 377.93C1269.93 382.189 1268.98 388.267 1268.98 396.165Z" fill="#990DCE" fill-opacity="0.25"/>
<path d="M1463.16 518.09C1452.99 518.09 1445.14 516.182 1439.61 512.366C1434.07 508.521 1431.31 503.286 1431.31 496.66C1431.31 489.798 1434.18 484.518 1439.92 480.821C1445.65 477.124 1453.4 475.275 1463.16 475.275C1473.28 475.275 1481.12 477.183 1486.68 480.999C1492.21 484.814 1494.98 490.035 1494.98 496.66C1494.98 503.581 1492.09 508.891 1486.32 512.588C1480.56 516.256 1472.84 518.09 1463.16 518.09ZM1463.16 509.039C1471.98 509.039 1478.29 507.974 1482.11 505.844C1485.9 503.715 1487.79 500.653 1487.79 496.66C1487.79 492.667 1485.88 489.606 1482.07 487.476C1478.25 485.347 1471.95 484.282 1463.16 484.282C1454.23 484.282 1447.89 485.361 1444.13 487.521C1440.37 489.68 1438.5 492.726 1438.5 496.66C1438.5 501.097 1440.64 504.277 1444.93 506.199C1449.19 508.092 1455.27 509.039 1463.16 509.039ZM1486.5 450.518L1439.78 450.518L1439.78 458.948L1432.37 458.948L1432.37 442.089L1486.5 442.089L1486.5 434.058L1494 434.058L1494 458.948L1486.5 458.948L1486.5 450.518ZM1486.5 401.271L1439.78 401.271L1439.78 409.7L1432.37 409.7L1432.37 392.841L1486.5 392.841L1486.5 384.81L1494 384.81L1494 409.7L1486.5 409.7L1486.5 401.271ZM1463.16 370.347C1452.99 370.347 1445.14 368.439 1439.61 364.623C1434.07 360.778 1431.31 355.543 1431.31 348.917C1431.31 342.055 1434.18 336.776 1439.92 333.078C1445.65 329.381 1453.4 327.532 1463.16 327.532C1473.28 327.532 1481.12 329.44 1486.68 333.256C1492.21 337.071 1494.98 342.292 1494.98 348.917C1494.98 355.839 1492.09 361.148 1486.32 364.845C1480.56 368.513 1472.84 370.347 1463.16 370.347ZM1463.16 361.296C1471.98 361.296 1478.29 360.231 1482.11 358.101C1485.9 355.972 1487.79 352.91 1487.79 348.917C1487.79 344.924 1485.88 341.863 1482.07 339.733C1478.25 337.604 1471.95 336.539 1463.16 336.539C1454.23 336.539 1447.89 337.619 1444.13 339.778C1440.37 341.937 1438.5 344.983 1438.5 348.917C1438.5 353.354 1440.64 356.534 1444.93 358.456C1449.19 360.349 1455.27 361.296 1463.16 361.296ZM1486.5 302.775L1439.78 302.775L1439.78 311.205L1432.37 311.205L1432.37 294.346L1486.5 294.346L1486.5 286.315L1494 286.315L1494 311.205L1486.5 311.205L1486.5 302.775ZM1463.16 271.852C1452.99 271.852 1445.14 269.944 1439.61 266.128C1434.07 262.283 1431.31 257.048 1431.31 250.422C1431.31 243.56 1434.18 238.28 1439.92 234.583C1445.65 230.886 1453.4 229.037 1463.16 229.037C1473.28 229.037 1481.12 230.945 1486.68 234.761C1492.21 238.576 1494.98 243.797 1494.98 250.422C1494.98 257.343 1492.09 262.653 1486.32 266.35C1480.56 270.018 1472.84 271.852 1463.16 271.852ZM1463.16 262.801C1471.98 262.801 1478.29 261.736 1482.11 259.606C1485.9 257.477 1487.79 254.415 1487.79 250.422C1487.79 246.429 1485.88 243.368 1482.07 241.238C1478.25 239.109 1471.95 238.044 1463.16 238.044C1454.23 238.044 1447.89 239.123 1444.13 241.283C1440.37 243.442 1438.5 246.488 1438.5 250.422C1438.5 254.859 1440.64 258.039 1444.93 259.961C1449.19 261.854 1455.27 262.801 1463.16 262.801ZM1463.16 222.604C1452.99 222.604 1445.14 220.696 1439.61 216.881C1434.07 213.035 1431.31 207.8 1431.31 201.175C1431.31 194.312 1434.18 189.033 1439.92 185.336C1445.65 181.638 1453.4 179.79 1463.16 179.79C1473.28 179.79 1481.12 181.697 1486.68 185.513C1492.21 189.329 1494.98 194.549 1494.98 201.175C1494.98 208.096 1492.09 213.405 1486.32 217.102C1480.56 220.77 1472.84 222.604 1463.16 222.604ZM1463.16 213.553C1471.98 213.553 1478.29 212.488 1482.11 210.359C1485.9 208.229 1487.79 205.168 1487.79 201.175C1487.79 197.182 1485.88 194.12 1482.07 191.991C1478.25 189.861 1471.95 188.796 1463.16 188.796C1454.23 188.796 1447.89 189.876 1444.13 192.035C1440.37 194.194 1438.5 197.241 1438.5 201.175C1438.5 205.611 1440.64 208.791 1444.93 210.714C1449.19 212.607 1455.27 213.553 1463.16 213.553ZM1463.16 173.356C1452.99 173.356 1445.14 171.449 1439.61 167.633C1434.07 163.788 1431.31 158.552 1431.31 151.927C1431.31 145.065 1434.18 139.785 1439.92 136.088C1445.65 132.391 1453.4 130.542 1463.16 130.542C1473.28 130.542 1481.12 132.45 1486.68 136.265C1492.21 140.081 1494.98 145.301 1494.98 151.927C1494.98 158.848 1492.09 164.158 1486.32 167.855C1480.56 171.522 1472.84 173.356 1463.16 173.356ZM1463.16 164.305C1471.98 164.305 1478.29 163.241 1482.11 161.111C1485.9 158.981 1487.79 155.92 1487.79 151.927C1487.79 147.934 1485.88 144.873 1482.07 142.743C1478.25 140.613 1471.95 139.549 1463.16 139.549C1454.23 139.549 1447.89 140.628 1444.13 142.787C1440.37 144.947 1438.5 147.993 1438.5 151.927C1438.5 156.364 1440.64 159.543 1444.93 161.466C1449.19 163.359 1455.27 164.305 1463.16 164.305Z" fill="white" fill-opacity="0.02"/>
<path d="M750.194 93.1648C750.194 82.9899 752.102 75.1369 755.918 69.6058C759.763 64.0747 764.998 61.3091 771.624 61.3091C778.486 61.3091 783.766 64.1782 787.463 69.9164C791.16 75.6545 793.009 83.404 793.009 93.1648C793.009 103.281 791.101 111.119 787.285 116.679C783.47 122.211 778.249 124.976 771.624 124.976C764.703 124.976 759.393 122.092 755.696 116.324C752.028 110.557 750.194 102.837 750.194 93.1648ZM759.245 93.1648C759.245 101.979 760.31 108.294 762.44 112.11C764.569 115.896 767.631 117.789 771.624 117.789C775.617 117.789 778.678 115.881 780.808 112.065C782.937 108.25 784.002 101.949 784.002 93.1648C784.002 84.2322 782.923 77.8877 780.763 74.1313C778.604 70.3748 775.558 68.4966 771.624 68.4966C767.187 68.4966 764.007 70.641 762.085 74.9299C760.192 79.1891 759.245 85.2674 759.245 93.1648ZM817.766 116.502V69.7833H809.336V62.3739H826.195V116.502H834.226V124H809.336V116.502H817.766ZM867.013 116.502V69.7833H858.584V62.3739H875.443V116.502H883.474V124H858.584V116.502H867.013ZM897.937 93.1648C897.937 82.9899 899.845 75.1369 903.661 69.6058C907.506 64.0747 912.741 61.3091 919.367 61.3091C926.229 61.3091 931.508 64.1782 935.206 69.9164C938.903 75.6545 940.752 83.404 940.752 93.1648C940.752 103.281 938.844 111.119 935.028 116.679C931.213 122.211 925.992 124.976 919.367 124.976C912.445 124.976 907.136 122.092 903.439 116.324C899.771 110.557 897.937 102.837 897.937 93.1648ZM906.988 93.1648C906.988 101.979 908.053 108.294 910.183 112.11C912.312 115.896 915.374 117.789 919.367 117.789C923.36 117.789 926.421 115.881 928.551 112.065C930.68 108.25 931.745 101.949 931.745 93.1648C931.745 84.2322 930.665 77.8877 928.506 74.1313C926.347 70.3748 923.3 68.4966 919.367 68.4966C914.93 68.4966 911.75 70.641 909.828 74.9299C907.935 79.1891 906.988 85.2674 906.988 93.1648ZM947.185 93.1648C947.185 82.9899 949.093 75.1369 952.908 69.6058C956.753 64.0747 961.989 61.3091 968.614 61.3091C975.476 61.3091 980.756 64.1782 984.453 69.9164C988.151 75.6545 989.999 83.404 989.999 93.1648C989.999 103.281 988.091 111.119 984.276 116.679C980.46 122.211 975.24 124.976 968.614 124.976C961.693 124.976 956.384 122.092 952.686 116.324C949.019 110.557 947.185 102.837 947.185 93.1648ZM956.236 93.1648C956.236 101.979 957.301 108.294 959.43 112.11C961.56 115.896 964.621 117.789 968.614 117.789C972.607 117.789 975.669 115.881 977.798 112.065C979.928 108.25 980.993 101.949 980.993 93.1648C980.993 84.2322 979.913 77.8877 977.754 74.1313C975.595 70.3748 972.548 68.4966 968.614 68.4966C964.177 68.4966 960.998 70.641 959.075 74.9299C957.182 79.1891 956.236 85.2674 956.236 93.1648ZM996.432 93.1648C996.432 82.9899 998.34 75.1369 1002.16 69.6058C1006 64.0747 1011.24 61.3091 1017.86 61.3091C1024.72 61.3091 1030 64.1782 1033.7 69.9164C1037.4 75.6545 1039.25 83.404 1039.25 93.1648C1039.25 103.281 1037.34 111.119 1033.52 116.679C1029.71 122.211 1024.49 124.976 1017.86 124.976C1010.94 124.976 1005.63 122.092 1001.93 116.324C998.266 110.557 996.432 102.837 996.432 93.1648ZM1005.48 93.1648C1005.48 101.979 1006.55 108.294 1008.68 112.11C1010.81 115.896 1013.87 117.789 1017.86 117.789C1021.85 117.789 1024.92 115.881 1027.05 112.065C1029.18 108.25 1030.24 101.949 1030.24 93.1648C1030.24 84.2322 1029.16 77.8877 1027 74.1313C1024.84 70.3748 1021.8 68.4966 1017.86 68.4966C1013.43 68.4966 1010.25 70.641 1008.32 74.9299C1006.43 79.1891 1005.48 85.2674 1005.48 93.1648ZM1045.68 93.1648C1045.68 82.9899 1047.59 75.1369 1051.4 69.6058C1055.25 64.0747 1060.48 61.3091 1067.11 61.3091C1073.97 61.3091 1079.25 64.1782 1082.95 69.9164C1086.65 75.6545 1088.49 83.404 1088.49 93.1648C1088.49 103.281 1086.59 111.119 1082.77 116.679C1078.96 122.211 1073.73 124.976 1067.11 124.976C1060.19 124.976 1054.88 122.092 1051.18 116.324C1047.51 110.557 1045.68 102.837 1045.68 93.1648ZM1054.73 93.1648C1054.73 101.979 1055.8 108.294 1057.93 112.11C1060.06 115.896 1063.12 117.789 1067.11 117.789C1071.1 117.789 1074.16 115.881 1076.29 112.065C1078.42 108.25 1079.49 101.949 1079.49 93.1648C1079.49 84.2322 1078.41 77.8877 1076.25 74.1313C1074.09 70.3748 1071.04 68.4966 1067.11 68.4966C1062.67 68.4966 1059.49 70.641 1057.57 74.9299C1055.68 79.1891 1054.73 85.2674 1054.73 93.1648ZM1113.25 116.502V69.7833H1104.82V62.3739H1121.68V116.502H1129.71V124H1104.82V116.502H1113.25Z" fill="#D7FF01" fill-opacity="0.1"/>
<path d="M978.13 518.5H949.15V516.19H981.98L956.64 565.89H953.91L978.13 518.5ZM1005.72 540.48C1007.91 540.76 1009.8 541.507 1011.39 542.72C1013.02 543.933 1014.28 545.473 1015.17 547.34C1016.06 549.16 1016.5 551.213 1016.5 553.5C1016.5 556.253 1015.85 558.657 1014.54 560.71C1013.28 562.81 1011.51 564.42 1009.22 565.54C1006.93 566.707 1004.3 567.29 1001.31 567.29C997.811 567.29 994.731 566.497 992.071 564.91C989.458 563.37 987.614 561.27 986.541 558.61L988.431 557.35C989.271 559.683 990.834 561.55 993.121 562.95C995.454 564.35 998.208 565.05 1001.38 565.05C1005.25 565.05 1008.33 564 1010.62 561.9C1012.95 559.8 1014.12 556.953 1014.12 553.36C1014.12 549.72 1012.95 546.85 1010.62 544.75C1008.29 542.603 1005.04 541.53 1000.89 541.53H999.281V539.36H1000.96C1004.93 539.36 1007.96 538.497 1010.06 536.77C1012.16 534.997 1013.21 532.64 1013.21 529.7C1013.21 527.46 1012.7 525.547 1011.67 523.96C1010.64 522.373 1009.24 521.137 1007.47 520.25C1005.7 519.363 1003.64 518.92 1001.31 518.92C998.464 518.92 995.944 519.62 993.751 521.02C991.604 522.373 990.041 524.193 989.061 526.48L987.311 525.29C988.011 523.563 989.038 522.047 990.391 520.74C991.791 519.433 993.424 518.43 995.291 517.73C997.204 517.03 999.258 516.68 1001.45 516.68C1004.2 516.68 1006.63 517.217 1008.73 518.29C1010.88 519.363 1012.56 520.857 1013.77 522.77C1015.03 524.683 1015.66 526.853 1015.66 529.28C1015.66 531.24 1015.24 533.013 1014.4 534.6C1013.61 536.187 1012.46 537.493 1010.97 538.52C1009.52 539.547 1007.77 540.2 1005.72 540.48Z" fill="white" fill-opacity="0.02"/>
<path d="M668.78 226.69C668.78 229.863 668.01 232.733 666.47 235.3C664.93 237.867 662.853 239.92 660.24 241.46C657.627 242.953 654.687 243.7 651.42 243.7C648.107 243.7 645.12 242.907 642.46 241.32C639.8 239.733 637.7 237.47 636.16 234.53C634.62 231.543 633.85 228.02 633.85 223.96C633.85 216.82 634.597 210.987 636.09 206.46C637.583 201.887 639.683 198.503 642.39 196.31C645.097 194.07 648.2 192.95 651.7 192.95C655.06 192.95 658.023 193.86 660.59 195.68C663.203 197.453 665.093 199.88 666.26 202.96L664.37 204.08C663.483 201.42 661.873 199.273 659.54 197.64C657.253 196.007 654.64 195.19 651.7 195.19C648.62 195.19 645.913 196.193 643.58 198.2C641.293 200.207 639.497 203.1 638.19 206.88C636.93 210.66 636.3 215.257 636.3 220.67C637 218.477 638.12 216.563 639.66 214.93C641.2 213.297 643.02 212.037 645.12 211.15C647.22 210.217 649.437 209.75 651.77 209.75C654.943 209.75 657.813 210.52 660.38 212.06C662.947 213.6 664.977 215.653 666.47 218.22C668.01 220.74 668.78 223.563 668.78 226.69ZM651.56 241.46C654.313 241.46 656.81 240.807 659.05 239.5C661.29 238.147 663.087 236.35 664.44 234.11C665.793 231.87 666.47 229.42 666.47 226.76C666.47 224.053 665.77 221.58 664.37 219.34C663.017 217.1 661.197 215.303 658.91 213.95C656.67 212.597 654.197 211.92 651.49 211.92C648.83 211.92 646.357 212.597 644.07 213.95C641.783 215.303 639.963 217.1 638.61 219.34C637.257 221.533 636.58 223.983 636.58 226.69C636.58 229.35 637.257 231.8 638.61 234.04C640.01 236.28 641.83 238.077 644.07 239.43C646.357 240.783 648.853 241.46 651.56 241.46ZM678.488 243V193.3H710.688V195.54H680.938V216.54H706.208V218.71H680.938V243H678.488Z" fill="white" fill-opacity="0.02"/>
<path d="M315.13 111.5H286.15V109.19H318.98L293.64 158.89H290.91L315.13 111.5ZM358.279 129.49C358.279 133.597 357.532 137.26 356.039 140.48C354.592 143.653 352.562 146.15 349.949 147.97C347.336 149.79 344.372 150.7 341.059 150.7C337.699 150.7 334.712 149.79 332.099 147.97C329.532 146.15 327.502 143.653 326.009 140.48C324.516 137.26 323.769 133.597 323.769 129.49C323.769 125.383 324.516 121.743 326.009 118.57C327.502 115.35 329.532 112.83 332.099 111.01C334.712 109.143 337.699 108.21 341.059 108.21C344.372 108.21 347.336 109.143 349.949 111.01C352.562 112.83 354.592 115.35 356.039 118.57C357.532 121.743 358.279 125.383 358.279 129.49ZM355.899 129.49C355.899 125.757 355.269 122.467 354.009 119.62C352.749 116.773 350.999 114.557 348.759 112.97C346.566 111.337 343.999 110.52 341.059 110.52C338.119 110.52 335.529 111.337 333.289 112.97C331.049 114.557 329.299 116.773 328.039 119.62C326.779 122.467 326.149 125.757 326.149 129.49C326.149 133.223 326.779 136.513 328.039 139.36C329.299 142.207 331.049 144.423 333.289 146.01C335.529 147.597 338.119 148.39 341.059 148.39C343.999 148.39 346.566 147.597 348.759 146.01C350.999 144.377 352.749 142.16 354.009 139.36C355.269 136.513 355.899 133.223 355.899 129.49Z" fill="white" fill-opacity="0.02"/>
<path d="M1368.78 623.69C1368.78 626.863 1368.01 629.733 1366.47 632.3C1364.93 634.867 1362.85 636.92 1360.24 638.46C1357.63 639.953 1354.69 640.7 1351.42 640.7C1348.11 640.7 1345.12 639.907 1342.46 638.32C1339.8 636.733 1337.7 634.47 1336.16 631.53C1334.62 628.543 1333.85 625.02 1333.85 620.96C1333.85 613.82 1334.6 607.987 1336.09 603.46C1337.58 598.887 1339.68 595.503 1342.39 593.31C1345.1 591.07 1348.2 589.95 1351.7 589.95C1355.06 589.95 1358.02 590.86 1360.59 592.68C1363.2 594.453 1365.09 596.88 1366.26 599.96L1364.37 601.08C1363.48 598.42 1361.87 596.273 1359.54 594.64C1357.25 593.007 1354.64 592.19 1351.7 592.19C1348.62 592.19 1345.91 593.193 1343.58 595.2C1341.29 597.207 1339.5 600.1 1338.19 603.88C1336.93 607.66 1336.3 612.257 1336.3 617.67C1337 615.477 1338.12 613.563 1339.66 611.93C1341.2 610.297 1343.02 609.037 1345.12 608.15C1347.22 607.217 1349.44 606.75 1351.77 606.75C1354.94 606.75 1357.81 607.52 1360.38 609.06C1362.95 610.6 1364.98 612.653 1366.47 615.22C1368.01 617.74 1368.78 620.563 1368.78 623.69ZM1351.56 638.46C1354.31 638.46 1356.81 637.807 1359.05 636.5C1361.29 635.147 1363.09 633.35 1364.44 631.11C1365.79 628.87 1366.47 626.42 1366.47 623.76C1366.47 621.053 1365.77 618.58 1364.37 616.34C1363.02 614.1 1361.2 612.303 1358.91 610.95C1356.67 609.597 1354.2 608.92 1351.49 608.92C1348.83 608.92 1346.36 609.597 1344.07 610.95C1341.78 612.303 1339.96 614.1 1338.61 616.34C1337.26 618.533 1336.58 620.983 1336.58 623.69C1336.58 626.35 1337.26 628.8 1338.61 631.04C1340.01 633.28 1341.83 635.077 1344.07 636.43C1346.36 637.783 1348.85 638.46 1351.56 638.46ZM1374.36 617.04C1374.36 613.867 1375.13 610.997 1376.67 608.43C1378.21 605.863 1380.28 603.833 1382.9 602.34C1385.56 600.8 1388.47 600.03 1391.65 600.03C1395.05 600.03 1398.06 600.823 1400.68 602.41C1403.34 603.997 1405.44 606.26 1406.98 609.2C1408.52 612.14 1409.29 615.663 1409.29 619.77C1409.29 626.863 1408.52 632.697 1406.98 637.27C1405.48 641.843 1403.38 645.227 1400.68 647.42C1398.02 649.66 1394.94 650.78 1391.44 650.78C1388.08 650.78 1385.09 649.87 1382.48 648.05C1379.86 646.277 1378 643.85 1376.88 640.77L1378.77 639.65C1379.65 642.31 1381.26 644.457 1383.6 646.09C1385.93 647.723 1388.52 648.54 1391.37 648.54C1394.49 648.54 1397.2 647.537 1399.49 645.53C1401.82 643.523 1403.62 640.63 1404.88 636.85C1406.18 633.07 1406.84 628.473 1406.84 623.06C1406.18 625.207 1405.06 627.12 1403.48 628.8C1401.94 630.433 1400.12 631.717 1398.02 632.65C1395.92 633.537 1393.68 633.98 1391.3 633.98C1388.17 633.98 1385.32 633.21 1382.76 631.67C1380.19 630.13 1378.14 628.1 1376.6 625.58C1375.1 623.013 1374.36 620.167 1374.36 617.04ZM1391.58 602.27C1388.87 602.27 1386.37 602.947 1384.09 604.3C1381.85 605.607 1380.05 607.38 1378.7 609.62C1377.34 611.813 1376.67 614.263 1376.67 616.97C1376.67 619.677 1377.34 622.15 1378.7 624.39C1380.1 626.63 1381.92 628.427 1384.16 629.78C1386.44 631.133 1388.92 631.81 1391.58 631.81C1394.33 631.81 1396.83 631.133 1399.07 629.78C1401.35 628.427 1403.17 626.63 1404.53 624.39C1405.88 622.15 1406.56 619.7 1406.56 617.04C1406.56 614.333 1405.86 611.86 1404.46 609.62C1403.1 607.38 1401.28 605.607 1399 604.3C1396.76 602.947 1394.28 602.27 1391.58 602.27Z" fill="white" fill-opacity="0.02"/>
<path d="M102.78 662.69C102.78 665.863 102.01 668.733 100.47 671.3C98.93 673.867 96.8533 675.92 94.24 677.46C91.6267 678.953 88.6867 679.7 85.42 679.7C82.1067 679.7 79.12 678.907 76.46 677.32C73.8 675.733 71.7 673.47 70.16 670.53C68.62 667.543 67.85 664.02 67.85 659.96C67.85 652.82 68.5967 646.987 70.09 642.46C71.5833 637.887 73.6833 634.503 76.39 632.31C79.0967 630.07 82.2 628.95 85.7 628.95C89.06 628.95 92.0233 629.86 94.59 631.68C97.2033 633.453 99.0933 635.88 100.26 638.96L98.37 640.08C97.4833 637.42 95.8733 635.273 93.54 633.64C91.2533 632.007 88.64 631.19 85.7 631.19C82.62 631.19 79.9133 632.193 77.58 634.2C75.2933 636.207 73.4967 639.1 72.19 642.88C70.93 646.66 70.3 651.257 70.3 656.67C71 654.477 72.12 652.563 73.66 650.93C75.2 649.297 77.02 648.037 79.12 647.15C81.22 646.217 83.4367 645.75 85.77 645.75C88.9433 645.75 91.8133 646.52 94.38 648.06C96.9467 649.6 98.9767 651.653 100.47 654.22C102.01 656.74 102.78 659.563 102.78 662.69ZM85.56 677.46C88.3133 677.46 90.81 676.807 93.05 675.5C95.29 674.147 97.0867 672.35 98.44 670.11C99.7933 667.87 100.47 665.42 100.47 662.76C100.47 660.053 99.77 657.58 98.37 655.34C97.0167 653.1 95.1967 651.303 92.91 649.95C90.67 648.597 88.1967 647.92 85.49 647.92C82.83 647.92 80.3567 648.597 78.07 649.95C75.7833 651.303 73.9633 653.1 72.61 655.34C71.2567 657.533 70.58 659.983 70.58 662.69C70.58 665.35 71.2567 667.8 72.61 670.04C74.01 672.28 75.83 674.077 78.07 675.43C80.3567 676.783 82.8533 677.46 85.56 677.46ZM145.318 676.76V679H112.488V629.3H144.688V631.54H114.938V652.47H140.978V654.71H114.938V676.76H145.318Z" fill="white" fill-opacity="0.02"/>
<path d="M1305.78 300.69C1305.78 303.863 1305.01 306.733 1303.47 309.3C1301.93 311.867 1299.85 313.92 1297.24 315.46C1294.63 316.953 1291.69 317.7 1288.42 317.7C1285.11 317.7 1282.12 316.907 1279.46 315.32C1276.8 313.733 1274.7 311.47 1273.16 308.53C1271.62 305.543 1270.85 302.02 1270.85 297.96C1270.85 290.82 1271.6 284.987 1273.09 280.46C1274.58 275.887 1276.68 272.503 1279.39 270.31C1282.1 268.07 1285.2 266.95 1288.7 266.95C1292.06 266.95 1295.02 267.86 1297.59 269.68C1300.2 271.453 1302.09 273.88 1303.26 276.96L1301.37 278.08C1300.48 275.42 1298.87 273.273 1296.54 271.64C1294.25 270.007 1291.64 269.19 1288.7 269.19C1285.62 269.19 1282.91 270.193 1280.58 272.2C1278.29 274.207 1276.5 277.1 1275.19 280.88C1273.93 284.66 1273.3 289.257 1273.3 294.67C1274 292.477 1275.12 290.563 1276.66 288.93C1278.2 287.297 1280.02 286.037 1282.12 285.15C1284.22 284.217 1286.44 283.75 1288.77 283.75C1291.94 283.75 1294.81 284.52 1297.38 286.06C1299.95 287.6 1301.98 289.653 1303.47 292.22C1305.01 294.74 1305.78 297.563 1305.78 300.69ZM1288.56 315.46C1291.31 315.46 1293.81 314.807 1296.05 313.5C1298.29 312.147 1300.09 310.35 1301.44 308.11C1302.79 305.87 1303.47 303.42 1303.47 300.76C1303.47 298.053 1302.77 295.58 1301.37 293.34C1300.02 291.1 1298.2 289.303 1295.91 287.95C1293.67 286.597 1291.2 285.92 1288.49 285.92C1285.83 285.92 1283.36 286.597 1281.07 287.95C1278.78 289.303 1276.96 291.1 1275.61 293.34C1274.26 295.533 1273.58 297.983 1273.58 300.69C1273.58 303.35 1274.26 305.8 1275.61 308.04C1277.01 310.28 1278.83 312.077 1281.07 313.43C1283.36 314.783 1285.85 315.46 1288.56 315.46ZM1346.01 303.63C1346.01 306.43 1345.21 308.88 1343.63 310.98C1342.09 313.033 1340.01 314.643 1337.4 315.81C1334.83 316.93 1332.03 317.49 1329 317.49C1325.68 317.49 1322.77 316.837 1320.25 315.53C1317.77 314.223 1315.84 312.52 1314.44 310.42C1313.08 308.273 1312.41 305.963 1312.41 303.49C1312.41 301.203 1312.94 299.173 1314.02 297.4C1315.14 295.627 1316.54 294.133 1318.22 292.92C1319.9 291.707 1321.65 290.843 1323.47 290.33C1321.79 289.723 1320.25 288.907 1318.85 287.88C1317.45 286.853 1316.33 285.64 1315.49 284.24C1314.65 282.793 1314.23 281.183 1314.23 279.41C1314.23 277.45 1314.65 275.723 1315.49 274.23C1316.37 272.69 1317.54 271.407 1318.99 270.38C1320.43 269.353 1322.04 268.583 1323.82 268.07C1325.59 267.557 1327.41 267.3 1329.28 267.3C1331.1 267.3 1332.89 267.557 1334.67 268.07C1336.44 268.583 1338.05 269.353 1339.5 270.38C1340.94 271.407 1342.09 272.667 1342.93 274.16C1343.81 275.653 1344.26 277.38 1344.26 279.34C1344.26 281.16 1343.81 282.793 1342.93 284.24C1342.09 285.64 1340.94 286.853 1339.5 287.88C1338.1 288.907 1336.58 289.723 1334.95 290.33C1337 290.937 1338.87 291.893 1340.55 293.2C1342.23 294.46 1343.56 295.977 1344.54 297.75C1345.52 299.477 1346.01 301.437 1346.01 303.63ZM1343.63 303.42C1343.63 301.507 1343.18 299.803 1342.3 298.31C1341.46 296.817 1340.31 295.58 1338.87 294.6C1337.47 293.573 1335.9 292.803 1334.18 292.29C1332.5 291.73 1330.82 291.45 1329.14 291.45C1326.8 291.45 1324.54 291.963 1322.35 292.99C1320.2 293.97 1318.4 295.37 1316.96 297.19C1315.56 298.963 1314.86 301.063 1314.86 303.49C1314.86 305.403 1315.28 307.107 1316.12 308.6C1317 310.047 1318.15 311.283 1319.55 312.31C1320.99 313.337 1322.56 314.107 1324.24 314.62C1325.96 315.133 1327.67 315.39 1329.35 315.39C1331.63 315.39 1333.87 314.9 1336.07 313.92C1338.26 312.94 1340.06 311.563 1341.46 309.79C1342.9 307.97 1343.63 305.847 1343.63 303.42ZM1316.61 279.55C1316.61 281.603 1317.24 283.377 1318.5 284.87C1319.8 286.363 1321.44 287.483 1323.4 288.23C1325.36 288.977 1327.29 289.35 1329.21 289.35C1331.12 289.35 1333.06 288.977 1335.02 288.23C1336.98 287.437 1338.61 286.293 1339.92 284.8C1341.22 283.26 1341.88 281.463 1341.88 279.41C1341.88 277.31 1341.25 275.537 1339.99 274.09C1338.77 272.597 1337.19 271.477 1335.23 270.73C1333.31 269.937 1331.28 269.54 1329.14 269.54C1327.04 269.54 1325.01 269.937 1323.05 270.73C1321.13 271.523 1319.57 272.667 1318.36 274.16C1317.19 275.653 1316.61 277.45 1316.61 279.55Z" fill="white" fill-opacity="0.02"/>
<path d="M646.78 602.69C646.78 605.863 646.01 608.733 644.47 611.3C642.93 613.867 640.853 615.92 638.24 617.46C635.627 618.953 632.687 619.7 629.42 619.7C626.107 619.7 623.12 618.907 620.46 617.32C617.8 615.733 615.7 613.47 614.16 610.53C612.62 607.543 611.85 604.02 611.85 599.96C611.85 592.82 612.597 586.987 614.09 582.46C615.583 577.887 617.683 574.503 620.39 572.31C623.097 570.07 626.2 568.95 629.7 568.95C633.06 568.95 636.023 569.86 638.59 571.68C641.203 573.453 643.093 575.88 644.26 578.96L642.37 580.08C641.483 577.42 639.873 575.273 637.54 573.64C635.253 572.007 632.64 571.19 629.7 571.19C626.62 571.19 623.913 572.193 621.58 574.2C619.293 576.207 617.497 579.1 616.19 582.88C614.93 586.66 614.3 591.257 614.3 596.67C615 594.477 616.12 592.563 617.66 590.93C619.2 589.297 621.02 588.037 623.12 587.15C625.22 586.217 627.437 585.75 629.77 585.75C632.943 585.75 635.813 586.52 638.38 588.06C640.947 589.6 642.977 591.653 644.47 594.22C646.01 596.74 646.78 599.563 646.78 602.69ZM629.56 617.46C632.313 617.46 634.81 616.807 637.05 615.5C639.29 614.147 641.087 612.35 642.44 610.11C643.793 607.87 644.47 605.42 644.47 602.76C644.47 600.053 643.77 597.58 642.37 595.34C641.017 593.1 639.197 591.303 636.91 589.95C634.67 588.597 632.197 587.92 629.49 587.92C626.83 587.92 624.357 588.597 622.07 589.95C619.783 591.303 617.963 593.1 616.61 595.34C615.257 597.533 614.58 599.983 614.58 602.69C614.58 605.35 615.257 607.8 616.61 610.04C618.01 612.28 619.83 614.077 622.07 615.43C624.357 616.783 626.853 617.46 629.56 617.46ZM675.738 616.76V619H654.528V616.76H664.468V582.32C664.094 582.88 663.464 583.51 662.578 584.21C661.691 584.863 660.664 585.493 659.498 586.1C658.378 586.707 657.234 587.22 656.068 587.64C654.901 588.013 653.851 588.2 652.918 588.2V585.68C654.131 585.68 655.391 585.377 656.698 584.77C658.004 584.117 659.241 583.37 660.408 582.53C661.574 581.69 662.508 580.92 663.208 580.22C663.954 579.52 664.374 579.123 664.468 579.03H666.848V616.76H675.738Z" fill="white" fill-opacity="0.02"/>
</svg>
